%TF.GenerationSoftware,KiCad,Pcbnew,9.0.6*%
%TF.CreationDate,2026-09-04T22:22:20+05:30*%
%TF.ProjectId,SkyForge,536b7946-6f72-4676-952e-6b696361645f,rev?*%
%TF.SameCoordinates,Original*%
%TF.FileFunction,Copper,L3,Inr*%
%TF.FilePolarity,Positive*%
%FSLAX46Y46*%
G04 Gerber Fmt 4.6, Leading zero omitted, Abs format (unit mm)*
G04 Created by KiCad (PCBNEW 9.0.6) date 2026-09-04 22:22:20*
%MOMM*%
%LPD*%
G01*
G04 APERTURE LIST*
G04 Aperture macros list*
%AMRoundRect*
0 Rectangle with rounded corners*
0 $1 Rounding radius*
0 $2 $3 $4 $5 $6 $7 $8 $9 X,Y pos of 4 corners*
0 Add a 4 corners polygon primitive as box body*
4,1,4,$2,$3,$4,$5,$6,$7,$8,$9,$2,$3,0*
0 Add four circle primitives for the rounded corners*
1,1,$1+$1,$2,$3*
1,1,$1+$1,$4,$5*
1,1,$1+$1,$6,$7*
1,1,$1+$1,$8,$9*
0 Add four rect primitives between the rounded corners*
20,1,$1+$1,$2,$3,$4,$5,0*
20,1,$1+$1,$4,$5,$6,$7,0*
20,1,$1+$1,$6,$7,$8,$9,0*
20,1,$1+$1,$8,$9,$2,$3,0*%
G04 Aperture macros list end*
%TA.AperFunction,ComponentPad*%
%ADD10C,2.000000*%
%TD*%
%TA.AperFunction,ComponentPad*%
%ADD11R,2.000000X2.000000*%
%TD*%
%TA.AperFunction,ComponentPad*%
%ADD12O,3.200000X1.900000*%
%TD*%
%TA.AperFunction,ComponentPad*%
%ADD13RoundRect,0.750000X0.750000X-1.250000X0.750000X1.250000X-0.750000X1.250000X-0.750000X-1.250000X0*%
%TD*%
%TA.AperFunction,ComponentPad*%
%ADD14C,1.800000*%
%TD*%
%TA.AperFunction,ComponentPad*%
%ADD15R,1.800000X1.800000*%
%TD*%
%TA.AperFunction,ComponentPad*%
%ADD16C,1.600000*%
%TD*%
%TA.AperFunction,ComponentPad*%
%ADD17C,1.700000*%
%TD*%
%TA.AperFunction,ComponentPad*%
%ADD18R,1.700000X1.700000*%
%TD*%
%TA.AperFunction,ComponentPad*%
%ADD19O,1.070000X1.800000*%
%TD*%
%TA.AperFunction,ComponentPad*%
%ADD20R,1.070000X1.800000*%
%TD*%
%TA.AperFunction,Conductor*%
%ADD21C,0.200000*%
%TD*%
G04 APERTURE END LIST*
D10*
%TO.N,unconnected-(U1-EN-Pad16)*%
%TO.C,U1*%
X164000000Y-89820000D03*
%TO.N,unconnected-(U1-VP-Pad17)*%
X164000000Y-87280000D03*
%TO.N,unconnected-(U1-VN-Pad18)*%
X164000000Y-84740000D03*
%TO.N,/Throttle*%
X164000000Y-82200000D03*
%TO.N,unconnected-(U1-D35-Pad20)*%
X164000000Y-79660000D03*
%TO.N,/JOY_X*%
X164000000Y-77120000D03*
%TO.N,/JOY_Y*%
X164000000Y-74580000D03*
%TO.N,/RGBR*%
X164000000Y-72040000D03*
%TO.N,/RGBG*%
X164000000Y-69500000D03*
%TO.N,/RGBB*%
X164000000Y-66960000D03*
%TO.N,/BTN_4*%
X164000000Y-64420000D03*
%TO.N,unconnected-(U1-D12-Pad27)*%
X164000000Y-61880000D03*
%TO.N,/BTN_3*%
X164000000Y-59340000D03*
%TO.N,GND*%
X164000000Y-56800000D03*
%TO.N,unconnected-(U1-VIN-Pad30)*%
X164000000Y-54260000D03*
%TO.N,/JOY_SW*%
X138600000Y-89820000D03*
%TO.N,/I2C_SCL*%
X138600000Y-87280000D03*
%TO.N,unconnected-(U1-TX0-Pad13)*%
X138600000Y-84740000D03*
%TO.N,unconnected-(U1-RX0-Pad12)*%
X138600000Y-82200000D03*
%TO.N,/I2C_SDA*%
X138600000Y-79660000D03*
%TO.N,/BTN_2*%
X138600000Y-77120000D03*
%TO.N,/BTN_1*%
X138600000Y-74580000D03*
%TO.N,unconnected-(U1-D5-Pad8)*%
X138600000Y-72040000D03*
%TO.N,unconnected-(U1-TX2-Pad7)*%
X138600000Y-69500000D03*
%TO.N,unconnected-(U1-RX2-Pad6)*%
X138600000Y-66960000D03*
%TO.N,unconnected-(U1-D4-Pad5)*%
X138600000Y-64420000D03*
%TO.N,unconnected-(U1-D2-Pad4)*%
X138600000Y-61880000D03*
%TO.N,unconnected-(U1-D15-Pad3)*%
X138600000Y-59340000D03*
%TO.N,GND*%
X138600000Y-56800000D03*
D11*
%TO.N,+3.3V*%
X138600000Y-54260000D03*
%TD*%
D12*
%TO.N,/BTN_4*%
%TO.C,SW4*%
X118500000Y-139500000D03*
X106000000Y-139500000D03*
%TO.N,GND*%
X118500000Y-134500000D03*
X106000000Y-134500000D03*
%TD*%
%TO.N,/BTN_3*%
%TO.C,SW2*%
X118500000Y-74500000D03*
X106000000Y-74500000D03*
%TO.N,GND*%
X118500000Y-69500000D03*
X106000000Y-69500000D03*
%TD*%
D13*
%TO.N,N/C*%
%TO.C,RV1*%
X177475000Y-59300000D03*
X187475000Y-59300000D03*
D14*
%TO.N,GND*%
X179975000Y-56000000D03*
%TO.N,/Throttle*%
X182475000Y-56000000D03*
D15*
%TO.N,+3.3V*%
X184975000Y-56000000D03*
%TD*%
D16*
%TO.N,/RGBB*%
%TO.C,R3*%
X190000000Y-128000000D03*
%TO.N,Net-(D1-BA)*%
X179840000Y-128000000D03*
%TD*%
D17*
%TO.N,/JOY_SW*%
%TO.C,J3*%
X187610000Y-82475000D03*
%TO.N,/JOY_Y*%
X185070000Y-82475000D03*
%TO.N,/JOY_X*%
X182530000Y-82475000D03*
%TO.N,+3.3V*%
X179990000Y-82475000D03*
D18*
%TO.N,GND*%
X177450000Y-82475000D03*
%TD*%
D17*
%TO.N,/I2C_SDA*%
%TO.C,J2*%
X154500000Y-127000000D03*
%TO.N,/I2C_SCL*%
X151960000Y-127000000D03*
%TO.N,GND*%
X149420000Y-127000000D03*
D18*
%TO.N,+3.3V*%
X146880000Y-127000000D03*
%TD*%
D12*
%TO.N,/BTN_1*%
%TO.C,SW1*%
X119000000Y-54000000D03*
X106500000Y-54000000D03*
%TO.N,GND*%
X119000000Y-49000000D03*
X106500000Y-49000000D03*
%TD*%
%TO.N,/BTN_2*%
%TO.C,SW3*%
X118500000Y-119500000D03*
X106000000Y-119500000D03*
%TO.N,GND*%
X118500000Y-114500000D03*
X106000000Y-114500000D03*
%TD*%
D17*
%TO.N,unconnected-(J1-Pin_8-Pad8)*%
%TO.C,J1*%
X159540000Y-104500000D03*
%TO.N,unconnected-(J1-Pin_7-Pad7)*%
X157000000Y-104500000D03*
%TO.N,unconnected-(J1-Pin_6-Pad6)*%
X154460000Y-104500000D03*
%TO.N,unconnected-(J1-Pin_5-Pad5)*%
X151920000Y-104500000D03*
%TO.N,/I2C_SDA*%
X149380000Y-104500000D03*
%TO.N,/I2C_SCL*%
X146840000Y-104500000D03*
%TO.N,GND*%
X144300000Y-104500000D03*
D18*
%TO.N,+3.3V*%
X141760000Y-104500000D03*
%TD*%
D16*
%TO.N,/RGBG*%
%TO.C,R2*%
X190000000Y-135500000D03*
%TO.N,Net-(D1-GA)*%
X179840000Y-135500000D03*
%TD*%
%TO.N,/RGBR*%
%TO.C,R1*%
X190000000Y-143000000D03*
%TO.N,Net-(D1-RA)*%
X179840000Y-143000000D03*
%TD*%
D19*
%TO.N,GND*%
%TO.C,D1*%
X187000000Y-115000000D03*
%TO.N,Net-(D1-BA)*%
X185730000Y-115000000D03*
%TO.N,Net-(D1-GA)*%
X184460000Y-115000000D03*
D20*
%TO.N,Net-(D1-RA)*%
X183190000Y-115000000D03*
%TD*%
D21*
%TO.N,/JOY_SW*%
X148000000Y-104747760D02*
X148000000Y-99220000D01*
X148000000Y-99220000D02*
X138600000Y-89820000D01*
X164434000Y-105651000D02*
X148903240Y-105651000D01*
X187610000Y-82475000D02*
X164434000Y-105651000D01*
X148903240Y-105651000D02*
X148000000Y-104747760D01*
%TO.N,/JOY_Y*%
X165239000Y-75819000D02*
X164000000Y-74580000D01*
X178414000Y-75819000D02*
X165239000Y-75819000D01*
X185070000Y-82475000D02*
X178414000Y-75819000D01*
%TO.N,/JOY_X*%
X168204000Y-81324000D02*
X164000000Y-77120000D01*
X181379000Y-81324000D02*
X168204000Y-81324000D01*
X182530000Y-82475000D02*
X181379000Y-81324000D01*
%TO.N,/I2C_SDA*%
X149380000Y-90440000D02*
X138600000Y-79660000D01*
X149380000Y-104500000D02*
X149380000Y-90440000D01*
%TO.N,/I2C_SCL*%
X137000000Y-94660000D02*
X137000000Y-88880000D01*
X146840000Y-104500000D02*
X137000000Y-94660000D01*
X137000000Y-88880000D02*
X138600000Y-87280000D01*
%TD*%
M02*
