%TF.GenerationSoftware,KiCad,Pcbnew,9.0.6*%
%TF.CreationDate,2026-09-04T22:22:20+05:30*%
%TF.ProjectId,SkyForge,536b7946-6f72-4676-952e-6b696361645f,rev?*%
%TF.SameCoordinates,Original*%
%TF.FileFunction,Soldermask,Bot*%
%TF.FilePolarity,Negative*%
%FSLAX46Y46*%
G04 Gerber Fmt 4.6, Leading zero omitted, Abs format (unit mm)*
G04 Created by KiCad (PCBNEW 9.0.6) date 2026-09-04 22:22:20*
%MOMM*%
%LPD*%
G01*
G04 APERTURE LIST*
G04 Aperture macros list*
%AMRoundRect*
0 Rectangle with rounded corners*
0 $1 Rounding radius*
0 $2 $3 $4 $5 $6 $7 $8 $9 X,Y pos of 4 corners*
0 Add a 4 corners polygon primitive as box body*
4,1,4,$2,$3,$4,$5,$6,$7,$8,$9,$2,$3,0*
0 Add four circle primitives for the rounded corners*
1,1,$1+$1,$2,$3*
1,1,$1+$1,$4,$5*
1,1,$1+$1,$6,$7*
1,1,$1+$1,$8,$9*
0 Add four rect primitives between the rounded corners*
20,1,$1+$1,$2,$3,$4,$5,0*
20,1,$1+$1,$4,$5,$6,$7,0*
20,1,$1+$1,$6,$7,$8,$9,0*
20,1,$1+$1,$8,$9,$2,$3,0*%
G04 Aperture macros list end*
%ADD10C,3.000000*%
%ADD11C,2.204000*%
%ADD12RoundRect,0.102000X-1.000000X-1.000000X1.000000X-1.000000X1.000000X1.000000X-1.000000X1.000000X0*%
%ADD13O,3.200000X1.900000*%
%ADD14RoundRect,0.750000X0.750000X-1.250000X0.750000X1.250000X-0.750000X1.250000X-0.750000X-1.250000X0*%
%ADD15C,1.800000*%
%ADD16R,1.800000X1.800000*%
%ADD17C,1.600000*%
%ADD18C,1.700000*%
%ADD19R,1.700000X1.700000*%
%ADD20O,1.070000X1.800000*%
%ADD21R,1.070000X1.800000*%
G04 APERTURE END LIST*
D10*
%TO.C,U1*%
X139020000Y-46300000D03*
X163530000Y-46300000D03*
X163530000Y-93250000D03*
X139020000Y-93250000D03*
D11*
X164000000Y-89820000D03*
X164000000Y-87280000D03*
X164000000Y-84740000D03*
X164000000Y-82200000D03*
X164000000Y-79660000D03*
X164000000Y-77120000D03*
X164000000Y-74580000D03*
X164000000Y-72040000D03*
X164000000Y-69500000D03*
X164000000Y-66960000D03*
X164000000Y-64420000D03*
X164000000Y-61880000D03*
X164000000Y-59340000D03*
X164000000Y-56800000D03*
X164000000Y-54260000D03*
X138600000Y-89820000D03*
X138600000Y-87280000D03*
X138600000Y-84740000D03*
X138600000Y-82200000D03*
X138600000Y-79660000D03*
X138600000Y-77120000D03*
X138600000Y-74580000D03*
X138600000Y-72040000D03*
X138600000Y-69500000D03*
X138600000Y-66960000D03*
X138600000Y-64420000D03*
X138600000Y-61880000D03*
X138600000Y-59340000D03*
X138600000Y-56800000D03*
D12*
X138600000Y-54260000D03*
%TD*%
D13*
%TO.C,SW4*%
X118500000Y-139500000D03*
X106000000Y-139500000D03*
X118500000Y-134500000D03*
X106000000Y-134500000D03*
%TD*%
%TO.C,SW2*%
X118500000Y-74500000D03*
X106000000Y-74500000D03*
X118500000Y-69500000D03*
X106000000Y-69500000D03*
%TD*%
D14*
%TO.C,RV1*%
X177475000Y-59300000D03*
X187475000Y-59300000D03*
D15*
X179975000Y-56000000D03*
X182475000Y-56000000D03*
D16*
X184975000Y-56000000D03*
%TD*%
D17*
%TO.C,R3*%
X190000000Y-128000000D03*
X179840000Y-128000000D03*
%TD*%
D18*
%TO.C,J3*%
X187610000Y-82475000D03*
X185070000Y-82475000D03*
X182530000Y-82475000D03*
X179990000Y-82475000D03*
D19*
X177450000Y-82475000D03*
%TD*%
D18*
%TO.C,J2*%
X154500000Y-127000000D03*
X151960000Y-127000000D03*
X149420000Y-127000000D03*
D19*
X146880000Y-127000000D03*
%TD*%
D13*
%TO.C,SW1*%
X119000000Y-54000000D03*
X106500000Y-54000000D03*
X119000000Y-49000000D03*
X106500000Y-49000000D03*
%TD*%
%TO.C,SW3*%
X118500000Y-119500000D03*
X106000000Y-119500000D03*
X118500000Y-114500000D03*
X106000000Y-114500000D03*
%TD*%
D18*
%TO.C,J1*%
X159540000Y-104500000D03*
X157000000Y-104500000D03*
X154460000Y-104500000D03*
X151920000Y-104500000D03*
X149380000Y-104500000D03*
X146840000Y-104500000D03*
X144300000Y-104500000D03*
D19*
X141760000Y-104500000D03*
%TD*%
D17*
%TO.C,R2*%
X190000000Y-135500000D03*
X179840000Y-135500000D03*
%TD*%
%TO.C,R1*%
X190000000Y-143000000D03*
X179840000Y-143000000D03*
%TD*%
D20*
%TO.C,D1*%
X187000000Y-115000000D03*
X185730000Y-115000000D03*
X184460000Y-115000000D03*
D21*
X183190000Y-115000000D03*
%TD*%
M02*
