%TF.GenerationSoftware,KiCad,Pcbnew,9.0.6*%
%TF.CreationDate,2026-09-04T22:22:20+05:30*%
%TF.ProjectId,SkyForge,536b7946-6f72-4676-952e-6b696361645f,rev?*%
%TF.SameCoordinates,Original*%
%TF.FileFunction,Legend,Top*%
%TF.FilePolarity,Positive*%
%FSLAX46Y46*%
G04 Gerber Fmt 4.6, Leading zero omitted, Abs format (unit mm)*
G04 Created by KiCad (PCBNEW 9.0.6) date 2026-09-04 22:22:20*
%MOMM*%
%LPD*%
G01*
G04 APERTURE LIST*
%ADD10C,0.150000*%
%ADD11C,0.127000*%
%ADD12C,0.200000*%
%ADD13C,0.120000*%
G04 APERTURE END LIST*
D10*
X139183095Y-41869819D02*
X139183095Y-42679342D01*
X139183095Y-42679342D02*
X139230714Y-42774580D01*
X139230714Y-42774580D02*
X139278333Y-42822200D01*
X139278333Y-42822200D02*
X139373571Y-42869819D01*
X139373571Y-42869819D02*
X139564047Y-42869819D01*
X139564047Y-42869819D02*
X139659285Y-42822200D01*
X139659285Y-42822200D02*
X139706904Y-42774580D01*
X139706904Y-42774580D02*
X139754523Y-42679342D01*
X139754523Y-42679342D02*
X139754523Y-41869819D01*
X140754523Y-42869819D02*
X140183095Y-42869819D01*
X140468809Y-42869819D02*
X140468809Y-41869819D01*
X140468809Y-41869819D02*
X140373571Y-42012676D01*
X140373571Y-42012676D02*
X140278333Y-42107914D01*
X140278333Y-42107914D02*
X140183095Y-42155533D01*
X110496667Y-129497200D02*
X110639524Y-129544819D01*
X110639524Y-129544819D02*
X110877619Y-129544819D01*
X110877619Y-129544819D02*
X110972857Y-129497200D01*
X110972857Y-129497200D02*
X111020476Y-129449580D01*
X111020476Y-129449580D02*
X111068095Y-129354342D01*
X111068095Y-129354342D02*
X111068095Y-129259104D01*
X111068095Y-129259104D02*
X111020476Y-129163866D01*
X111020476Y-129163866D02*
X110972857Y-129116247D01*
X110972857Y-129116247D02*
X110877619Y-129068628D01*
X110877619Y-129068628D02*
X110687143Y-129021009D01*
X110687143Y-129021009D02*
X110591905Y-128973390D01*
X110591905Y-128973390D02*
X110544286Y-128925771D01*
X110544286Y-128925771D02*
X110496667Y-128830533D01*
X110496667Y-128830533D02*
X110496667Y-128735295D01*
X110496667Y-128735295D02*
X110544286Y-128640057D01*
X110544286Y-128640057D02*
X110591905Y-128592438D01*
X110591905Y-128592438D02*
X110687143Y-128544819D01*
X110687143Y-128544819D02*
X110925238Y-128544819D01*
X110925238Y-128544819D02*
X111068095Y-128592438D01*
X111401429Y-128544819D02*
X111639524Y-129544819D01*
X111639524Y-129544819D02*
X111830000Y-128830533D01*
X111830000Y-128830533D02*
X112020476Y-129544819D01*
X112020476Y-129544819D02*
X112258572Y-128544819D01*
X113068095Y-128878152D02*
X113068095Y-129544819D01*
X112830000Y-128497200D02*
X112591905Y-129211485D01*
X112591905Y-129211485D02*
X113210952Y-129211485D01*
X110496667Y-64497200D02*
X110639524Y-64544819D01*
X110639524Y-64544819D02*
X110877619Y-64544819D01*
X110877619Y-64544819D02*
X110972857Y-64497200D01*
X110972857Y-64497200D02*
X111020476Y-64449580D01*
X111020476Y-64449580D02*
X111068095Y-64354342D01*
X111068095Y-64354342D02*
X111068095Y-64259104D01*
X111068095Y-64259104D02*
X111020476Y-64163866D01*
X111020476Y-64163866D02*
X110972857Y-64116247D01*
X110972857Y-64116247D02*
X110877619Y-64068628D01*
X110877619Y-64068628D02*
X110687143Y-64021009D01*
X110687143Y-64021009D02*
X110591905Y-63973390D01*
X110591905Y-63973390D02*
X110544286Y-63925771D01*
X110544286Y-63925771D02*
X110496667Y-63830533D01*
X110496667Y-63830533D02*
X110496667Y-63735295D01*
X110496667Y-63735295D02*
X110544286Y-63640057D01*
X110544286Y-63640057D02*
X110591905Y-63592438D01*
X110591905Y-63592438D02*
X110687143Y-63544819D01*
X110687143Y-63544819D02*
X110925238Y-63544819D01*
X110925238Y-63544819D02*
X111068095Y-63592438D01*
X111401429Y-63544819D02*
X111639524Y-64544819D01*
X111639524Y-64544819D02*
X111830000Y-63830533D01*
X111830000Y-63830533D02*
X112020476Y-64544819D01*
X112020476Y-64544819D02*
X112258572Y-63544819D01*
X112591905Y-63640057D02*
X112639524Y-63592438D01*
X112639524Y-63592438D02*
X112734762Y-63544819D01*
X112734762Y-63544819D02*
X112972857Y-63544819D01*
X112972857Y-63544819D02*
X113068095Y-63592438D01*
X113068095Y-63592438D02*
X113115714Y-63640057D01*
X113115714Y-63640057D02*
X113163333Y-63735295D01*
X113163333Y-63735295D02*
X113163333Y-63830533D01*
X113163333Y-63830533D02*
X113115714Y-63973390D01*
X113115714Y-63973390D02*
X112544286Y-64544819D01*
X112544286Y-64544819D02*
X113163333Y-64544819D01*
X174379819Y-56595238D02*
X173903628Y-56928571D01*
X174379819Y-57166666D02*
X173379819Y-57166666D01*
X173379819Y-57166666D02*
X173379819Y-56785714D01*
X173379819Y-56785714D02*
X173427438Y-56690476D01*
X173427438Y-56690476D02*
X173475057Y-56642857D01*
X173475057Y-56642857D02*
X173570295Y-56595238D01*
X173570295Y-56595238D02*
X173713152Y-56595238D01*
X173713152Y-56595238D02*
X173808390Y-56642857D01*
X173808390Y-56642857D02*
X173856009Y-56690476D01*
X173856009Y-56690476D02*
X173903628Y-56785714D01*
X173903628Y-56785714D02*
X173903628Y-57166666D01*
X173379819Y-56309523D02*
X174379819Y-55976190D01*
X174379819Y-55976190D02*
X173379819Y-55642857D01*
X174379819Y-54785714D02*
X174379819Y-55357142D01*
X174379819Y-55071428D02*
X173379819Y-55071428D01*
X173379819Y-55071428D02*
X173522676Y-55166666D01*
X173522676Y-55166666D02*
X173617914Y-55261904D01*
X173617914Y-55261904D02*
X173665533Y-55357142D01*
X184753333Y-126084819D02*
X184420000Y-125608628D01*
X184181905Y-126084819D02*
X184181905Y-125084819D01*
X184181905Y-125084819D02*
X184562857Y-125084819D01*
X184562857Y-125084819D02*
X184658095Y-125132438D01*
X184658095Y-125132438D02*
X184705714Y-125180057D01*
X184705714Y-125180057D02*
X184753333Y-125275295D01*
X184753333Y-125275295D02*
X184753333Y-125418152D01*
X184753333Y-125418152D02*
X184705714Y-125513390D01*
X184705714Y-125513390D02*
X184658095Y-125561009D01*
X184658095Y-125561009D02*
X184562857Y-125608628D01*
X184562857Y-125608628D02*
X184181905Y-125608628D01*
X185086667Y-125084819D02*
X185705714Y-125084819D01*
X185705714Y-125084819D02*
X185372381Y-125465771D01*
X185372381Y-125465771D02*
X185515238Y-125465771D01*
X185515238Y-125465771D02*
X185610476Y-125513390D01*
X185610476Y-125513390D02*
X185658095Y-125561009D01*
X185658095Y-125561009D02*
X185705714Y-125656247D01*
X185705714Y-125656247D02*
X185705714Y-125894342D01*
X185705714Y-125894342D02*
X185658095Y-125989580D01*
X185658095Y-125989580D02*
X185610476Y-126037200D01*
X185610476Y-126037200D02*
X185515238Y-126084819D01*
X185515238Y-126084819D02*
X185229524Y-126084819D01*
X185229524Y-126084819D02*
X185134286Y-126037200D01*
X185134286Y-126037200D02*
X185086667Y-125989580D01*
X174134819Y-82808333D02*
X174849104Y-82808333D01*
X174849104Y-82808333D02*
X174991961Y-82855952D01*
X174991961Y-82855952D02*
X175087200Y-82951190D01*
X175087200Y-82951190D02*
X175134819Y-83094047D01*
X175134819Y-83094047D02*
X175134819Y-83189285D01*
X174134819Y-82427380D02*
X174134819Y-81808333D01*
X174134819Y-81808333D02*
X174515771Y-82141666D01*
X174515771Y-82141666D02*
X174515771Y-81998809D01*
X174515771Y-81998809D02*
X174563390Y-81903571D01*
X174563390Y-81903571D02*
X174611009Y-81855952D01*
X174611009Y-81855952D02*
X174706247Y-81808333D01*
X174706247Y-81808333D02*
X174944342Y-81808333D01*
X174944342Y-81808333D02*
X175039580Y-81855952D01*
X175039580Y-81855952D02*
X175087200Y-81903571D01*
X175087200Y-81903571D02*
X175134819Y-81998809D01*
X175134819Y-81998809D02*
X175134819Y-82284523D01*
X175134819Y-82284523D02*
X175087200Y-82379761D01*
X175087200Y-82379761D02*
X175039580Y-82427380D01*
X143564819Y-127333333D02*
X144279104Y-127333333D01*
X144279104Y-127333333D02*
X144421961Y-127380952D01*
X144421961Y-127380952D02*
X144517200Y-127476190D01*
X144517200Y-127476190D02*
X144564819Y-127619047D01*
X144564819Y-127619047D02*
X144564819Y-127714285D01*
X143660057Y-126904761D02*
X143612438Y-126857142D01*
X143612438Y-126857142D02*
X143564819Y-126761904D01*
X143564819Y-126761904D02*
X143564819Y-126523809D01*
X143564819Y-126523809D02*
X143612438Y-126428571D01*
X143612438Y-126428571D02*
X143660057Y-126380952D01*
X143660057Y-126380952D02*
X143755295Y-126333333D01*
X143755295Y-126333333D02*
X143850533Y-126333333D01*
X143850533Y-126333333D02*
X143993390Y-126380952D01*
X143993390Y-126380952D02*
X144564819Y-126952380D01*
X144564819Y-126952380D02*
X144564819Y-126333333D01*
X110996667Y-43997200D02*
X111139524Y-44044819D01*
X111139524Y-44044819D02*
X111377619Y-44044819D01*
X111377619Y-44044819D02*
X111472857Y-43997200D01*
X111472857Y-43997200D02*
X111520476Y-43949580D01*
X111520476Y-43949580D02*
X111568095Y-43854342D01*
X111568095Y-43854342D02*
X111568095Y-43759104D01*
X111568095Y-43759104D02*
X111520476Y-43663866D01*
X111520476Y-43663866D02*
X111472857Y-43616247D01*
X111472857Y-43616247D02*
X111377619Y-43568628D01*
X111377619Y-43568628D02*
X111187143Y-43521009D01*
X111187143Y-43521009D02*
X111091905Y-43473390D01*
X111091905Y-43473390D02*
X111044286Y-43425771D01*
X111044286Y-43425771D02*
X110996667Y-43330533D01*
X110996667Y-43330533D02*
X110996667Y-43235295D01*
X110996667Y-43235295D02*
X111044286Y-43140057D01*
X111044286Y-43140057D02*
X111091905Y-43092438D01*
X111091905Y-43092438D02*
X111187143Y-43044819D01*
X111187143Y-43044819D02*
X111425238Y-43044819D01*
X111425238Y-43044819D02*
X111568095Y-43092438D01*
X111901429Y-43044819D02*
X112139524Y-44044819D01*
X112139524Y-44044819D02*
X112330000Y-43330533D01*
X112330000Y-43330533D02*
X112520476Y-44044819D01*
X112520476Y-44044819D02*
X112758572Y-43044819D01*
X113663333Y-44044819D02*
X113091905Y-44044819D01*
X113377619Y-44044819D02*
X113377619Y-43044819D01*
X113377619Y-43044819D02*
X113282381Y-43187676D01*
X113282381Y-43187676D02*
X113187143Y-43282914D01*
X113187143Y-43282914D02*
X113091905Y-43330533D01*
X110496667Y-109497200D02*
X110639524Y-109544819D01*
X110639524Y-109544819D02*
X110877619Y-109544819D01*
X110877619Y-109544819D02*
X110972857Y-109497200D01*
X110972857Y-109497200D02*
X111020476Y-109449580D01*
X111020476Y-109449580D02*
X111068095Y-109354342D01*
X111068095Y-109354342D02*
X111068095Y-109259104D01*
X111068095Y-109259104D02*
X111020476Y-109163866D01*
X111020476Y-109163866D02*
X110972857Y-109116247D01*
X110972857Y-109116247D02*
X110877619Y-109068628D01*
X110877619Y-109068628D02*
X110687143Y-109021009D01*
X110687143Y-109021009D02*
X110591905Y-108973390D01*
X110591905Y-108973390D02*
X110544286Y-108925771D01*
X110544286Y-108925771D02*
X110496667Y-108830533D01*
X110496667Y-108830533D02*
X110496667Y-108735295D01*
X110496667Y-108735295D02*
X110544286Y-108640057D01*
X110544286Y-108640057D02*
X110591905Y-108592438D01*
X110591905Y-108592438D02*
X110687143Y-108544819D01*
X110687143Y-108544819D02*
X110925238Y-108544819D01*
X110925238Y-108544819D02*
X111068095Y-108592438D01*
X111401429Y-108544819D02*
X111639524Y-109544819D01*
X111639524Y-109544819D02*
X111830000Y-108830533D01*
X111830000Y-108830533D02*
X112020476Y-109544819D01*
X112020476Y-109544819D02*
X112258572Y-108544819D01*
X112544286Y-108544819D02*
X113163333Y-108544819D01*
X113163333Y-108544819D02*
X112830000Y-108925771D01*
X112830000Y-108925771D02*
X112972857Y-108925771D01*
X112972857Y-108925771D02*
X113068095Y-108973390D01*
X113068095Y-108973390D02*
X113115714Y-109021009D01*
X113115714Y-109021009D02*
X113163333Y-109116247D01*
X113163333Y-109116247D02*
X113163333Y-109354342D01*
X113163333Y-109354342D02*
X113115714Y-109449580D01*
X113115714Y-109449580D02*
X113068095Y-109497200D01*
X113068095Y-109497200D02*
X112972857Y-109544819D01*
X112972857Y-109544819D02*
X112687143Y-109544819D01*
X112687143Y-109544819D02*
X112591905Y-109497200D01*
X112591905Y-109497200D02*
X112544286Y-109449580D01*
X138444819Y-104833333D02*
X139159104Y-104833333D01*
X139159104Y-104833333D02*
X139301961Y-104880952D01*
X139301961Y-104880952D02*
X139397200Y-104976190D01*
X139397200Y-104976190D02*
X139444819Y-105119047D01*
X139444819Y-105119047D02*
X139444819Y-105214285D01*
X139444819Y-103833333D02*
X139444819Y-104404761D01*
X139444819Y-104119047D02*
X138444819Y-104119047D01*
X138444819Y-104119047D02*
X138587676Y-104214285D01*
X138587676Y-104214285D02*
X138682914Y-104309523D01*
X138682914Y-104309523D02*
X138730533Y-104404761D01*
X184753333Y-133584819D02*
X184420000Y-133108628D01*
X184181905Y-133584819D02*
X184181905Y-132584819D01*
X184181905Y-132584819D02*
X184562857Y-132584819D01*
X184562857Y-132584819D02*
X184658095Y-132632438D01*
X184658095Y-132632438D02*
X184705714Y-132680057D01*
X184705714Y-132680057D02*
X184753333Y-132775295D01*
X184753333Y-132775295D02*
X184753333Y-132918152D01*
X184753333Y-132918152D02*
X184705714Y-133013390D01*
X184705714Y-133013390D02*
X184658095Y-133061009D01*
X184658095Y-133061009D02*
X184562857Y-133108628D01*
X184562857Y-133108628D02*
X184181905Y-133108628D01*
X185134286Y-132680057D02*
X185181905Y-132632438D01*
X185181905Y-132632438D02*
X185277143Y-132584819D01*
X185277143Y-132584819D02*
X185515238Y-132584819D01*
X185515238Y-132584819D02*
X185610476Y-132632438D01*
X185610476Y-132632438D02*
X185658095Y-132680057D01*
X185658095Y-132680057D02*
X185705714Y-132775295D01*
X185705714Y-132775295D02*
X185705714Y-132870533D01*
X185705714Y-132870533D02*
X185658095Y-133013390D01*
X185658095Y-133013390D02*
X185086667Y-133584819D01*
X185086667Y-133584819D02*
X185705714Y-133584819D01*
X184753333Y-141084819D02*
X184420000Y-140608628D01*
X184181905Y-141084819D02*
X184181905Y-140084819D01*
X184181905Y-140084819D02*
X184562857Y-140084819D01*
X184562857Y-140084819D02*
X184658095Y-140132438D01*
X184658095Y-140132438D02*
X184705714Y-140180057D01*
X184705714Y-140180057D02*
X184753333Y-140275295D01*
X184753333Y-140275295D02*
X184753333Y-140418152D01*
X184753333Y-140418152D02*
X184705714Y-140513390D01*
X184705714Y-140513390D02*
X184658095Y-140561009D01*
X184658095Y-140561009D02*
X184562857Y-140608628D01*
X184562857Y-140608628D02*
X184181905Y-140608628D01*
X185705714Y-141084819D02*
X185134286Y-141084819D01*
X185420000Y-141084819D02*
X185420000Y-140084819D01*
X185420000Y-140084819D02*
X185324762Y-140227676D01*
X185324762Y-140227676D02*
X185229524Y-140322914D01*
X185229524Y-140322914D02*
X185134286Y-140370533D01*
X184356905Y-111494819D02*
X184356905Y-110494819D01*
X184356905Y-110494819D02*
X184595000Y-110494819D01*
X184595000Y-110494819D02*
X184737857Y-110542438D01*
X184737857Y-110542438D02*
X184833095Y-110637676D01*
X184833095Y-110637676D02*
X184880714Y-110732914D01*
X184880714Y-110732914D02*
X184928333Y-110923390D01*
X184928333Y-110923390D02*
X184928333Y-111066247D01*
X184928333Y-111066247D02*
X184880714Y-111256723D01*
X184880714Y-111256723D02*
X184833095Y-111351961D01*
X184833095Y-111351961D02*
X184737857Y-111447200D01*
X184737857Y-111447200D02*
X184595000Y-111494819D01*
X184595000Y-111494819D02*
X184356905Y-111494819D01*
X185880714Y-111494819D02*
X185309286Y-111494819D01*
X185595000Y-111494819D02*
X185595000Y-110494819D01*
X185595000Y-110494819D02*
X185499762Y-110637676D01*
X185499762Y-110637676D02*
X185404524Y-110732914D01*
X185404524Y-110732914D02*
X185309286Y-110780533D01*
D11*
%TO.C,U1*%
X160080000Y-95250000D02*
X165530000Y-95250000D01*
X142390000Y-95250000D02*
X160080000Y-95250000D01*
X137020000Y-95250000D02*
X142390000Y-95250000D01*
X165530000Y-44300000D02*
X165530000Y-95250000D01*
X137020000Y-95250000D02*
X137020000Y-44300000D01*
X154800000Y-44300000D02*
X165530000Y-44300000D01*
X148089000Y-44300000D02*
X154800000Y-44300000D01*
X137020000Y-44300000D02*
X148089000Y-44300000D01*
D12*
X136550000Y-54260000D02*
G75*
G02*
X136350000Y-54260000I-100000J0D01*
G01*
X136350000Y-54260000D02*
G75*
G02*
X136550000Y-54260000I100000J0D01*
G01*
D11*
X137020000Y-95250000D02*
X137020000Y-44300000D01*
X137020000Y-44300000D02*
X165530000Y-44300000D01*
X165530000Y-95250000D02*
X137020000Y-95250000D01*
X165530000Y-44300000D02*
X165530000Y-95250000D01*
D13*
%TO.C,SW4*%
X115800000Y-137000000D02*
G75*
G02*
X108700000Y-137000000I-3550000J0D01*
G01*
X108700000Y-137000000D02*
G75*
G02*
X115800000Y-137000000I3550000J0D01*
G01*
X118360000Y-143110000D02*
X106140000Y-143110000D01*
X118360000Y-140600000D02*
X118360000Y-143110000D01*
X118360000Y-135700000D02*
X118360000Y-138300000D01*
X118360000Y-130890000D02*
X118360000Y-133400000D01*
X106140000Y-140600000D02*
X106140000Y-143110000D01*
X106140000Y-135700000D02*
X106140000Y-138300000D01*
X106140000Y-130890000D02*
X118360000Y-130890000D01*
X106140000Y-130890000D02*
X106140000Y-133400000D01*
%TO.C,SW2*%
X115800000Y-72000000D02*
G75*
G02*
X108700000Y-72000000I-3550000J0D01*
G01*
X108700000Y-72000000D02*
G75*
G02*
X115800000Y-72000000I3550000J0D01*
G01*
X118360000Y-78110000D02*
X106140000Y-78110000D01*
X118360000Y-75600000D02*
X118360000Y-78110000D01*
X118360000Y-70700000D02*
X118360000Y-73300000D01*
X118360000Y-65890000D02*
X118360000Y-68400000D01*
X106140000Y-75600000D02*
X106140000Y-78110000D01*
X106140000Y-70700000D02*
X106140000Y-73300000D01*
X106140000Y-65890000D02*
X118360000Y-65890000D01*
X106140000Y-65890000D02*
X106140000Y-68400000D01*
%TO.C,RV1*%
X178125000Y-53250000D02*
X177454000Y-53250000D01*
X177454000Y-54750000D01*
X178125000Y-54750000D01*
X178125000Y-53250000D01*
X187495000Y-53250000D02*
X186825000Y-53250000D01*
X186825000Y-54750000D01*
X187495000Y-54750000D01*
X187495000Y-53250000D01*
X180031000Y-59520000D02*
X184920000Y-59520000D01*
X177454000Y-57000000D02*
X177454000Y-54750000D01*
X187495000Y-54750000D02*
X187495000Y-57000000D01*
X177454000Y-53250000D02*
X177454000Y-52480000D01*
X187495000Y-53250000D02*
X187495000Y-52480000D01*
X177454000Y-52480000D02*
X187495000Y-52480000D01*
X179105000Y-52480000D02*
X179105000Y-51680000D01*
X185845000Y-52480000D02*
X185845000Y-51680000D01*
X179105000Y-51680000D02*
X185845000Y-51680000D01*
X179355000Y-51680000D02*
X179355000Y-44280000D01*
X185595000Y-51680000D02*
X185595000Y-44280000D01*
X179355000Y-44280000D02*
X185595000Y-44280000D01*
%TO.C,R3*%
X181650000Y-126630000D02*
X188190000Y-126630000D01*
X188190000Y-129370000D01*
X181650000Y-129370000D01*
X181650000Y-126630000D01*
X188960000Y-128000000D02*
X188190000Y-128000000D01*
X180880000Y-128000000D02*
X181650000Y-128000000D01*
%TO.C,J3*%
X178720000Y-81145000D02*
X188940000Y-81145000D01*
X176120000Y-81145000D02*
X177450000Y-81145000D01*
X176120000Y-82475000D02*
X176120000Y-81145000D01*
X188940000Y-83805000D02*
X188940000Y-81145000D01*
X178720000Y-83805000D02*
X178720000Y-81145000D01*
X178720000Y-83805000D02*
X188940000Y-83805000D01*
%TO.C,J2*%
X148150000Y-125670000D02*
X155830000Y-125670000D01*
X145550000Y-125670000D02*
X146880000Y-125670000D01*
X145550000Y-127000000D02*
X145550000Y-125670000D01*
X155830000Y-128330000D02*
X155830000Y-125670000D01*
X148150000Y-128330000D02*
X148150000Y-125670000D01*
X148150000Y-128330000D02*
X155830000Y-128330000D01*
%TO.C,SW1*%
X116300000Y-51500000D02*
G75*
G02*
X109200000Y-51500000I-3550000J0D01*
G01*
X109200000Y-51500000D02*
G75*
G02*
X116300000Y-51500000I3550000J0D01*
G01*
X118860000Y-57610000D02*
X106640000Y-57610000D01*
X118860000Y-55100000D02*
X118860000Y-57610000D01*
X118860000Y-50200000D02*
X118860000Y-52800000D01*
X118860000Y-45390000D02*
X118860000Y-47900000D01*
X106640000Y-55100000D02*
X106640000Y-57610000D01*
X106640000Y-50200000D02*
X106640000Y-52800000D01*
X106640000Y-45390000D02*
X118860000Y-45390000D01*
X106640000Y-45390000D02*
X106640000Y-47900000D01*
%TO.C,SW3*%
X115800000Y-117000000D02*
G75*
G02*
X108700000Y-117000000I-3550000J0D01*
G01*
X108700000Y-117000000D02*
G75*
G02*
X115800000Y-117000000I3550000J0D01*
G01*
X118360000Y-123110000D02*
X106140000Y-123110000D01*
X118360000Y-120600000D02*
X118360000Y-123110000D01*
X118360000Y-115700000D02*
X118360000Y-118300000D01*
X118360000Y-110890000D02*
X118360000Y-113400000D01*
X106140000Y-120600000D02*
X106140000Y-123110000D01*
X106140000Y-115700000D02*
X106140000Y-118300000D01*
X106140000Y-110890000D02*
X118360000Y-110890000D01*
X106140000Y-110890000D02*
X106140000Y-113400000D01*
%TO.C,J1*%
X143030000Y-103170000D02*
X160870000Y-103170000D01*
X140430000Y-103170000D02*
X141760000Y-103170000D01*
X140430000Y-104500000D02*
X140430000Y-103170000D01*
X160870000Y-105830000D02*
X160870000Y-103170000D01*
X143030000Y-105830000D02*
X143030000Y-103170000D01*
X143030000Y-105830000D02*
X160870000Y-105830000D01*
%TO.C,R2*%
X181650000Y-134130000D02*
X188190000Y-134130000D01*
X188190000Y-136870000D01*
X181650000Y-136870000D01*
X181650000Y-134130000D01*
X188960000Y-135500000D02*
X188190000Y-135500000D01*
X180880000Y-135500000D02*
X181650000Y-135500000D01*
%TO.C,R1*%
X181650000Y-141630000D02*
X188190000Y-141630000D01*
X188190000Y-144370000D01*
X181650000Y-144370000D01*
X181650000Y-141630000D01*
X188960000Y-143000000D02*
X188190000Y-143000000D01*
X180880000Y-143000000D02*
X181650000Y-143000000D01*
%TO.C,D1*%
X187883136Y-116080000D02*
G75*
G02*
X182535000Y-116544830I-2788136J1080000D01*
G01*
X187349684Y-116080000D02*
G75*
G02*
X182840316Y-116080000I-2254684J1080000D01*
G01*
X182840316Y-113920000D02*
G75*
G02*
X187349684Y-113920000I2254684J-1080000D01*
G01*
X182535000Y-113455170D02*
G75*
G02*
X187883136Y-113920000I2560000J-1544830D01*
G01*
X182535000Y-116080000D02*
X182535000Y-116545000D01*
X182535000Y-113455000D02*
X182535000Y-113920000D01*
%TD*%
M02*
