%TF.GenerationSoftware,KiCad,Pcbnew,9.0.6*%
%TF.CreationDate,2026-09-04T22:22:20+05:30*%
%TF.ProjectId,SkyForge,536b7946-6f72-4676-952e-6b696361645f,rev?*%
%TF.SameCoordinates,Original*%
%TF.FileFunction,Copper,L1,Top*%
%TF.FilePolarity,Positive*%
%FSLAX46Y46*%
G04 Gerber Fmt 4.6, Leading zero omitted, Abs format (unit mm)*
G04 Created by KiCad (PCBNEW 9.0.6) date 2026-09-04 22:22:20*
%MOMM*%
%LPD*%
G01*
G04 APERTURE LIST*
G04 Aperture macros list*
%AMRoundRect*
0 Rectangle with rounded corners*
0 $1 Rounding radius*
0 $2 $3 $4 $5 $6 $7 $8 $9 X,Y pos of 4 corners*
0 Add a 4 corners polygon primitive as box body*
4,1,4,$2,$3,$4,$5,$6,$7,$8,$9,$2,$3,0*
0 Add four circle primitives for the rounded corners*
1,1,$1+$1,$2,$3*
1,1,$1+$1,$4,$5*
1,1,$1+$1,$6,$7*
1,1,$1+$1,$8,$9*
0 Add four rect primitives between the rounded corners*
20,1,$1+$1,$2,$3,$4,$5,0*
20,1,$1+$1,$4,$5,$6,$7,0*
20,1,$1+$1,$6,$7,$8,$9,0*
20,1,$1+$1,$8,$9,$2,$3,0*%
G04 Aperture macros list end*
%TA.AperFunction,ComponentPad*%
%ADD10C,2.000000*%
%TD*%
%TA.AperFunction,ComponentPad*%
%ADD11R,2.000000X2.000000*%
%TD*%
%TA.AperFunction,ComponentPad*%
%ADD12O,3.200000X1.900000*%
%TD*%
%TA.AperFunction,ComponentPad*%
%ADD13RoundRect,0.750000X0.750000X-1.250000X0.750000X1.250000X-0.750000X1.250000X-0.750000X-1.250000X0*%
%TD*%
%TA.AperFunction,ComponentPad*%
%ADD14C,1.800000*%
%TD*%
%TA.AperFunction,ComponentPad*%
%ADD15R,1.800000X1.800000*%
%TD*%
%TA.AperFunction,ComponentPad*%
%ADD16C,1.600000*%
%TD*%
%TA.AperFunction,ComponentPad*%
%ADD17C,1.700000*%
%TD*%
%TA.AperFunction,ComponentPad*%
%ADD18R,1.700000X1.700000*%
%TD*%
%TA.AperFunction,ComponentPad*%
%ADD19O,1.070000X1.800000*%
%TD*%
%TA.AperFunction,ComponentPad*%
%ADD20R,1.070000X1.800000*%
%TD*%
%TA.AperFunction,Conductor*%
%ADD21C,0.200000*%
%TD*%
G04 APERTURE END LIST*
D10*
%TO.P,U1,16,EN*%
%TO.N,unconnected-(U1-EN-Pad16)*%
X164000000Y-89820000D03*
%TO.P,U1,17,VP*%
%TO.N,unconnected-(U1-VP-Pad17)*%
X164000000Y-87280000D03*
%TO.P,U1,18,VN*%
%TO.N,unconnected-(U1-VN-Pad18)*%
X164000000Y-84740000D03*
%TO.P,U1,19,D34*%
%TO.N,/Throttle*%
X164000000Y-82200000D03*
%TO.P,U1,20,D35*%
%TO.N,unconnected-(U1-D35-Pad20)*%
X164000000Y-79660000D03*
%TO.P,U1,21,D32*%
%TO.N,/JOY_X*%
X164000000Y-77120000D03*
%TO.P,U1,22,D33*%
%TO.N,/JOY_Y*%
X164000000Y-74580000D03*
%TO.P,U1,23,D25*%
%TO.N,/RGBR*%
X164000000Y-72040000D03*
%TO.P,U1,24,D26*%
%TO.N,/RGBG*%
X164000000Y-69500000D03*
%TO.P,U1,25,D27*%
%TO.N,/RGBB*%
X164000000Y-66960000D03*
%TO.P,U1,26,D14*%
%TO.N,/BTN_4*%
X164000000Y-64420000D03*
%TO.P,U1,27,D12*%
%TO.N,unconnected-(U1-D12-Pad27)*%
X164000000Y-61880000D03*
%TO.P,U1,28,D13*%
%TO.N,/BTN_3*%
X164000000Y-59340000D03*
%TO.P,U1,29,GND*%
%TO.N,GND*%
X164000000Y-56800000D03*
%TO.P,U1,30,VIN*%
%TO.N,unconnected-(U1-VIN-Pad30)*%
X164000000Y-54260000D03*
%TO.P,U1,15,D23*%
%TO.N,/JOY_SW*%
X138600000Y-89820000D03*
%TO.P,U1,14,D22*%
%TO.N,/I2C_SCL*%
X138600000Y-87280000D03*
%TO.P,U1,13,TX0*%
%TO.N,unconnected-(U1-TX0-Pad13)*%
X138600000Y-84740000D03*
%TO.P,U1,12,RX0*%
%TO.N,unconnected-(U1-RX0-Pad12)*%
X138600000Y-82200000D03*
%TO.P,U1,11,D21*%
%TO.N,/I2C_SDA*%
X138600000Y-79660000D03*
%TO.P,U1,10,D19*%
%TO.N,/BTN_2*%
X138600000Y-77120000D03*
%TO.P,U1,9,D18*%
%TO.N,/BTN_1*%
X138600000Y-74580000D03*
%TO.P,U1,8,D5*%
%TO.N,unconnected-(U1-D5-Pad8)*%
X138600000Y-72040000D03*
%TO.P,U1,7,TX2*%
%TO.N,unconnected-(U1-TX2-Pad7)*%
X138600000Y-69500000D03*
%TO.P,U1,6,RX2*%
%TO.N,unconnected-(U1-RX2-Pad6)*%
X138600000Y-66960000D03*
%TO.P,U1,5,D4*%
%TO.N,unconnected-(U1-D4-Pad5)*%
X138600000Y-64420000D03*
%TO.P,U1,4,D2*%
%TO.N,unconnected-(U1-D2-Pad4)*%
X138600000Y-61880000D03*
%TO.P,U1,3,D15*%
%TO.N,unconnected-(U1-D15-Pad3)*%
X138600000Y-59340000D03*
%TO.P,U1,2,GND*%
%TO.N,GND*%
X138600000Y-56800000D03*
D11*
%TO.P,U1,1,3V3*%
%TO.N,+3.3V*%
X138600000Y-54260000D03*
%TD*%
D12*
%TO.P,SW4,2,2*%
%TO.N,/BTN_4*%
X118500000Y-139500000D03*
X106000000Y-139500000D03*
%TO.P,SW4,1,1*%
%TO.N,GND*%
X118500000Y-134500000D03*
X106000000Y-134500000D03*
%TD*%
%TO.P,SW2,2,2*%
%TO.N,/BTN_3*%
X118500000Y-74500000D03*
X106000000Y-74500000D03*
%TO.P,SW2,1,1*%
%TO.N,GND*%
X118500000Y-69500000D03*
X106000000Y-69500000D03*
%TD*%
D13*
%TO.P,RV1,MP*%
%TO.N,N/C*%
X177475000Y-59300000D03*
X187475000Y-59300000D03*
D14*
%TO.P,RV1,3,3*%
%TO.N,GND*%
X179975000Y-56000000D03*
%TO.P,RV1,2,2*%
%TO.N,/Throttle*%
X182475000Y-56000000D03*
D15*
%TO.P,RV1,1,1*%
%TO.N,+3.3V*%
X184975000Y-56000000D03*
%TD*%
D16*
%TO.P,R3,2*%
%TO.N,/RGBB*%
X190000000Y-128000000D03*
%TO.P,R3,1*%
%TO.N,Net-(D1-BA)*%
X179840000Y-128000000D03*
%TD*%
D17*
%TO.P,J3,5,Pin_5*%
%TO.N,/JOY_SW*%
X187610000Y-82475000D03*
%TO.P,J3,4,Pin_4*%
%TO.N,/JOY_Y*%
X185070000Y-82475000D03*
%TO.P,J3,3,Pin_3*%
%TO.N,/JOY_X*%
X182530000Y-82475000D03*
%TO.P,J3,2,Pin_2*%
%TO.N,+3.3V*%
X179990000Y-82475000D03*
D18*
%TO.P,J3,1,Pin_1*%
%TO.N,GND*%
X177450000Y-82475000D03*
%TD*%
D17*
%TO.P,J2,4,Pin_4*%
%TO.N,/I2C_SDA*%
X154500000Y-127000000D03*
%TO.P,J2,3,Pin_3*%
%TO.N,/I2C_SCL*%
X151960000Y-127000000D03*
%TO.P,J2,2,Pin_2*%
%TO.N,GND*%
X149420000Y-127000000D03*
D18*
%TO.P,J2,1,Pin_1*%
%TO.N,+3.3V*%
X146880000Y-127000000D03*
%TD*%
D12*
%TO.P,SW1,2,2*%
%TO.N,/BTN_1*%
X119000000Y-54000000D03*
X106500000Y-54000000D03*
%TO.P,SW1,1,1*%
%TO.N,GND*%
X119000000Y-49000000D03*
X106500000Y-49000000D03*
%TD*%
%TO.P,SW3,2,2*%
%TO.N,/BTN_2*%
X118500000Y-119500000D03*
X106000000Y-119500000D03*
%TO.P,SW3,1,1*%
%TO.N,GND*%
X118500000Y-114500000D03*
X106000000Y-114500000D03*
%TD*%
D17*
%TO.P,J1,8,Pin_8*%
%TO.N,unconnected-(J1-Pin_8-Pad8)*%
X159540000Y-104500000D03*
%TO.P,J1,7,Pin_7*%
%TO.N,unconnected-(J1-Pin_7-Pad7)*%
X157000000Y-104500000D03*
%TO.P,J1,6,Pin_6*%
%TO.N,unconnected-(J1-Pin_6-Pad6)*%
X154460000Y-104500000D03*
%TO.P,J1,5,Pin_5*%
%TO.N,unconnected-(J1-Pin_5-Pad5)*%
X151920000Y-104500000D03*
%TO.P,J1,4,Pin_4*%
%TO.N,/I2C_SDA*%
X149380000Y-104500000D03*
%TO.P,J1,3,Pin_3*%
%TO.N,/I2C_SCL*%
X146840000Y-104500000D03*
%TO.P,J1,2,Pin_2*%
%TO.N,GND*%
X144300000Y-104500000D03*
D18*
%TO.P,J1,1,Pin_1*%
%TO.N,+3.3V*%
X141760000Y-104500000D03*
%TD*%
D16*
%TO.P,R2,2*%
%TO.N,/RGBG*%
X190000000Y-135500000D03*
%TO.P,R2,1*%
%TO.N,Net-(D1-GA)*%
X179840000Y-135500000D03*
%TD*%
%TO.P,R1,2*%
%TO.N,/RGBR*%
X190000000Y-143000000D03*
%TO.P,R1,1*%
%TO.N,Net-(D1-RA)*%
X179840000Y-143000000D03*
%TD*%
D19*
%TO.P,D1,4,K*%
%TO.N,GND*%
X187000000Y-115000000D03*
%TO.P,D1,3,BA*%
%TO.N,Net-(D1-BA)*%
X185730000Y-115000000D03*
%TO.P,D1,2,GA*%
%TO.N,Net-(D1-GA)*%
X184460000Y-115000000D03*
D20*
%TO.P,D1,1,RA*%
%TO.N,Net-(D1-RA)*%
X183190000Y-115000000D03*
%TD*%
D21*
%TO.N,/RGBR*%
X105331819Y-52749000D02*
X144709000Y-52749000D01*
X104599000Y-53481819D02*
X105331819Y-52749000D01*
X104599000Y-54518181D02*
X104599000Y-53481819D01*
X105331819Y-55251000D02*
X104599000Y-54518181D01*
X118703900Y-55251000D02*
X105331819Y-55251000D01*
X144709000Y-52749000D02*
X164000000Y-72040000D01*
X137396504Y-73943604D02*
X118703900Y-55251000D01*
X102401000Y-108939108D02*
X137396504Y-73943604D01*
X105601000Y-144101000D02*
X102401000Y-140901000D01*
X188899000Y-144101000D02*
X105601000Y-144101000D01*
X190000000Y-143000000D02*
X188899000Y-144101000D01*
X102401000Y-140901000D02*
X102401000Y-108939108D01*
%TO.N,Net-(D1-BA)*%
X179840000Y-115745900D02*
X179840000Y-128000000D01*
X184493000Y-113398000D02*
X182187900Y-113398000D01*
X182187900Y-113398000D02*
X179840000Y-115745900D01*
X185730000Y-114635000D02*
X184493000Y-113398000D01*
X185730000Y-115000000D02*
X185730000Y-114635000D01*
%TO.N,Net-(D1-GA)*%
X182354000Y-132986000D02*
X179840000Y-135500000D01*
X184026000Y-113799000D02*
X182354000Y-113799000D01*
X184460000Y-114233000D02*
X184026000Y-113799000D01*
X184460000Y-115000000D02*
X184460000Y-114233000D01*
X182354000Y-113799000D02*
X182354000Y-132986000D01*
%TO.N,Net-(D1-RA)*%
X183190000Y-139650000D02*
X179840000Y-143000000D01*
X183190000Y-115000000D02*
X183190000Y-139650000D01*
%TO.N,/I2C_SDA*%
X154500000Y-109620000D02*
X149380000Y-104500000D01*
X154500000Y-127000000D02*
X154500000Y-109620000D01*
%TO.N,/I2C_SCL*%
X146840000Y-121880000D02*
X146840000Y-104500000D01*
X151960000Y-127000000D02*
X146840000Y-121880000D01*
%TO.N,/BTN_1*%
X119000000Y-54980000D02*
X138600000Y-74580000D01*
X119000000Y-54000000D02*
X119000000Y-54980000D01*
X106500000Y-54000000D02*
X119000000Y-54000000D01*
%TO.N,/BTN_3*%
X168679000Y-64019000D02*
X164000000Y-59340000D01*
X190019000Y-64019000D02*
X168679000Y-64019000D01*
X195500000Y-69500000D02*
X190019000Y-64019000D01*
X195500000Y-146500000D02*
X195500000Y-69500000D01*
X194500000Y-147500000D02*
X195500000Y-146500000D01*
X102000000Y-147500000D02*
X194500000Y-147500000D01*
X102000000Y-107500000D02*
X102000000Y-147500000D01*
X118500000Y-91000000D02*
X102000000Y-107500000D01*
X118500000Y-74500000D02*
X118500000Y-91000000D01*
X106000000Y-74500000D02*
X118500000Y-74500000D01*
%TO.N,/BTN_4*%
X169420000Y-64420000D02*
X164000000Y-64420000D01*
X169500000Y-64500000D02*
X169420000Y-64420000D01*
X170000000Y-64500000D02*
X169500000Y-64500000D01*
X170000000Y-96500000D02*
X170000000Y-64500000D01*
X165500000Y-101000000D02*
X170000000Y-96500000D01*
X136500000Y-101000000D02*
X165500000Y-101000000D01*
X136500000Y-121500000D02*
X136500000Y-101000000D01*
X118500000Y-139500000D02*
X136500000Y-121500000D01*
X106000000Y-139500000D02*
X118500000Y-139500000D01*
%TO.N,/BTN_2*%
X132000000Y-83720000D02*
X138600000Y-77120000D01*
X132000000Y-106000000D02*
X132000000Y-83720000D01*
X118500000Y-119500000D02*
X132000000Y-106000000D01*
X106000000Y-119500000D02*
X118500000Y-119500000D01*
%TD*%
M02*
