M48
; DRILL file {KiCad 9.0.6} date 2026-09-04T22:22:49+0530
; FORMAT={-:-/ absolute / metric / decimal}
; #@! TF.CreationDate,2026-09-04T22:22:49+05:30
; #@! TF.GenerationSoftware,Kicad,Pcbnew,9.0.6
; #@! TF.FileFunction,Plated,1,4,PTH
FMAT,2
METRIC
; #@! TA.AperFunction,Plated,PTH,ComponentDrill
T1C0.800
; #@! TA.AperFunction,Plated,PTH,ComponentDrill
T2C0.900
; #@! TA.AperFunction,Plated,PTH,ComponentDrill
T3C1.000
; #@! TA.AperFunction,Plated,PTH,ComponentDrill
T4C1.020
; #@! TA.AperFunction,Plated,PTH,ComponentDrill
T5C1.300
; #@! TA.AperFunction,Plated,PTH,ComponentDrill
T6C1.800
%
G90
G05
T1
X179.84Y-128.0
X179.84Y-135.5
X179.84Y-143.0
X190.0Y-128.0
X190.0Y-135.5
X190.0Y-143.0
T2
X183.19Y-115.0
X184.46Y-115.0
X185.73Y-115.0
X187.0Y-115.0
T3
X141.76Y-104.5
X144.3Y-104.5
X146.84Y-104.5
X146.88Y-127.0
X149.38Y-104.5
X149.42Y-127.0
X151.92Y-104.5
X151.96Y-127.0
X154.46Y-104.5
X154.5Y-127.0
X157.0Y-104.5
X159.54Y-104.5
X177.45Y-82.475
X179.975Y-56.0
X179.99Y-82.475
X182.475Y-56.0
X182.53Y-82.475
X184.975Y-56.0
X185.07Y-82.475
X187.61Y-82.475
T4
X138.6Y-54.26
X138.6Y-56.8
X138.6Y-59.34
X138.6Y-61.88
X138.6Y-64.42
X138.6Y-66.96
X138.6Y-69.5
X138.6Y-72.04
X138.6Y-74.58
X138.6Y-77.12
X138.6Y-79.66
X138.6Y-82.2
X138.6Y-84.74
X138.6Y-87.28
X138.6Y-89.82
X164.0Y-54.26
X164.0Y-56.8
X164.0Y-59.34
X164.0Y-61.88
X164.0Y-64.42
X164.0Y-66.96
X164.0Y-69.5
X164.0Y-72.04
X164.0Y-74.58
X164.0Y-77.12
X164.0Y-79.66
X164.0Y-82.2
X164.0Y-84.74
X164.0Y-87.28
X164.0Y-89.82
T5
X106.0Y-69.5
X106.0Y-74.5
X106.0Y-114.5
X106.0Y-119.5
X106.0Y-134.5
X106.0Y-139.5
X106.5Y-49.0
X106.5Y-54.0
X118.5Y-69.5
X118.5Y-74.5
X118.5Y-114.5
X118.5Y-119.5
X118.5Y-134.5
X118.5Y-139.5
X119.0Y-49.0
X119.0Y-54.0
T6
G00X177.475Y-59.45
M15
G01X177.475Y-59.15
M16
G05
G00X187.475Y-59.45
M15
G01X187.475Y-59.15
M16
G05
M30
