%TF.GenerationSoftware,KiCad,Pcbnew,9.0.6*%
%TF.CreationDate,2026-09-04T22:22:20+05:30*%
%TF.ProjectId,SkyForge,536b7946-6f72-4676-952e-6b696361645f,rev?*%
%TF.SameCoordinates,Original*%
%TF.FileFunction,Copper,L4,Bot*%
%TF.FilePolarity,Positive*%
%FSLAX46Y46*%
G04 Gerber Fmt 4.6, Leading zero omitted, Abs format (unit mm)*
G04 Created by KiCad (PCBNEW 9.0.6) date 2026-09-04 22:22:20*
%MOMM*%
%LPD*%
G01*
G04 APERTURE LIST*
G04 Aperture macros list*
%AMRoundRect*
0 Rectangle with rounded corners*
0 $1 Rounding radius*
0 $2 $3 $4 $5 $6 $7 $8 $9 X,Y pos of 4 corners*
0 Add a 4 corners polygon primitive as box body*
4,1,4,$2,$3,$4,$5,$6,$7,$8,$9,$2,$3,0*
0 Add four circle primitives for the rounded corners*
1,1,$1+$1,$2,$3*
1,1,$1+$1,$4,$5*
1,1,$1+$1,$6,$7*
1,1,$1+$1,$8,$9*
0 Add four rect primitives between the rounded corners*
20,1,$1+$1,$2,$3,$4,$5,0*
20,1,$1+$1,$4,$5,$6,$7,0*
20,1,$1+$1,$6,$7,$8,$9,0*
20,1,$1+$1,$8,$9,$2,$3,0*%
G04 Aperture macros list end*
%TA.AperFunction,ComponentPad*%
%ADD10C,2.000000*%
%TD*%
%TA.AperFunction,ComponentPad*%
%ADD11R,2.000000X2.000000*%
%TD*%
%TA.AperFunction,ComponentPad*%
%ADD12O,3.200000X1.900000*%
%TD*%
%TA.AperFunction,ComponentPad*%
%ADD13RoundRect,0.750000X0.750000X-1.250000X0.750000X1.250000X-0.750000X1.250000X-0.750000X-1.250000X0*%
%TD*%
%TA.AperFunction,ComponentPad*%
%ADD14C,1.800000*%
%TD*%
%TA.AperFunction,ComponentPad*%
%ADD15R,1.800000X1.800000*%
%TD*%
%TA.AperFunction,ComponentPad*%
%ADD16C,1.600000*%
%TD*%
%TA.AperFunction,ComponentPad*%
%ADD17C,1.700000*%
%TD*%
%TA.AperFunction,ComponentPad*%
%ADD18R,1.700000X1.700000*%
%TD*%
%TA.AperFunction,ComponentPad*%
%ADD19O,1.070000X1.800000*%
%TD*%
%TA.AperFunction,ComponentPad*%
%ADD20R,1.070000X1.800000*%
%TD*%
G04 APERTURE END LIST*
D10*
%TO.P,U1,16,EN*%
%TO.N,unconnected-(U1-EN-Pad16)*%
X164000000Y-89820000D03*
%TO.P,U1,17,VP*%
%TO.N,unconnected-(U1-VP-Pad17)*%
X164000000Y-87280000D03*
%TO.P,U1,18,VN*%
%TO.N,unconnected-(U1-VN-Pad18)*%
X164000000Y-84740000D03*
%TO.P,U1,19,D34*%
%TO.N,/Throttle*%
X164000000Y-82200000D03*
%TO.P,U1,20,D35*%
%TO.N,unconnected-(U1-D35-Pad20)*%
X164000000Y-79660000D03*
%TO.P,U1,21,D32*%
%TO.N,/JOY_X*%
X164000000Y-77120000D03*
%TO.P,U1,22,D33*%
%TO.N,/JOY_Y*%
X164000000Y-74580000D03*
%TO.P,U1,23,D25*%
%TO.N,/RGBR*%
X164000000Y-72040000D03*
%TO.P,U1,24,D26*%
%TO.N,/RGBG*%
X164000000Y-69500000D03*
%TO.P,U1,25,D27*%
%TO.N,/RGBB*%
X164000000Y-66960000D03*
%TO.P,U1,26,D14*%
%TO.N,/BTN_4*%
X164000000Y-64420000D03*
%TO.P,U1,27,D12*%
%TO.N,unconnected-(U1-D12-Pad27)*%
X164000000Y-61880000D03*
%TO.P,U1,28,D13*%
%TO.N,/BTN_3*%
X164000000Y-59340000D03*
%TO.P,U1,29,GND*%
%TO.N,GND*%
X164000000Y-56800000D03*
%TO.P,U1,30,VIN*%
%TO.N,unconnected-(U1-VIN-Pad30)*%
X164000000Y-54260000D03*
%TO.P,U1,15,D23*%
%TO.N,/JOY_SW*%
X138600000Y-89820000D03*
%TO.P,U1,14,D22*%
%TO.N,/I2C_SCL*%
X138600000Y-87280000D03*
%TO.P,U1,13,TX0*%
%TO.N,unconnected-(U1-TX0-Pad13)*%
X138600000Y-84740000D03*
%TO.P,U1,12,RX0*%
%TO.N,unconnected-(U1-RX0-Pad12)*%
X138600000Y-82200000D03*
%TO.P,U1,11,D21*%
%TO.N,/I2C_SDA*%
X138600000Y-79660000D03*
%TO.P,U1,10,D19*%
%TO.N,/BTN_2*%
X138600000Y-77120000D03*
%TO.P,U1,9,D18*%
%TO.N,/BTN_1*%
X138600000Y-74580000D03*
%TO.P,U1,8,D5*%
%TO.N,unconnected-(U1-D5-Pad8)*%
X138600000Y-72040000D03*
%TO.P,U1,7,TX2*%
%TO.N,unconnected-(U1-TX2-Pad7)*%
X138600000Y-69500000D03*
%TO.P,U1,6,RX2*%
%TO.N,unconnected-(U1-RX2-Pad6)*%
X138600000Y-66960000D03*
%TO.P,U1,5,D4*%
%TO.N,unconnected-(U1-D4-Pad5)*%
X138600000Y-64420000D03*
%TO.P,U1,4,D2*%
%TO.N,unconnected-(U1-D2-Pad4)*%
X138600000Y-61880000D03*
%TO.P,U1,3,D15*%
%TO.N,unconnected-(U1-D15-Pad3)*%
X138600000Y-59340000D03*
%TO.P,U1,2,GND*%
%TO.N,GND*%
X138600000Y-56800000D03*
D11*
%TO.P,U1,1,3V3*%
%TO.N,+3.3V*%
X138600000Y-54260000D03*
%TD*%
D12*
%TO.P,SW4,2,2*%
%TO.N,/BTN_4*%
X118500000Y-139500000D03*
X106000000Y-139500000D03*
%TO.P,SW4,1,1*%
%TO.N,GND*%
X118500000Y-134500000D03*
X106000000Y-134500000D03*
%TD*%
%TO.P,SW2,2,2*%
%TO.N,/BTN_3*%
X118500000Y-74500000D03*
X106000000Y-74500000D03*
%TO.P,SW2,1,1*%
%TO.N,GND*%
X118500000Y-69500000D03*
X106000000Y-69500000D03*
%TD*%
D13*
%TO.P,RV1,MP*%
%TO.N,N/C*%
X177475000Y-59300000D03*
X187475000Y-59300000D03*
D14*
%TO.P,RV1,3,3*%
%TO.N,GND*%
X179975000Y-56000000D03*
%TO.P,RV1,2,2*%
%TO.N,/Throttle*%
X182475000Y-56000000D03*
D15*
%TO.P,RV1,1,1*%
%TO.N,+3.3V*%
X184975000Y-56000000D03*
%TD*%
D16*
%TO.P,R3,2*%
%TO.N,/RGBB*%
X190000000Y-128000000D03*
%TO.P,R3,1*%
%TO.N,Net-(D1-BA)*%
X179840000Y-128000000D03*
%TD*%
D17*
%TO.P,J3,5,Pin_5*%
%TO.N,/JOY_SW*%
X187610000Y-82475000D03*
%TO.P,J3,4,Pin_4*%
%TO.N,/JOY_Y*%
X185070000Y-82475000D03*
%TO.P,J3,3,Pin_3*%
%TO.N,/JOY_X*%
X182530000Y-82475000D03*
%TO.P,J3,2,Pin_2*%
%TO.N,+3.3V*%
X179990000Y-82475000D03*
D18*
%TO.P,J3,1,Pin_1*%
%TO.N,GND*%
X177450000Y-82475000D03*
%TD*%
D17*
%TO.P,J2,4,Pin_4*%
%TO.N,/I2C_SDA*%
X154500000Y-127000000D03*
%TO.P,J2,3,Pin_3*%
%TO.N,/I2C_SCL*%
X151960000Y-127000000D03*
%TO.P,J2,2,Pin_2*%
%TO.N,GND*%
X149420000Y-127000000D03*
D18*
%TO.P,J2,1,Pin_1*%
%TO.N,+3.3V*%
X146880000Y-127000000D03*
%TD*%
D12*
%TO.P,SW1,2,2*%
%TO.N,/BTN_1*%
X119000000Y-54000000D03*
X106500000Y-54000000D03*
%TO.P,SW1,1,1*%
%TO.N,GND*%
X119000000Y-49000000D03*
X106500000Y-49000000D03*
%TD*%
%TO.P,SW3,2,2*%
%TO.N,/BTN_2*%
X118500000Y-119500000D03*
X106000000Y-119500000D03*
%TO.P,SW3,1,1*%
%TO.N,GND*%
X118500000Y-114500000D03*
X106000000Y-114500000D03*
%TD*%
D17*
%TO.P,J1,8,Pin_8*%
%TO.N,unconnected-(J1-Pin_8-Pad8)*%
X159540000Y-104500000D03*
%TO.P,J1,7,Pin_7*%
%TO.N,unconnected-(J1-Pin_7-Pad7)*%
X157000000Y-104500000D03*
%TO.P,J1,6,Pin_6*%
%TO.N,unconnected-(J1-Pin_6-Pad6)*%
X154460000Y-104500000D03*
%TO.P,J1,5,Pin_5*%
%TO.N,unconnected-(J1-Pin_5-Pad5)*%
X151920000Y-104500000D03*
%TO.P,J1,4,Pin_4*%
%TO.N,/I2C_SDA*%
X149380000Y-104500000D03*
%TO.P,J1,3,Pin_3*%
%TO.N,/I2C_SCL*%
X146840000Y-104500000D03*
%TO.P,J1,2,Pin_2*%
%TO.N,GND*%
X144300000Y-104500000D03*
D18*
%TO.P,J1,1,Pin_1*%
%TO.N,+3.3V*%
X141760000Y-104500000D03*
%TD*%
D16*
%TO.P,R2,2*%
%TO.N,/RGBG*%
X190000000Y-135500000D03*
%TO.P,R2,1*%
%TO.N,Net-(D1-GA)*%
X179840000Y-135500000D03*
%TD*%
%TO.P,R1,2*%
%TO.N,/RGBR*%
X190000000Y-143000000D03*
%TO.P,R1,1*%
%TO.N,Net-(D1-RA)*%
X179840000Y-143000000D03*
%TD*%
D19*
%TO.P,D1,4,K*%
%TO.N,GND*%
X187000000Y-115000000D03*
%TO.P,D1,3,BA*%
%TO.N,Net-(D1-BA)*%
X185730000Y-115000000D03*
%TO.P,D1,2,GA*%
%TO.N,Net-(D1-GA)*%
X184460000Y-115000000D03*
D20*
%TO.P,D1,1,RA*%
%TO.N,Net-(D1-RA)*%
X183190000Y-115000000D03*
%TD*%
%TA.AperFunction,Conductor*%
%TO.N,GND*%
G36*
X196442539Y-39520185D02*
G01*
X196488294Y-39572989D01*
X196499500Y-39624500D01*
X196499500Y-148375500D01*
X196479815Y-148442539D01*
X196427011Y-148488294D01*
X196375500Y-148499500D01*
X100624500Y-148499500D01*
X100557461Y-148479815D01*
X100511706Y-148427011D01*
X100500500Y-148375500D01*
X100500500Y-142897648D01*
X178539500Y-142897648D01*
X178539500Y-143102351D01*
X178571522Y-143304534D01*
X178634781Y-143499223D01*
X178727715Y-143681613D01*
X178848028Y-143847213D01*
X178992786Y-143991971D01*
X179147749Y-144104556D01*
X179158390Y-144112287D01*
X179274607Y-144171503D01*
X179340776Y-144205218D01*
X179340778Y-144205218D01*
X179340781Y-144205220D01*
X179445137Y-144239127D01*
X179535465Y-144268477D01*
X179636557Y-144284488D01*
X179737648Y-144300500D01*
X179737649Y-144300500D01*
X179942351Y-144300500D01*
X179942352Y-144300500D01*
X180144534Y-144268477D01*
X180339219Y-144205220D01*
X180521610Y-144112287D01*
X180614590Y-144044732D01*
X180687213Y-143991971D01*
X180687215Y-143991968D01*
X180687219Y-143991966D01*
X180831966Y-143847219D01*
X180831968Y-143847215D01*
X180831971Y-143847213D01*
X180884732Y-143774590D01*
X180952287Y-143681610D01*
X181045220Y-143499219D01*
X181108477Y-143304534D01*
X181140500Y-143102352D01*
X181140500Y-142897648D01*
X188699500Y-142897648D01*
X188699500Y-143102351D01*
X188731522Y-143304534D01*
X188794781Y-143499223D01*
X188887715Y-143681613D01*
X189008028Y-143847213D01*
X189152786Y-143991971D01*
X189307749Y-144104556D01*
X189318390Y-144112287D01*
X189434607Y-144171503D01*
X189500776Y-144205218D01*
X189500778Y-144205218D01*
X189500781Y-144205220D01*
X189605137Y-144239127D01*
X189695465Y-144268477D01*
X189796557Y-144284488D01*
X189897648Y-144300500D01*
X189897649Y-144300500D01*
X190102351Y-144300500D01*
X190102352Y-144300500D01*
X190304534Y-144268477D01*
X190499219Y-144205220D01*
X190681610Y-144112287D01*
X190774590Y-144044732D01*
X190847213Y-143991971D01*
X190847215Y-143991968D01*
X190847219Y-143991966D01*
X190991966Y-143847219D01*
X190991968Y-143847215D01*
X190991971Y-143847213D01*
X191044732Y-143774590D01*
X191112287Y-143681610D01*
X191205220Y-143499219D01*
X191268477Y-143304534D01*
X191300500Y-143102352D01*
X191300500Y-142897648D01*
X191268477Y-142695466D01*
X191205220Y-142500781D01*
X191205218Y-142500778D01*
X191205218Y-142500776D01*
X191171503Y-142434607D01*
X191112287Y-142318390D01*
X191104556Y-142307749D01*
X190991971Y-142152786D01*
X190847213Y-142008028D01*
X190681613Y-141887715D01*
X190681612Y-141887714D01*
X190681610Y-141887713D01*
X190624653Y-141858691D01*
X190499223Y-141794781D01*
X190304534Y-141731522D01*
X190129995Y-141703878D01*
X190102352Y-141699500D01*
X189897648Y-141699500D01*
X189873329Y-141703351D01*
X189695465Y-141731522D01*
X189500776Y-141794781D01*
X189318386Y-141887715D01*
X189152786Y-142008028D01*
X189008028Y-142152786D01*
X188887715Y-142318386D01*
X188794781Y-142500776D01*
X188731522Y-142695465D01*
X188699500Y-142897648D01*
X181140500Y-142897648D01*
X181108477Y-142695466D01*
X181045220Y-142500781D01*
X181045218Y-142500778D01*
X181045218Y-142500776D01*
X181011503Y-142434607D01*
X180952287Y-142318390D01*
X180944556Y-142307749D01*
X180831971Y-142152786D01*
X180687213Y-142008028D01*
X180521613Y-141887715D01*
X180521612Y-141887714D01*
X180521610Y-141887713D01*
X180464653Y-141858691D01*
X180339223Y-141794781D01*
X180144534Y-141731522D01*
X179969995Y-141703878D01*
X179942352Y-141699500D01*
X179737648Y-141699500D01*
X179713329Y-141703351D01*
X179535465Y-141731522D01*
X179340776Y-141794781D01*
X179158386Y-141887715D01*
X178992786Y-142008028D01*
X178848028Y-142152786D01*
X178727715Y-142318386D01*
X178634781Y-142500776D01*
X178571522Y-142695465D01*
X178539500Y-142897648D01*
X100500500Y-142897648D01*
X100500500Y-139385837D01*
X103899500Y-139385837D01*
X103899500Y-139614162D01*
X103935215Y-139839660D01*
X104005770Y-140056803D01*
X104109421Y-140260228D01*
X104243621Y-140444937D01*
X104405063Y-140606379D01*
X104589772Y-140740579D01*
X104685884Y-140789550D01*
X104793196Y-140844229D01*
X104793198Y-140844229D01*
X104793201Y-140844231D01*
X104909592Y-140882049D01*
X105010339Y-140914784D01*
X105235838Y-140950500D01*
X105235843Y-140950500D01*
X106764162Y-140950500D01*
X106989660Y-140914784D01*
X107206799Y-140844231D01*
X107410228Y-140740579D01*
X107594937Y-140606379D01*
X107756379Y-140444937D01*
X107890579Y-140260228D01*
X107994231Y-140056799D01*
X108064784Y-139839660D01*
X108100500Y-139614162D01*
X108100500Y-139385837D01*
X116399500Y-139385837D01*
X116399500Y-139614162D01*
X116435215Y-139839660D01*
X116505770Y-140056803D01*
X116609421Y-140260228D01*
X116743621Y-140444937D01*
X116905063Y-140606379D01*
X117089772Y-140740579D01*
X117185884Y-140789550D01*
X117293196Y-140844229D01*
X117293198Y-140844229D01*
X117293201Y-140844231D01*
X117409592Y-140882049D01*
X117510339Y-140914784D01*
X117735838Y-140950500D01*
X117735843Y-140950500D01*
X119264162Y-140950500D01*
X119489660Y-140914784D01*
X119706799Y-140844231D01*
X119910228Y-140740579D01*
X120094937Y-140606379D01*
X120256379Y-140444937D01*
X120390579Y-140260228D01*
X120494231Y-140056799D01*
X120564784Y-139839660D01*
X120600500Y-139614162D01*
X120600500Y-139385837D01*
X120564784Y-139160339D01*
X120494229Y-138943196D01*
X120390578Y-138739771D01*
X120256379Y-138555063D01*
X120094937Y-138393621D01*
X119910228Y-138259421D01*
X119706803Y-138155770D01*
X119489660Y-138085215D01*
X119264162Y-138049500D01*
X119264157Y-138049500D01*
X117735843Y-138049500D01*
X117735838Y-138049500D01*
X117510339Y-138085215D01*
X117293196Y-138155770D01*
X117089771Y-138259421D01*
X116905061Y-138393622D01*
X116743622Y-138555061D01*
X116609421Y-138739771D01*
X116505770Y-138943196D01*
X116435215Y-139160339D01*
X116399500Y-139385837D01*
X108100500Y-139385837D01*
X108064784Y-139160339D01*
X107994229Y-138943196D01*
X107890578Y-138739771D01*
X107756379Y-138555063D01*
X107594937Y-138393621D01*
X107410228Y-138259421D01*
X107206803Y-138155770D01*
X106989660Y-138085215D01*
X106764162Y-138049500D01*
X106764157Y-138049500D01*
X105235843Y-138049500D01*
X105235838Y-138049500D01*
X105010339Y-138085215D01*
X104793196Y-138155770D01*
X104589771Y-138259421D01*
X104405061Y-138393622D01*
X104243622Y-138555061D01*
X104109421Y-138739771D01*
X104005770Y-138943196D01*
X103935215Y-139160339D01*
X103899500Y-139385837D01*
X100500500Y-139385837D01*
X100500500Y-134250000D01*
X103921522Y-134250000D01*
X105399999Y-134250000D01*
X105374979Y-134310402D01*
X105350000Y-134435981D01*
X105350000Y-134564019D01*
X105374979Y-134689598D01*
X105399999Y-134750000D01*
X103921522Y-134750000D01*
X103935704Y-134839544D01*
X104006230Y-135056604D01*
X104109849Y-135259966D01*
X104244004Y-135444614D01*
X104405385Y-135605995D01*
X104590033Y-135740150D01*
X104793395Y-135843769D01*
X105010455Y-135914295D01*
X105235884Y-135950000D01*
X105750000Y-135950000D01*
X105750000Y-135100001D01*
X105810402Y-135125021D01*
X105935981Y-135150000D01*
X106064019Y-135150000D01*
X106189598Y-135125021D01*
X106250000Y-135100001D01*
X106250000Y-135950000D01*
X106764116Y-135950000D01*
X106989544Y-135914295D01*
X107206604Y-135843769D01*
X107409966Y-135740150D01*
X107594614Y-135605995D01*
X107755995Y-135444614D01*
X107890150Y-135259966D01*
X107993769Y-135056604D01*
X108064295Y-134839544D01*
X108078478Y-134750000D01*
X106600001Y-134750000D01*
X106625021Y-134689598D01*
X106650000Y-134564019D01*
X106650000Y-134435981D01*
X106625021Y-134310402D01*
X106600001Y-134250000D01*
X108078478Y-134250000D01*
X116421522Y-134250000D01*
X117899999Y-134250000D01*
X117874979Y-134310402D01*
X117850000Y-134435981D01*
X117850000Y-134564019D01*
X117874979Y-134689598D01*
X117899999Y-134750000D01*
X116421522Y-134750000D01*
X116435704Y-134839544D01*
X116506230Y-135056604D01*
X116609849Y-135259966D01*
X116744004Y-135444614D01*
X116905385Y-135605995D01*
X117090033Y-135740150D01*
X117293395Y-135843769D01*
X117510455Y-135914295D01*
X117735884Y-135950000D01*
X118250000Y-135950000D01*
X118250000Y-135100001D01*
X118310402Y-135125021D01*
X118435981Y-135150000D01*
X118564019Y-135150000D01*
X118689598Y-135125021D01*
X118750000Y-135100001D01*
X118750000Y-135950000D01*
X119264116Y-135950000D01*
X119489544Y-135914295D01*
X119706604Y-135843769D01*
X119909966Y-135740150D01*
X120094614Y-135605995D01*
X120255995Y-135444614D01*
X120256000Y-135444608D01*
X120290119Y-135397648D01*
X178539500Y-135397648D01*
X178539500Y-135602351D01*
X178571522Y-135804534D01*
X178634781Y-135999223D01*
X178727715Y-136181613D01*
X178848028Y-136347213D01*
X178992786Y-136491971D01*
X179147749Y-136604556D01*
X179158390Y-136612287D01*
X179274607Y-136671503D01*
X179340776Y-136705218D01*
X179340778Y-136705218D01*
X179340781Y-136705220D01*
X179445137Y-136739127D01*
X179535465Y-136768477D01*
X179636557Y-136784488D01*
X179737648Y-136800500D01*
X179737649Y-136800500D01*
X179942351Y-136800500D01*
X179942352Y-136800500D01*
X180144534Y-136768477D01*
X180339219Y-136705220D01*
X180521610Y-136612287D01*
X180614590Y-136544732D01*
X180687213Y-136491971D01*
X180687215Y-136491968D01*
X180687219Y-136491966D01*
X180831966Y-136347219D01*
X180831968Y-136347215D01*
X180831971Y-136347213D01*
X180884732Y-136274590D01*
X180952287Y-136181610D01*
X181045220Y-135999219D01*
X181108477Y-135804534D01*
X181140500Y-135602352D01*
X181140500Y-135397648D01*
X188699500Y-135397648D01*
X188699500Y-135602351D01*
X188731522Y-135804534D01*
X188794781Y-135999223D01*
X188887715Y-136181613D01*
X189008028Y-136347213D01*
X189152786Y-136491971D01*
X189307749Y-136604556D01*
X189318390Y-136612287D01*
X189434607Y-136671503D01*
X189500776Y-136705218D01*
X189500778Y-136705218D01*
X189500781Y-136705220D01*
X189605137Y-136739127D01*
X189695465Y-136768477D01*
X189796557Y-136784488D01*
X189897648Y-136800500D01*
X189897649Y-136800500D01*
X190102351Y-136800500D01*
X190102352Y-136800500D01*
X190304534Y-136768477D01*
X190499219Y-136705220D01*
X190681610Y-136612287D01*
X190774590Y-136544732D01*
X190847213Y-136491971D01*
X190847215Y-136491968D01*
X190847219Y-136491966D01*
X190991966Y-136347219D01*
X190991968Y-136347215D01*
X190991971Y-136347213D01*
X191044732Y-136274590D01*
X191112287Y-136181610D01*
X191205220Y-135999219D01*
X191268477Y-135804534D01*
X191300500Y-135602352D01*
X191300500Y-135397648D01*
X191268477Y-135195466D01*
X191205220Y-135000781D01*
X191205218Y-135000778D01*
X191205218Y-135000776D01*
X191171503Y-134934607D01*
X191112287Y-134818390D01*
X191104556Y-134807749D01*
X190991971Y-134652786D01*
X190847213Y-134508028D01*
X190681613Y-134387715D01*
X190681612Y-134387714D01*
X190681610Y-134387713D01*
X190624653Y-134358691D01*
X190499223Y-134294781D01*
X190304534Y-134231522D01*
X190129995Y-134203878D01*
X190102352Y-134199500D01*
X189897648Y-134199500D01*
X189873329Y-134203351D01*
X189695465Y-134231522D01*
X189500776Y-134294781D01*
X189318386Y-134387715D01*
X189152786Y-134508028D01*
X189008028Y-134652786D01*
X188887715Y-134818386D01*
X188794781Y-135000776D01*
X188731522Y-135195465D01*
X188699500Y-135397648D01*
X181140500Y-135397648D01*
X181108477Y-135195466D01*
X181045220Y-135000781D01*
X181045218Y-135000778D01*
X181045218Y-135000776D01*
X181011503Y-134934607D01*
X180952287Y-134818390D01*
X180944556Y-134807749D01*
X180831971Y-134652786D01*
X180687213Y-134508028D01*
X180521613Y-134387715D01*
X180521612Y-134387714D01*
X180521610Y-134387713D01*
X180464653Y-134358691D01*
X180339223Y-134294781D01*
X180144534Y-134231522D01*
X179969995Y-134203878D01*
X179942352Y-134199500D01*
X179737648Y-134199500D01*
X179713329Y-134203351D01*
X179535465Y-134231522D01*
X179340776Y-134294781D01*
X179158386Y-134387715D01*
X178992786Y-134508028D01*
X178848028Y-134652786D01*
X178727715Y-134818386D01*
X178634781Y-135000776D01*
X178571522Y-135195465D01*
X178539500Y-135397648D01*
X120290119Y-135397648D01*
X120346613Y-135319891D01*
X120346613Y-135319890D01*
X120390150Y-135259966D01*
X120493769Y-135056604D01*
X120564295Y-134839544D01*
X120578478Y-134750000D01*
X119100001Y-134750000D01*
X119125021Y-134689598D01*
X119150000Y-134564019D01*
X119150000Y-134435981D01*
X119125021Y-134310402D01*
X119100001Y-134250000D01*
X120578478Y-134250000D01*
X120564295Y-134160455D01*
X120493769Y-133943395D01*
X120390150Y-133740033D01*
X120255995Y-133555385D01*
X120094614Y-133394004D01*
X119909966Y-133259849D01*
X119706604Y-133156230D01*
X119489544Y-133085704D01*
X119264116Y-133050000D01*
X118750000Y-133050000D01*
X118750000Y-133899998D01*
X118689598Y-133874979D01*
X118564019Y-133850000D01*
X118435981Y-133850000D01*
X118310402Y-133874979D01*
X118250000Y-133899998D01*
X118250000Y-133050000D01*
X117735884Y-133050000D01*
X117510455Y-133085704D01*
X117293395Y-133156230D01*
X117090033Y-133259849D01*
X116905385Y-133394004D01*
X116744004Y-133555385D01*
X116609849Y-133740033D01*
X116506230Y-133943395D01*
X116435704Y-134160455D01*
X116421522Y-134250000D01*
X108078478Y-134250000D01*
X108064295Y-134160455D01*
X107993769Y-133943395D01*
X107890150Y-133740033D01*
X107755995Y-133555385D01*
X107594614Y-133394004D01*
X107409966Y-133259849D01*
X107206604Y-133156230D01*
X106989544Y-133085704D01*
X106764116Y-133050000D01*
X106250000Y-133050000D01*
X106250000Y-133899998D01*
X106189598Y-133874979D01*
X106064019Y-133850000D01*
X105935981Y-133850000D01*
X105810402Y-133874979D01*
X105750000Y-133899998D01*
X105750000Y-133050000D01*
X105235884Y-133050000D01*
X105010455Y-133085704D01*
X104793395Y-133156230D01*
X104590033Y-133259849D01*
X104405385Y-133394004D01*
X104244004Y-133555385D01*
X104109849Y-133740033D01*
X104006230Y-133943395D01*
X103935704Y-134160455D01*
X103921522Y-134250000D01*
X100500500Y-134250000D01*
X100500500Y-126102135D01*
X145529500Y-126102135D01*
X145529500Y-127897870D01*
X145529501Y-127897876D01*
X145535908Y-127957483D01*
X145586202Y-128092328D01*
X145586206Y-128092335D01*
X145672452Y-128207544D01*
X145672455Y-128207547D01*
X145787664Y-128293793D01*
X145787671Y-128293797D01*
X145922517Y-128344091D01*
X145922516Y-128344091D01*
X145929444Y-128344835D01*
X145982127Y-128350500D01*
X147777872Y-128350499D01*
X147837483Y-128344091D01*
X147972331Y-128293796D01*
X148087546Y-128207546D01*
X148173796Y-128092331D01*
X148224091Y-127957483D01*
X148230500Y-127897873D01*
X148230499Y-127873979D01*
X148233330Y-127860963D01*
X148243940Y-127841525D01*
X148250179Y-127820275D01*
X148266803Y-127799643D01*
X148266808Y-127799636D01*
X148266811Y-127799634D01*
X148266818Y-127799626D01*
X148937037Y-127129408D01*
X148954075Y-127192993D01*
X149019901Y-127307007D01*
X149112993Y-127400099D01*
X149227007Y-127465925D01*
X149290590Y-127482962D01*
X148658282Y-128115269D01*
X148658282Y-128115270D01*
X148712449Y-128154624D01*
X148901782Y-128251095D01*
X149103870Y-128316757D01*
X149313754Y-128350000D01*
X149526246Y-128350000D01*
X149736127Y-128316757D01*
X149736130Y-128316757D01*
X149938217Y-128251095D01*
X150127554Y-128154622D01*
X150181716Y-128115270D01*
X150181717Y-128115270D01*
X149549408Y-127482962D01*
X149612993Y-127465925D01*
X149727007Y-127400099D01*
X149820099Y-127307007D01*
X149885925Y-127192993D01*
X149902962Y-127129408D01*
X150535270Y-127761717D01*
X150535270Y-127761716D01*
X150574622Y-127707555D01*
X150579232Y-127698507D01*
X150627205Y-127647709D01*
X150695025Y-127630912D01*
X150761161Y-127653447D01*
X150800204Y-127698504D01*
X150804949Y-127707817D01*
X150929890Y-127879786D01*
X151080213Y-128030109D01*
X151252179Y-128155048D01*
X151252181Y-128155049D01*
X151252184Y-128155051D01*
X151441588Y-128251557D01*
X151643757Y-128317246D01*
X151853713Y-128350500D01*
X151853714Y-128350500D01*
X152066286Y-128350500D01*
X152066287Y-128350500D01*
X152276243Y-128317246D01*
X152478412Y-128251557D01*
X152667816Y-128155051D01*
X152722572Y-128115269D01*
X152839786Y-128030109D01*
X152839788Y-128030106D01*
X152839792Y-128030104D01*
X152990104Y-127879792D01*
X152990106Y-127879788D01*
X152990109Y-127879786D01*
X153115048Y-127707820D01*
X153115050Y-127707817D01*
X153115051Y-127707816D01*
X153119514Y-127699054D01*
X153167488Y-127648259D01*
X153235308Y-127631463D01*
X153301444Y-127653999D01*
X153340486Y-127699056D01*
X153344951Y-127707820D01*
X153469890Y-127879786D01*
X153620213Y-128030109D01*
X153792179Y-128155048D01*
X153792181Y-128155049D01*
X153792184Y-128155051D01*
X153981588Y-128251557D01*
X154183757Y-128317246D01*
X154393713Y-128350500D01*
X154393714Y-128350500D01*
X154606286Y-128350500D01*
X154606287Y-128350500D01*
X154816243Y-128317246D01*
X155018412Y-128251557D01*
X155207816Y-128155051D01*
X155262572Y-128115269D01*
X155379786Y-128030109D01*
X155379788Y-128030106D01*
X155379792Y-128030104D01*
X155512248Y-127897648D01*
X178539500Y-127897648D01*
X178539500Y-128102351D01*
X178571522Y-128304534D01*
X178634781Y-128499223D01*
X178727715Y-128681613D01*
X178848028Y-128847213D01*
X178992786Y-128991971D01*
X179147749Y-129104556D01*
X179158390Y-129112287D01*
X179274607Y-129171503D01*
X179340776Y-129205218D01*
X179340778Y-129205218D01*
X179340781Y-129205220D01*
X179445137Y-129239127D01*
X179535465Y-129268477D01*
X179636557Y-129284488D01*
X179737648Y-129300500D01*
X179737649Y-129300500D01*
X179942351Y-129300500D01*
X179942352Y-129300500D01*
X180144534Y-129268477D01*
X180339219Y-129205220D01*
X180521610Y-129112287D01*
X180614590Y-129044732D01*
X180687213Y-128991971D01*
X180687215Y-128991968D01*
X180687219Y-128991966D01*
X180831966Y-128847219D01*
X180831968Y-128847215D01*
X180831971Y-128847213D01*
X180884732Y-128774590D01*
X180952287Y-128681610D01*
X181045220Y-128499219D01*
X181108477Y-128304534D01*
X181140500Y-128102352D01*
X181140500Y-127897648D01*
X188699500Y-127897648D01*
X188699500Y-128102351D01*
X188731522Y-128304534D01*
X188794781Y-128499223D01*
X188887715Y-128681613D01*
X189008028Y-128847213D01*
X189152786Y-128991971D01*
X189307749Y-129104556D01*
X189318390Y-129112287D01*
X189434607Y-129171503D01*
X189500776Y-129205218D01*
X189500778Y-129205218D01*
X189500781Y-129205220D01*
X189605137Y-129239127D01*
X189695465Y-129268477D01*
X189796557Y-129284488D01*
X189897648Y-129300500D01*
X189897649Y-129300500D01*
X190102351Y-129300500D01*
X190102352Y-129300500D01*
X190304534Y-129268477D01*
X190499219Y-129205220D01*
X190681610Y-129112287D01*
X190774590Y-129044732D01*
X190847213Y-128991971D01*
X190847215Y-128991968D01*
X190847219Y-128991966D01*
X190991966Y-128847219D01*
X190991968Y-128847215D01*
X190991971Y-128847213D01*
X191044732Y-128774590D01*
X191112287Y-128681610D01*
X191205220Y-128499219D01*
X191268477Y-128304534D01*
X191300500Y-128102352D01*
X191300500Y-127897648D01*
X191268477Y-127695466D01*
X191205220Y-127500781D01*
X191205218Y-127500778D01*
X191205218Y-127500776D01*
X191153920Y-127400099D01*
X191112287Y-127318390D01*
X191104017Y-127307007D01*
X190991971Y-127152786D01*
X190847213Y-127008028D01*
X190681613Y-126887715D01*
X190681612Y-126887714D01*
X190681610Y-126887713D01*
X190624653Y-126858691D01*
X190499223Y-126794781D01*
X190304534Y-126731522D01*
X190129995Y-126703878D01*
X190102352Y-126699500D01*
X189897648Y-126699500D01*
X189873329Y-126703351D01*
X189695465Y-126731522D01*
X189500776Y-126794781D01*
X189318386Y-126887715D01*
X189152786Y-127008028D01*
X189008028Y-127152786D01*
X188887715Y-127318386D01*
X188794781Y-127500776D01*
X188731522Y-127695465D01*
X188699500Y-127897648D01*
X181140500Y-127897648D01*
X181108477Y-127695466D01*
X181045220Y-127500781D01*
X181045218Y-127500778D01*
X181045218Y-127500776D01*
X180993920Y-127400099D01*
X180952287Y-127318390D01*
X180944017Y-127307007D01*
X180831971Y-127152786D01*
X180687213Y-127008028D01*
X180521613Y-126887715D01*
X180521612Y-126887714D01*
X180521610Y-126887713D01*
X180464653Y-126858691D01*
X180339223Y-126794781D01*
X180144534Y-126731522D01*
X179969995Y-126703878D01*
X179942352Y-126699500D01*
X179737648Y-126699500D01*
X179713329Y-126703351D01*
X179535465Y-126731522D01*
X179340776Y-126794781D01*
X179158386Y-126887715D01*
X178992786Y-127008028D01*
X178848028Y-127152786D01*
X178727715Y-127318386D01*
X178634781Y-127500776D01*
X178571522Y-127695465D01*
X178539500Y-127897648D01*
X155512248Y-127897648D01*
X155530104Y-127879792D01*
X155655051Y-127707816D01*
X155751557Y-127518412D01*
X155817246Y-127316243D01*
X155850500Y-127106287D01*
X155850500Y-126893713D01*
X155817246Y-126683757D01*
X155751557Y-126481588D01*
X155655051Y-126292184D01*
X155655049Y-126292181D01*
X155655048Y-126292179D01*
X155530109Y-126120213D01*
X155379786Y-125969890D01*
X155207820Y-125844951D01*
X155018414Y-125748444D01*
X155018413Y-125748443D01*
X155018412Y-125748443D01*
X154816243Y-125682754D01*
X154816241Y-125682753D01*
X154816240Y-125682753D01*
X154654957Y-125657208D01*
X154606287Y-125649500D01*
X154393713Y-125649500D01*
X154345042Y-125657208D01*
X154183760Y-125682753D01*
X153981585Y-125748444D01*
X153792179Y-125844951D01*
X153620213Y-125969890D01*
X153469890Y-126120213D01*
X153344949Y-126292182D01*
X153340484Y-126300946D01*
X153292509Y-126351742D01*
X153224688Y-126368536D01*
X153158553Y-126345998D01*
X153119516Y-126300946D01*
X153115050Y-126292182D01*
X152990109Y-126120213D01*
X152839786Y-125969890D01*
X152667820Y-125844951D01*
X152478414Y-125748444D01*
X152478413Y-125748443D01*
X152478412Y-125748443D01*
X152276243Y-125682754D01*
X152276241Y-125682753D01*
X152276240Y-125682753D01*
X152114957Y-125657208D01*
X152066287Y-125649500D01*
X151853713Y-125649500D01*
X151805042Y-125657208D01*
X151643760Y-125682753D01*
X151441585Y-125748444D01*
X151252179Y-125844951D01*
X151080213Y-125969890D01*
X150929890Y-126120213D01*
X150804949Y-126292182D01*
X150800202Y-126301499D01*
X150752227Y-126352293D01*
X150684405Y-126369087D01*
X150618271Y-126346548D01*
X150579234Y-126301495D01*
X150574626Y-126292452D01*
X150535270Y-126238282D01*
X150535269Y-126238282D01*
X149902962Y-126870590D01*
X149885925Y-126807007D01*
X149820099Y-126692993D01*
X149727007Y-126599901D01*
X149612993Y-126534075D01*
X149549409Y-126517037D01*
X150181716Y-125884728D01*
X150127550Y-125845375D01*
X149938217Y-125748904D01*
X149736129Y-125683242D01*
X149526246Y-125650000D01*
X149313754Y-125650000D01*
X149103872Y-125683242D01*
X149103869Y-125683242D01*
X148901782Y-125748904D01*
X148712439Y-125845380D01*
X148658282Y-125884727D01*
X148658282Y-125884728D01*
X149290591Y-126517037D01*
X149227007Y-126534075D01*
X149112993Y-126599901D01*
X149019901Y-126692993D01*
X148954075Y-126807007D01*
X148937037Y-126870591D01*
X148266818Y-126200372D01*
X148233333Y-126139049D01*
X148233330Y-126139036D01*
X148230499Y-126126015D01*
X148230499Y-126102128D01*
X148224091Y-126042517D01*
X148195926Y-125967002D01*
X148173798Y-125907673D01*
X148173793Y-125907664D01*
X148087547Y-125792455D01*
X148087544Y-125792452D01*
X147972335Y-125706206D01*
X147972328Y-125706202D01*
X147837482Y-125655908D01*
X147837483Y-125655908D01*
X147777883Y-125649501D01*
X147777881Y-125649500D01*
X147777873Y-125649500D01*
X147777864Y-125649500D01*
X145982129Y-125649500D01*
X145982123Y-125649501D01*
X145922516Y-125655908D01*
X145787671Y-125706202D01*
X145787664Y-125706206D01*
X145672455Y-125792452D01*
X145672452Y-125792455D01*
X145586206Y-125907664D01*
X145586202Y-125907671D01*
X145535908Y-126042517D01*
X145529501Y-126102116D01*
X145529500Y-126102135D01*
X100500500Y-126102135D01*
X100500500Y-119385837D01*
X103899500Y-119385837D01*
X103899500Y-119614162D01*
X103935215Y-119839660D01*
X104005770Y-120056803D01*
X104109421Y-120260228D01*
X104243621Y-120444937D01*
X104405063Y-120606379D01*
X104589772Y-120740579D01*
X104685884Y-120789550D01*
X104793196Y-120844229D01*
X104793198Y-120844229D01*
X104793201Y-120844231D01*
X104909592Y-120882049D01*
X105010339Y-120914784D01*
X105235838Y-120950500D01*
X105235843Y-120950500D01*
X106764162Y-120950500D01*
X106989660Y-120914784D01*
X107206799Y-120844231D01*
X107410228Y-120740579D01*
X107594937Y-120606379D01*
X107756379Y-120444937D01*
X107890579Y-120260228D01*
X107994231Y-120056799D01*
X108064784Y-119839660D01*
X108100500Y-119614162D01*
X108100500Y-119385837D01*
X116399500Y-119385837D01*
X116399500Y-119614162D01*
X116435215Y-119839660D01*
X116505770Y-120056803D01*
X116609421Y-120260228D01*
X116743621Y-120444937D01*
X116905063Y-120606379D01*
X117089772Y-120740579D01*
X117185884Y-120789550D01*
X117293196Y-120844229D01*
X117293198Y-120844229D01*
X117293201Y-120844231D01*
X117409592Y-120882049D01*
X117510339Y-120914784D01*
X117735838Y-120950500D01*
X117735843Y-120950500D01*
X119264162Y-120950500D01*
X119489660Y-120914784D01*
X119706799Y-120844231D01*
X119910228Y-120740579D01*
X120094937Y-120606379D01*
X120256379Y-120444937D01*
X120390579Y-120260228D01*
X120494231Y-120056799D01*
X120564784Y-119839660D01*
X120600500Y-119614162D01*
X120600500Y-119385837D01*
X120564784Y-119160339D01*
X120494229Y-118943196D01*
X120390578Y-118739771D01*
X120256379Y-118555063D01*
X120094937Y-118393621D01*
X119910228Y-118259421D01*
X119706803Y-118155770D01*
X119489660Y-118085215D01*
X119264162Y-118049500D01*
X119264157Y-118049500D01*
X117735843Y-118049500D01*
X117735838Y-118049500D01*
X117510339Y-118085215D01*
X117293196Y-118155770D01*
X117089771Y-118259421D01*
X116905061Y-118393622D01*
X116743622Y-118555061D01*
X116609421Y-118739771D01*
X116505770Y-118943196D01*
X116435215Y-119160339D01*
X116399500Y-119385837D01*
X108100500Y-119385837D01*
X108064784Y-119160339D01*
X107994229Y-118943196D01*
X107890578Y-118739771D01*
X107756379Y-118555063D01*
X107594937Y-118393621D01*
X107410228Y-118259421D01*
X107206803Y-118155770D01*
X106989660Y-118085215D01*
X106764162Y-118049500D01*
X106764157Y-118049500D01*
X105235843Y-118049500D01*
X105235838Y-118049500D01*
X105010339Y-118085215D01*
X104793196Y-118155770D01*
X104589771Y-118259421D01*
X104405061Y-118393622D01*
X104243622Y-118555061D01*
X104109421Y-118739771D01*
X104005770Y-118943196D01*
X103935215Y-119160339D01*
X103899500Y-119385837D01*
X100500500Y-119385837D01*
X100500500Y-114250000D01*
X103921522Y-114250000D01*
X105399999Y-114250000D01*
X105374979Y-114310402D01*
X105350000Y-114435981D01*
X105350000Y-114564019D01*
X105374979Y-114689598D01*
X105399999Y-114750000D01*
X103921522Y-114750000D01*
X103935704Y-114839544D01*
X104006230Y-115056604D01*
X104109849Y-115259966D01*
X104244004Y-115444614D01*
X104405385Y-115605995D01*
X104590033Y-115740150D01*
X104793395Y-115843769D01*
X105010455Y-115914295D01*
X105235884Y-115950000D01*
X105750000Y-115950000D01*
X105750000Y-115100001D01*
X105810402Y-115125021D01*
X105935981Y-115150000D01*
X106064019Y-115150000D01*
X106189598Y-115125021D01*
X106250000Y-115100001D01*
X106250000Y-115950000D01*
X106764116Y-115950000D01*
X106989544Y-115914295D01*
X107206604Y-115843769D01*
X107409966Y-115740150D01*
X107594614Y-115605995D01*
X107755995Y-115444614D01*
X107890150Y-115259966D01*
X107993769Y-115056604D01*
X108064295Y-114839544D01*
X108078478Y-114750000D01*
X106600001Y-114750000D01*
X106625021Y-114689598D01*
X106650000Y-114564019D01*
X106650000Y-114435981D01*
X106625021Y-114310402D01*
X106600001Y-114250000D01*
X108078478Y-114250000D01*
X116421522Y-114250000D01*
X117899999Y-114250000D01*
X117874979Y-114310402D01*
X117850000Y-114435981D01*
X117850000Y-114564019D01*
X117874979Y-114689598D01*
X117899999Y-114750000D01*
X116421522Y-114750000D01*
X116435704Y-114839544D01*
X116506230Y-115056604D01*
X116609849Y-115259966D01*
X116744004Y-115444614D01*
X116905385Y-115605995D01*
X117090033Y-115740150D01*
X117293395Y-115843769D01*
X117510455Y-115914295D01*
X117735884Y-115950000D01*
X118250000Y-115950000D01*
X118250000Y-115100001D01*
X118310402Y-115125021D01*
X118435981Y-115150000D01*
X118564019Y-115150000D01*
X118689598Y-115125021D01*
X118750000Y-115100001D01*
X118750000Y-115950000D01*
X119264116Y-115950000D01*
X119489544Y-115914295D01*
X119706604Y-115843769D01*
X119909966Y-115740150D01*
X120094614Y-115605995D01*
X120255995Y-115444614D01*
X120390150Y-115259966D01*
X120493769Y-115056604D01*
X120564295Y-114839544D01*
X120578478Y-114750000D01*
X119100001Y-114750000D01*
X119125021Y-114689598D01*
X119150000Y-114564019D01*
X119150000Y-114435981D01*
X119125021Y-114310402D01*
X119100001Y-114250000D01*
X120578478Y-114250000D01*
X120564295Y-114160455D01*
X120540469Y-114087124D01*
X120529100Y-114052135D01*
X182154500Y-114052135D01*
X182154500Y-115947870D01*
X182154501Y-115947876D01*
X182160908Y-116007483D01*
X182211202Y-116142328D01*
X182211206Y-116142335D01*
X182297452Y-116257544D01*
X182297455Y-116257547D01*
X182412664Y-116343793D01*
X182412671Y-116343797D01*
X182547517Y-116394091D01*
X182547516Y-116394091D01*
X182554444Y-116394835D01*
X182607127Y-116400500D01*
X183772872Y-116400499D01*
X183832483Y-116394091D01*
X183967331Y-116343796D01*
X183967335Y-116343792D01*
X183975118Y-116339544D01*
X183976269Y-116341653D01*
X184029614Y-116321749D01*
X184085928Y-116330870D01*
X184157956Y-116360706D01*
X184157960Y-116360706D01*
X184157961Y-116360707D01*
X184358009Y-116400500D01*
X184358012Y-116400500D01*
X184561990Y-116400500D01*
X184712560Y-116370549D01*
X184762044Y-116360706D01*
X184950493Y-116282648D01*
X185026109Y-116232123D01*
X185092786Y-116211245D01*
X185160166Y-116229729D01*
X185163891Y-116232123D01*
X185239500Y-116282643D01*
X185239507Y-116282648D01*
X185239509Y-116282649D01*
X185239513Y-116282651D01*
X185427951Y-116360704D01*
X185427956Y-116360706D01*
X185427960Y-116360706D01*
X185427961Y-116360707D01*
X185628009Y-116400500D01*
X185628012Y-116400500D01*
X185831990Y-116400500D01*
X185982560Y-116370549D01*
X186032044Y-116360706D01*
X186220493Y-116282648D01*
X186296558Y-116231822D01*
X186363234Y-116210944D01*
X186430614Y-116229428D01*
X186434339Y-116231822D01*
X186509742Y-116282204D01*
X186698101Y-116360225D01*
X186698109Y-116360227D01*
X186749999Y-116370549D01*
X186750000Y-116370549D01*
X186750000Y-115557122D01*
X186752383Y-115532929D01*
X186765500Y-115466989D01*
X186765500Y-115384226D01*
X186826306Y-115419333D01*
X186940756Y-115450000D01*
X187059244Y-115450000D01*
X187173694Y-115419333D01*
X187250000Y-115375277D01*
X187250000Y-116370549D01*
X187301890Y-116360227D01*
X187301898Y-116360225D01*
X187490252Y-116282206D01*
X187490262Y-116282201D01*
X187659773Y-116168937D01*
X187659777Y-116168934D01*
X187803934Y-116024777D01*
X187803937Y-116024773D01*
X187917201Y-115855262D01*
X187917206Y-115855252D01*
X187995225Y-115666898D01*
X187995227Y-115666890D01*
X188034999Y-115466943D01*
X188035000Y-115466940D01*
X188035000Y-115250000D01*
X187375278Y-115250000D01*
X187419333Y-115173694D01*
X187450000Y-115059244D01*
X187450000Y-114940756D01*
X187419333Y-114826306D01*
X187375278Y-114750000D01*
X188035000Y-114750000D01*
X188035000Y-114533060D01*
X188034999Y-114533056D01*
X187995227Y-114333109D01*
X187995225Y-114333101D01*
X187917206Y-114144747D01*
X187917201Y-114144737D01*
X187803937Y-113975226D01*
X187803934Y-113975222D01*
X187659777Y-113831065D01*
X187659773Y-113831062D01*
X187490262Y-113717798D01*
X187490252Y-113717793D01*
X187301896Y-113639773D01*
X187301893Y-113639772D01*
X187250000Y-113629449D01*
X187250000Y-114624722D01*
X187173694Y-114580667D01*
X187059244Y-114550000D01*
X186940756Y-114550000D01*
X186826306Y-114580667D01*
X186765500Y-114615773D01*
X186765500Y-114533011D01*
X186765499Y-114533010D01*
X186752383Y-114467068D01*
X186750000Y-114442876D01*
X186750000Y-113629450D01*
X186749999Y-113629449D01*
X186698106Y-113639772D01*
X186698103Y-113639773D01*
X186509745Y-113717794D01*
X186434339Y-113768178D01*
X186367661Y-113789055D01*
X186300281Y-113770570D01*
X186296558Y-113768177D01*
X186221154Y-113717794D01*
X186220493Y-113717352D01*
X186220492Y-113717351D01*
X186220490Y-113717350D01*
X186032048Y-113639295D01*
X186032038Y-113639292D01*
X185831990Y-113599500D01*
X185831988Y-113599500D01*
X185628012Y-113599500D01*
X185628010Y-113599500D01*
X185427961Y-113639292D01*
X185427951Y-113639295D01*
X185239509Y-113717350D01*
X185163891Y-113767877D01*
X185097213Y-113788755D01*
X185029833Y-113770270D01*
X185026109Y-113767877D01*
X184951154Y-113717794D01*
X184950493Y-113717352D01*
X184950492Y-113717351D01*
X184950490Y-113717350D01*
X184762048Y-113639295D01*
X184762038Y-113639292D01*
X184561990Y-113599500D01*
X184561988Y-113599500D01*
X184358012Y-113599500D01*
X184358010Y-113599500D01*
X184157962Y-113639292D01*
X184157959Y-113639293D01*
X184157957Y-113639293D01*
X184157956Y-113639294D01*
X184110487Y-113658956D01*
X184085927Y-113669129D01*
X184016458Y-113676597D01*
X183975931Y-113658956D01*
X183975114Y-113660454D01*
X183967328Y-113656202D01*
X183832482Y-113605908D01*
X183832483Y-113605908D01*
X183772883Y-113599501D01*
X183772881Y-113599500D01*
X183772873Y-113599500D01*
X183772864Y-113599500D01*
X182607129Y-113599500D01*
X182607123Y-113599501D01*
X182547516Y-113605908D01*
X182412671Y-113656202D01*
X182412664Y-113656206D01*
X182297455Y-113742452D01*
X182297452Y-113742455D01*
X182211206Y-113857664D01*
X182211202Y-113857671D01*
X182160908Y-113992517D01*
X182154501Y-114052116D01*
X182154500Y-114052135D01*
X120529100Y-114052135D01*
X120493769Y-113943395D01*
X120390150Y-113740033D01*
X120255995Y-113555385D01*
X120094614Y-113394004D01*
X119909966Y-113259849D01*
X119706604Y-113156230D01*
X119489544Y-113085704D01*
X119264116Y-113050000D01*
X118750000Y-113050000D01*
X118750000Y-113899998D01*
X118689598Y-113874979D01*
X118564019Y-113850000D01*
X118435981Y-113850000D01*
X118310402Y-113874979D01*
X118250000Y-113899998D01*
X118250000Y-113050000D01*
X117735884Y-113050000D01*
X117510455Y-113085704D01*
X117293395Y-113156230D01*
X117090033Y-113259849D01*
X116905385Y-113394004D01*
X116744004Y-113555385D01*
X116609849Y-113740033D01*
X116506230Y-113943395D01*
X116435704Y-114160455D01*
X116421522Y-114250000D01*
X108078478Y-114250000D01*
X108064295Y-114160455D01*
X107993769Y-113943395D01*
X107890150Y-113740033D01*
X107755995Y-113555385D01*
X107594614Y-113394004D01*
X107409966Y-113259849D01*
X107206604Y-113156230D01*
X106989544Y-113085704D01*
X106764116Y-113050000D01*
X106250000Y-113050000D01*
X106250000Y-113899998D01*
X106189598Y-113874979D01*
X106064019Y-113850000D01*
X105935981Y-113850000D01*
X105810402Y-113874979D01*
X105750000Y-113899998D01*
X105750000Y-113050000D01*
X105235884Y-113050000D01*
X105010455Y-113085704D01*
X104793395Y-113156230D01*
X104590033Y-113259849D01*
X104405385Y-113394004D01*
X104244004Y-113555385D01*
X104109849Y-113740033D01*
X104006230Y-113943395D01*
X103935704Y-114160455D01*
X103921522Y-114250000D01*
X100500500Y-114250000D01*
X100500500Y-103602135D01*
X140409500Y-103602135D01*
X140409500Y-105397870D01*
X140409501Y-105397876D01*
X140415908Y-105457483D01*
X140466202Y-105592328D01*
X140466206Y-105592335D01*
X140552452Y-105707544D01*
X140552455Y-105707547D01*
X140667664Y-105793793D01*
X140667671Y-105793797D01*
X140802517Y-105844091D01*
X140802516Y-105844091D01*
X140809444Y-105844835D01*
X140862127Y-105850500D01*
X142657872Y-105850499D01*
X142717483Y-105844091D01*
X142852331Y-105793796D01*
X142967546Y-105707546D01*
X143053796Y-105592331D01*
X143104091Y-105457483D01*
X143110500Y-105397873D01*
X143110499Y-105373979D01*
X143113330Y-105360963D01*
X143123940Y-105341525D01*
X143130179Y-105320275D01*
X143146803Y-105299643D01*
X143146808Y-105299636D01*
X143146811Y-105299634D01*
X143146818Y-105299626D01*
X143817037Y-104629408D01*
X143834075Y-104692993D01*
X143899901Y-104807007D01*
X143992993Y-104900099D01*
X144107007Y-104965925D01*
X144170590Y-104982962D01*
X143538282Y-105615269D01*
X143538282Y-105615270D01*
X143592449Y-105654624D01*
X143781782Y-105751095D01*
X143983870Y-105816757D01*
X144193754Y-105850000D01*
X144406246Y-105850000D01*
X144616127Y-105816757D01*
X144616130Y-105816757D01*
X144818217Y-105751095D01*
X145007554Y-105654622D01*
X145061716Y-105615270D01*
X145061717Y-105615270D01*
X144429408Y-104982962D01*
X144492993Y-104965925D01*
X144607007Y-104900099D01*
X144700099Y-104807007D01*
X144765925Y-104692993D01*
X144782962Y-104629408D01*
X145415270Y-105261717D01*
X145415270Y-105261716D01*
X145454622Y-105207555D01*
X145459232Y-105198507D01*
X145507205Y-105147709D01*
X145575025Y-105130912D01*
X145641161Y-105153447D01*
X145680204Y-105198504D01*
X145684949Y-105207817D01*
X145809890Y-105379786D01*
X145960213Y-105530109D01*
X146132179Y-105655048D01*
X146132181Y-105655049D01*
X146132184Y-105655051D01*
X146321588Y-105751557D01*
X146523757Y-105817246D01*
X146733713Y-105850500D01*
X146733714Y-105850500D01*
X146946286Y-105850500D01*
X146946287Y-105850500D01*
X147156243Y-105817246D01*
X147358412Y-105751557D01*
X147547816Y-105655051D01*
X147634138Y-105592335D01*
X147719786Y-105530109D01*
X147719788Y-105530106D01*
X147719792Y-105530104D01*
X147870104Y-105379792D01*
X147870106Y-105379788D01*
X147870109Y-105379786D01*
X147995048Y-105207820D01*
X147995050Y-105207817D01*
X147995051Y-105207816D01*
X147999514Y-105199054D01*
X148047488Y-105148259D01*
X148115308Y-105131463D01*
X148181444Y-105153999D01*
X148220486Y-105199056D01*
X148224951Y-105207820D01*
X148349890Y-105379786D01*
X148500213Y-105530109D01*
X148672179Y-105655048D01*
X148672181Y-105655049D01*
X148672184Y-105655051D01*
X148861588Y-105751557D01*
X149063757Y-105817246D01*
X149273713Y-105850500D01*
X149273714Y-105850500D01*
X149486286Y-105850500D01*
X149486287Y-105850500D01*
X149696243Y-105817246D01*
X149898412Y-105751557D01*
X150087816Y-105655051D01*
X150174138Y-105592335D01*
X150259786Y-105530109D01*
X150259788Y-105530106D01*
X150259792Y-105530104D01*
X150410104Y-105379792D01*
X150410106Y-105379788D01*
X150410109Y-105379786D01*
X150535048Y-105207820D01*
X150535050Y-105207817D01*
X150535051Y-105207816D01*
X150539514Y-105199054D01*
X150587488Y-105148259D01*
X150655308Y-105131463D01*
X150721444Y-105153999D01*
X150760486Y-105199056D01*
X150764951Y-105207820D01*
X150889890Y-105379786D01*
X151040213Y-105530109D01*
X151212179Y-105655048D01*
X151212181Y-105655049D01*
X151212184Y-105655051D01*
X151401588Y-105751557D01*
X151603757Y-105817246D01*
X151813713Y-105850500D01*
X151813714Y-105850500D01*
X152026286Y-105850500D01*
X152026287Y-105850500D01*
X152236243Y-105817246D01*
X152438412Y-105751557D01*
X152627816Y-105655051D01*
X152714138Y-105592335D01*
X152799786Y-105530109D01*
X152799788Y-105530106D01*
X152799792Y-105530104D01*
X152950104Y-105379792D01*
X152950106Y-105379788D01*
X152950109Y-105379786D01*
X153075048Y-105207820D01*
X153075050Y-105207817D01*
X153075051Y-105207816D01*
X153079514Y-105199054D01*
X153127488Y-105148259D01*
X153195308Y-105131463D01*
X153261444Y-105153999D01*
X153300486Y-105199056D01*
X153304951Y-105207820D01*
X153429890Y-105379786D01*
X153580213Y-105530109D01*
X153752179Y-105655048D01*
X153752181Y-105655049D01*
X153752184Y-105655051D01*
X153941588Y-105751557D01*
X154143757Y-105817246D01*
X154353713Y-105850500D01*
X154353714Y-105850500D01*
X154566286Y-105850500D01*
X154566287Y-105850500D01*
X154776243Y-105817246D01*
X154978412Y-105751557D01*
X155167816Y-105655051D01*
X155254138Y-105592335D01*
X155339786Y-105530109D01*
X155339788Y-105530106D01*
X155339792Y-105530104D01*
X155490104Y-105379792D01*
X155490106Y-105379788D01*
X155490109Y-105379786D01*
X155615048Y-105207820D01*
X155615050Y-105207817D01*
X155615051Y-105207816D01*
X155619514Y-105199054D01*
X155667488Y-105148259D01*
X155735308Y-105131463D01*
X155801444Y-105153999D01*
X155840486Y-105199056D01*
X155844951Y-105207820D01*
X155969890Y-105379786D01*
X156120213Y-105530109D01*
X156292179Y-105655048D01*
X156292181Y-105655049D01*
X156292184Y-105655051D01*
X156481588Y-105751557D01*
X156683757Y-105817246D01*
X156893713Y-105850500D01*
X156893714Y-105850500D01*
X157106286Y-105850500D01*
X157106287Y-105850500D01*
X157316243Y-105817246D01*
X157518412Y-105751557D01*
X157707816Y-105655051D01*
X157794138Y-105592335D01*
X157879786Y-105530109D01*
X157879788Y-105530106D01*
X157879792Y-105530104D01*
X158030104Y-105379792D01*
X158030106Y-105379788D01*
X158030109Y-105379786D01*
X158155048Y-105207820D01*
X158155050Y-105207817D01*
X158155051Y-105207816D01*
X158159514Y-105199054D01*
X158207488Y-105148259D01*
X158275308Y-105131463D01*
X158341444Y-105153999D01*
X158380486Y-105199056D01*
X158384951Y-105207820D01*
X158509890Y-105379786D01*
X158660213Y-105530109D01*
X158832179Y-105655048D01*
X158832181Y-105655049D01*
X158832184Y-105655051D01*
X159021588Y-105751557D01*
X159223757Y-105817246D01*
X159433713Y-105850500D01*
X159433714Y-105850500D01*
X159646286Y-105850500D01*
X159646287Y-105850500D01*
X159856243Y-105817246D01*
X160058412Y-105751557D01*
X160247816Y-105655051D01*
X160334138Y-105592335D01*
X160419786Y-105530109D01*
X160419788Y-105530106D01*
X160419792Y-105530104D01*
X160570104Y-105379792D01*
X160570106Y-105379788D01*
X160570109Y-105379786D01*
X160695048Y-105207820D01*
X160695050Y-105207817D01*
X160695051Y-105207816D01*
X160791557Y-105018412D01*
X160857246Y-104816243D01*
X160890500Y-104606287D01*
X160890500Y-104393713D01*
X160857246Y-104183757D01*
X160791557Y-103981588D01*
X160695051Y-103792184D01*
X160695049Y-103792181D01*
X160695048Y-103792179D01*
X160570109Y-103620213D01*
X160419786Y-103469890D01*
X160247820Y-103344951D01*
X160058414Y-103248444D01*
X160058413Y-103248443D01*
X160058412Y-103248443D01*
X159856243Y-103182754D01*
X159856241Y-103182753D01*
X159856240Y-103182753D01*
X159694957Y-103157208D01*
X159646287Y-103149500D01*
X159433713Y-103149500D01*
X159385042Y-103157208D01*
X159223760Y-103182753D01*
X159021585Y-103248444D01*
X158832179Y-103344951D01*
X158660213Y-103469890D01*
X158509890Y-103620213D01*
X158384949Y-103792182D01*
X158380484Y-103800946D01*
X158332509Y-103851742D01*
X158264688Y-103868536D01*
X158198553Y-103845998D01*
X158159516Y-103800946D01*
X158155050Y-103792182D01*
X158030109Y-103620213D01*
X157879786Y-103469890D01*
X157707820Y-103344951D01*
X157518414Y-103248444D01*
X157518413Y-103248443D01*
X157518412Y-103248443D01*
X157316243Y-103182754D01*
X157316241Y-103182753D01*
X157316240Y-103182753D01*
X157154957Y-103157208D01*
X157106287Y-103149500D01*
X156893713Y-103149500D01*
X156845042Y-103157208D01*
X156683760Y-103182753D01*
X156481585Y-103248444D01*
X156292179Y-103344951D01*
X156120213Y-103469890D01*
X155969890Y-103620213D01*
X155844949Y-103792182D01*
X155840484Y-103800946D01*
X155792509Y-103851742D01*
X155724688Y-103868536D01*
X155658553Y-103845998D01*
X155619516Y-103800946D01*
X155615050Y-103792182D01*
X155490109Y-103620213D01*
X155339786Y-103469890D01*
X155167820Y-103344951D01*
X154978414Y-103248444D01*
X154978413Y-103248443D01*
X154978412Y-103248443D01*
X154776243Y-103182754D01*
X154776241Y-103182753D01*
X154776240Y-103182753D01*
X154614957Y-103157208D01*
X154566287Y-103149500D01*
X154353713Y-103149500D01*
X154305042Y-103157208D01*
X154143760Y-103182753D01*
X153941585Y-103248444D01*
X153752179Y-103344951D01*
X153580213Y-103469890D01*
X153429890Y-103620213D01*
X153304949Y-103792182D01*
X153300484Y-103800946D01*
X153252509Y-103851742D01*
X153184688Y-103868536D01*
X153118553Y-103845998D01*
X153079516Y-103800946D01*
X153075050Y-103792182D01*
X152950109Y-103620213D01*
X152799786Y-103469890D01*
X152627820Y-103344951D01*
X152438414Y-103248444D01*
X152438413Y-103248443D01*
X152438412Y-103248443D01*
X152236243Y-103182754D01*
X152236241Y-103182753D01*
X152236240Y-103182753D01*
X152074957Y-103157208D01*
X152026287Y-103149500D01*
X151813713Y-103149500D01*
X151765042Y-103157208D01*
X151603760Y-103182753D01*
X151401585Y-103248444D01*
X151212179Y-103344951D01*
X151040213Y-103469890D01*
X150889890Y-103620213D01*
X150764949Y-103792182D01*
X150760484Y-103800946D01*
X150712509Y-103851742D01*
X150644688Y-103868536D01*
X150578553Y-103845998D01*
X150539516Y-103800946D01*
X150535050Y-103792182D01*
X150410109Y-103620213D01*
X150259786Y-103469890D01*
X150087820Y-103344951D01*
X149898414Y-103248444D01*
X149898413Y-103248443D01*
X149898412Y-103248443D01*
X149696243Y-103182754D01*
X149696241Y-103182753D01*
X149696240Y-103182753D01*
X149534957Y-103157208D01*
X149486287Y-103149500D01*
X149273713Y-103149500D01*
X149225042Y-103157208D01*
X149063760Y-103182753D01*
X148861585Y-103248444D01*
X148672179Y-103344951D01*
X148500213Y-103469890D01*
X148349890Y-103620213D01*
X148224949Y-103792182D01*
X148220484Y-103800946D01*
X148172509Y-103851742D01*
X148104688Y-103868536D01*
X148038553Y-103845998D01*
X147999516Y-103800946D01*
X147995050Y-103792182D01*
X147870109Y-103620213D01*
X147719786Y-103469890D01*
X147547820Y-103344951D01*
X147358414Y-103248444D01*
X147358413Y-103248443D01*
X147358412Y-103248443D01*
X147156243Y-103182754D01*
X147156241Y-103182753D01*
X147156240Y-103182753D01*
X146994957Y-103157208D01*
X146946287Y-103149500D01*
X146733713Y-103149500D01*
X146685042Y-103157208D01*
X146523760Y-103182753D01*
X146321585Y-103248444D01*
X146132179Y-103344951D01*
X145960213Y-103469890D01*
X145809890Y-103620213D01*
X145684949Y-103792182D01*
X145680202Y-103801499D01*
X145632227Y-103852293D01*
X145564405Y-103869087D01*
X145498271Y-103846548D01*
X145459234Y-103801495D01*
X145454626Y-103792452D01*
X145415270Y-103738282D01*
X145415269Y-103738282D01*
X144782962Y-104370590D01*
X144765925Y-104307007D01*
X144700099Y-104192993D01*
X144607007Y-104099901D01*
X144492993Y-104034075D01*
X144429409Y-104017037D01*
X145061716Y-103384728D01*
X145007550Y-103345375D01*
X144818217Y-103248904D01*
X144616129Y-103183242D01*
X144406246Y-103150000D01*
X144193754Y-103150000D01*
X143983872Y-103183242D01*
X143983869Y-103183242D01*
X143781782Y-103248904D01*
X143592439Y-103345380D01*
X143538282Y-103384727D01*
X143538282Y-103384728D01*
X144170591Y-104017037D01*
X144107007Y-104034075D01*
X143992993Y-104099901D01*
X143899901Y-104192993D01*
X143834075Y-104307007D01*
X143817037Y-104370591D01*
X143146818Y-103700372D01*
X143113333Y-103639049D01*
X143113330Y-103639036D01*
X143110499Y-103626015D01*
X143110499Y-103602128D01*
X143104091Y-103542517D01*
X143075926Y-103467002D01*
X143053798Y-103407673D01*
X143053793Y-103407664D01*
X142967547Y-103292455D01*
X142967544Y-103292452D01*
X142852335Y-103206206D01*
X142852328Y-103206202D01*
X142717482Y-103155908D01*
X142717483Y-103155908D01*
X142657883Y-103149501D01*
X142657881Y-103149500D01*
X142657873Y-103149500D01*
X142657864Y-103149500D01*
X140862129Y-103149500D01*
X140862123Y-103149501D01*
X140802516Y-103155908D01*
X140667671Y-103206202D01*
X140667664Y-103206206D01*
X140552455Y-103292452D01*
X140552452Y-103292455D01*
X140466206Y-103407664D01*
X140466202Y-103407671D01*
X140415908Y-103542517D01*
X140409501Y-103602116D01*
X140409500Y-103602135D01*
X100500500Y-103602135D01*
X100500500Y-95250000D01*
X142390000Y-95250000D01*
X160080000Y-95250000D01*
X160080000Y-93135258D01*
X161779500Y-93135258D01*
X161779500Y-93364741D01*
X161804446Y-93554215D01*
X161809452Y-93592238D01*
X161809453Y-93592240D01*
X161868842Y-93813887D01*
X161956650Y-94025876D01*
X161956657Y-94025890D01*
X162071392Y-94224617D01*
X162211081Y-94406661D01*
X162211089Y-94406670D01*
X162373330Y-94568911D01*
X162373338Y-94568918D01*
X162555382Y-94708607D01*
X162555385Y-94708608D01*
X162555388Y-94708611D01*
X162754112Y-94823344D01*
X162754117Y-94823346D01*
X162754123Y-94823349D01*
X162845480Y-94861190D01*
X162966113Y-94911158D01*
X163187762Y-94970548D01*
X163415266Y-95000500D01*
X163415273Y-95000500D01*
X163644727Y-95000500D01*
X163644734Y-95000500D01*
X163872238Y-94970548D01*
X164093887Y-94911158D01*
X164305888Y-94823344D01*
X164504612Y-94708611D01*
X164686661Y-94568919D01*
X164686665Y-94568914D01*
X164686670Y-94568911D01*
X164848911Y-94406670D01*
X164848914Y-94406665D01*
X164848919Y-94406661D01*
X164988611Y-94224612D01*
X165103344Y-94025888D01*
X165191158Y-93813887D01*
X165250548Y-93592238D01*
X165280500Y-93364734D01*
X165280500Y-93135266D01*
X165250548Y-92907762D01*
X165191158Y-92686113D01*
X165103344Y-92474112D01*
X164988611Y-92275388D01*
X164988608Y-92275385D01*
X164988607Y-92275382D01*
X164848918Y-92093338D01*
X164848911Y-92093330D01*
X164686670Y-91931089D01*
X164686661Y-91931081D01*
X164504617Y-91791392D01*
X164305890Y-91676657D01*
X164305876Y-91676650D01*
X164093887Y-91588842D01*
X164002197Y-91564274D01*
X163942538Y-91527910D01*
X163912009Y-91465063D01*
X163920304Y-91395688D01*
X163964789Y-91341810D01*
X164031341Y-91320535D01*
X164034292Y-91320500D01*
X164118097Y-91320500D01*
X164351368Y-91283553D01*
X164431338Y-91257569D01*
X164575992Y-91210568D01*
X164786433Y-91103343D01*
X164977510Y-90964517D01*
X165144517Y-90797510D01*
X165283343Y-90606433D01*
X165390568Y-90395992D01*
X165463553Y-90171368D01*
X165500500Y-89938097D01*
X165500500Y-89701902D01*
X165463553Y-89468631D01*
X165390566Y-89244003D01*
X165283342Y-89033566D01*
X165144517Y-88842490D01*
X164977510Y-88675483D01*
X164942872Y-88650317D01*
X164900207Y-88594989D01*
X164894228Y-88525375D01*
X164926833Y-88463580D01*
X164942873Y-88449682D01*
X164977510Y-88424517D01*
X165144517Y-88257510D01*
X165283343Y-88066433D01*
X165390568Y-87855992D01*
X165463553Y-87631368D01*
X165500500Y-87398097D01*
X165500500Y-87161902D01*
X165463553Y-86928631D01*
X165390566Y-86704003D01*
X165283342Y-86493566D01*
X165144517Y-86302490D01*
X164977510Y-86135483D01*
X164942872Y-86110317D01*
X164900207Y-86054989D01*
X164894228Y-85985375D01*
X164926833Y-85923580D01*
X164942873Y-85909682D01*
X164977510Y-85884517D01*
X165144517Y-85717510D01*
X165283343Y-85526433D01*
X165390568Y-85315992D01*
X165463553Y-85091368D01*
X165500500Y-84858097D01*
X165500500Y-84621902D01*
X165463553Y-84388631D01*
X165390566Y-84164003D01*
X165283342Y-83953566D01*
X165144517Y-83762490D01*
X164977510Y-83595483D01*
X164942872Y-83570317D01*
X164900207Y-83514989D01*
X164894228Y-83445375D01*
X164926833Y-83383580D01*
X164942873Y-83369682D01*
X164962836Y-83355178D01*
X164977510Y-83344517D01*
X165144517Y-83177510D01*
X165283343Y-82986433D01*
X165390568Y-82775992D01*
X165463553Y-82551368D01*
X165486074Y-82409174D01*
X165500500Y-82318097D01*
X165500500Y-82081902D01*
X165463553Y-81848631D01*
X165390566Y-81624003D01*
X165366696Y-81577155D01*
X176100000Y-81577155D01*
X176100000Y-82225000D01*
X177016988Y-82225000D01*
X176984075Y-82282007D01*
X176950000Y-82409174D01*
X176950000Y-82540826D01*
X176984075Y-82667993D01*
X177016988Y-82725000D01*
X176100000Y-82725000D01*
X176100000Y-83372844D01*
X176106401Y-83432372D01*
X176106403Y-83432379D01*
X176156645Y-83567086D01*
X176156649Y-83567093D01*
X176242809Y-83682187D01*
X176242812Y-83682190D01*
X176357906Y-83768350D01*
X176357913Y-83768354D01*
X176492620Y-83818596D01*
X176492627Y-83818598D01*
X176552155Y-83824999D01*
X176552172Y-83825000D01*
X177200000Y-83825000D01*
X177200000Y-82908012D01*
X177257007Y-82940925D01*
X177384174Y-82975000D01*
X177515826Y-82975000D01*
X177642993Y-82940925D01*
X177700000Y-82908012D01*
X177700000Y-83825000D01*
X178347828Y-83825000D01*
X178347844Y-83824999D01*
X178407372Y-83818598D01*
X178407379Y-83818596D01*
X178542086Y-83768354D01*
X178542093Y-83768350D01*
X178657187Y-83682190D01*
X178657190Y-83682187D01*
X178743350Y-83567093D01*
X178743354Y-83567086D01*
X178792422Y-83435529D01*
X178834293Y-83379595D01*
X178899757Y-83355178D01*
X178968030Y-83370030D01*
X178996285Y-83391181D01*
X179110213Y-83505109D01*
X179282179Y-83630048D01*
X179282181Y-83630049D01*
X179282184Y-83630051D01*
X179471588Y-83726557D01*
X179673757Y-83792246D01*
X179883713Y-83825500D01*
X179883714Y-83825500D01*
X180096286Y-83825500D01*
X180096287Y-83825500D01*
X180306243Y-83792246D01*
X180508412Y-83726557D01*
X180697816Y-83630051D01*
X180719789Y-83614086D01*
X180869786Y-83505109D01*
X180869788Y-83505106D01*
X180869792Y-83505104D01*
X181020104Y-83354792D01*
X181020106Y-83354788D01*
X181020109Y-83354786D01*
X181145048Y-83182820D01*
X181145047Y-83182820D01*
X181145051Y-83182816D01*
X181149514Y-83174054D01*
X181197488Y-83123259D01*
X181265308Y-83106463D01*
X181331444Y-83128999D01*
X181370484Y-83174054D01*
X181374591Y-83182115D01*
X181374951Y-83182820D01*
X181499890Y-83354786D01*
X181650213Y-83505109D01*
X181822179Y-83630048D01*
X181822181Y-83630049D01*
X181822184Y-83630051D01*
X182011588Y-83726557D01*
X182213757Y-83792246D01*
X182423713Y-83825500D01*
X182423714Y-83825500D01*
X182636286Y-83825500D01*
X182636287Y-83825500D01*
X182846243Y-83792246D01*
X183048412Y-83726557D01*
X183237816Y-83630051D01*
X183259789Y-83614086D01*
X183409786Y-83505109D01*
X183409788Y-83505106D01*
X183409792Y-83505104D01*
X183560104Y-83354792D01*
X183560106Y-83354788D01*
X183560109Y-83354786D01*
X183685048Y-83182820D01*
X183685047Y-83182820D01*
X183685051Y-83182816D01*
X183689514Y-83174054D01*
X183737488Y-83123259D01*
X183805308Y-83106463D01*
X183871444Y-83128999D01*
X183910484Y-83174054D01*
X183914591Y-83182115D01*
X183914951Y-83182820D01*
X184039890Y-83354786D01*
X184190213Y-83505109D01*
X184362179Y-83630048D01*
X184362181Y-83630049D01*
X184362184Y-83630051D01*
X184551588Y-83726557D01*
X184753757Y-83792246D01*
X184963713Y-83825500D01*
X184963714Y-83825500D01*
X185176286Y-83825500D01*
X185176287Y-83825500D01*
X185386243Y-83792246D01*
X185588412Y-83726557D01*
X185777816Y-83630051D01*
X185799789Y-83614086D01*
X185949786Y-83505109D01*
X185949788Y-83505106D01*
X185949792Y-83505104D01*
X186100104Y-83354792D01*
X186100106Y-83354788D01*
X186100109Y-83354786D01*
X186225048Y-83182820D01*
X186225047Y-83182820D01*
X186225051Y-83182816D01*
X186229514Y-83174054D01*
X186277488Y-83123259D01*
X186345308Y-83106463D01*
X186411444Y-83128999D01*
X186450484Y-83174054D01*
X186454591Y-83182115D01*
X186454951Y-83182820D01*
X186579890Y-83354786D01*
X186730213Y-83505109D01*
X186902179Y-83630048D01*
X186902181Y-83630049D01*
X186902184Y-83630051D01*
X187091588Y-83726557D01*
X187293757Y-83792246D01*
X187503713Y-83825500D01*
X187503714Y-83825500D01*
X187716286Y-83825500D01*
X187716287Y-83825500D01*
X187926243Y-83792246D01*
X188128412Y-83726557D01*
X188317816Y-83630051D01*
X188339789Y-83614086D01*
X188489786Y-83505109D01*
X188489788Y-83505106D01*
X188489792Y-83505104D01*
X188640104Y-83354792D01*
X188640106Y-83354788D01*
X188640109Y-83354786D01*
X188765048Y-83182820D01*
X188765047Y-83182820D01*
X188765051Y-83182816D01*
X188861557Y-82993412D01*
X188927246Y-82791243D01*
X188960500Y-82581287D01*
X188960500Y-82368713D01*
X188927246Y-82158757D01*
X188861557Y-81956588D01*
X188765051Y-81767184D01*
X188765049Y-81767181D01*
X188765048Y-81767179D01*
X188640109Y-81595213D01*
X188489786Y-81444890D01*
X188317820Y-81319951D01*
X188128414Y-81223444D01*
X188128413Y-81223443D01*
X188128412Y-81223443D01*
X187926243Y-81157754D01*
X187926241Y-81157753D01*
X187926240Y-81157753D01*
X187764957Y-81132208D01*
X187716287Y-81124500D01*
X187503713Y-81124500D01*
X187455042Y-81132208D01*
X187293760Y-81157753D01*
X187091585Y-81223444D01*
X186902179Y-81319951D01*
X186730213Y-81444890D01*
X186579890Y-81595213D01*
X186454949Y-81767182D01*
X186450484Y-81775946D01*
X186402509Y-81826742D01*
X186334688Y-81843536D01*
X186268553Y-81820998D01*
X186229516Y-81775946D01*
X186225050Y-81767182D01*
X186100109Y-81595213D01*
X185949786Y-81444890D01*
X185777820Y-81319951D01*
X185588414Y-81223444D01*
X185588413Y-81223443D01*
X185588412Y-81223443D01*
X185386243Y-81157754D01*
X185386241Y-81157753D01*
X185386240Y-81157753D01*
X185224957Y-81132208D01*
X185176287Y-81124500D01*
X184963713Y-81124500D01*
X184915042Y-81132208D01*
X184753760Y-81157753D01*
X184551585Y-81223444D01*
X184362179Y-81319951D01*
X184190213Y-81444890D01*
X184039890Y-81595213D01*
X183914949Y-81767182D01*
X183910484Y-81775946D01*
X183862509Y-81826742D01*
X183794688Y-81843536D01*
X183728553Y-81820998D01*
X183689516Y-81775946D01*
X183685050Y-81767182D01*
X183560109Y-81595213D01*
X183409786Y-81444890D01*
X183237820Y-81319951D01*
X183048414Y-81223444D01*
X183048413Y-81223443D01*
X183048412Y-81223443D01*
X182846243Y-81157754D01*
X182846241Y-81157753D01*
X182846240Y-81157753D01*
X182684957Y-81132208D01*
X182636287Y-81124500D01*
X182423713Y-81124500D01*
X182375042Y-81132208D01*
X182213760Y-81157753D01*
X182011585Y-81223444D01*
X181822179Y-81319951D01*
X181650213Y-81444890D01*
X181499890Y-81595213D01*
X181374949Y-81767182D01*
X181370484Y-81775946D01*
X181322509Y-81826742D01*
X181254688Y-81843536D01*
X181188553Y-81820998D01*
X181149516Y-81775946D01*
X181145050Y-81767182D01*
X181020109Y-81595213D01*
X180869786Y-81444890D01*
X180697820Y-81319951D01*
X180508414Y-81223444D01*
X180508413Y-81223443D01*
X180508412Y-81223443D01*
X180306243Y-81157754D01*
X180306241Y-81157753D01*
X180306240Y-81157753D01*
X180144957Y-81132208D01*
X180096287Y-81124500D01*
X179883713Y-81124500D01*
X179835042Y-81132208D01*
X179673760Y-81157753D01*
X179471585Y-81223444D01*
X179282179Y-81319951D01*
X179110215Y-81444889D01*
X178996285Y-81558819D01*
X178934962Y-81592303D01*
X178865270Y-81587319D01*
X178809337Y-81545447D01*
X178792422Y-81514470D01*
X178743354Y-81382913D01*
X178743350Y-81382906D01*
X178657190Y-81267812D01*
X178657187Y-81267809D01*
X178542093Y-81181649D01*
X178542086Y-81181645D01*
X178407379Y-81131403D01*
X178407372Y-81131401D01*
X178347844Y-81125000D01*
X177700000Y-81125000D01*
X177700000Y-82041988D01*
X177642993Y-82009075D01*
X177515826Y-81975000D01*
X177384174Y-81975000D01*
X177257007Y-82009075D01*
X177200000Y-82041988D01*
X177200000Y-81125000D01*
X176552155Y-81125000D01*
X176492627Y-81131401D01*
X176492620Y-81131403D01*
X176357913Y-81181645D01*
X176357906Y-81181649D01*
X176242812Y-81267809D01*
X176242809Y-81267812D01*
X176156649Y-81382906D01*
X176156645Y-81382913D01*
X176106403Y-81517620D01*
X176106401Y-81517627D01*
X176100000Y-81577155D01*
X165366696Y-81577155D01*
X165283342Y-81413566D01*
X165261066Y-81382906D01*
X165144517Y-81222490D01*
X164977510Y-81055483D01*
X164942872Y-81030317D01*
X164900207Y-80974989D01*
X164894228Y-80905375D01*
X164926833Y-80843580D01*
X164942873Y-80829682D01*
X164977510Y-80804517D01*
X165144517Y-80637510D01*
X165283343Y-80446433D01*
X165390568Y-80235992D01*
X165463553Y-80011368D01*
X165500500Y-79778097D01*
X165500500Y-79541902D01*
X165463553Y-79308631D01*
X165390566Y-79084003D01*
X165283342Y-78873566D01*
X165144517Y-78682490D01*
X164977510Y-78515483D01*
X164942872Y-78490317D01*
X164900207Y-78434989D01*
X164894228Y-78365375D01*
X164926833Y-78303580D01*
X164942873Y-78289682D01*
X164977510Y-78264517D01*
X165144517Y-78097510D01*
X165283343Y-77906433D01*
X165390568Y-77695992D01*
X165463553Y-77471368D01*
X165500500Y-77238097D01*
X165500500Y-77001902D01*
X165463553Y-76768631D01*
X165390566Y-76544003D01*
X165283342Y-76333566D01*
X165144517Y-76142490D01*
X164977510Y-75975483D01*
X164942872Y-75950317D01*
X164900207Y-75894989D01*
X164894228Y-75825375D01*
X164926833Y-75763580D01*
X164942873Y-75749682D01*
X164977510Y-75724517D01*
X165144517Y-75557510D01*
X165283343Y-75366433D01*
X165390568Y-75155992D01*
X165463553Y-74931368D01*
X165478078Y-74839660D01*
X165500500Y-74698097D01*
X165500500Y-74461902D01*
X165463553Y-74228631D01*
X165390566Y-74004003D01*
X165283342Y-73793566D01*
X165144517Y-73602490D01*
X164977510Y-73435483D01*
X164942872Y-73410317D01*
X164900207Y-73354989D01*
X164894228Y-73285375D01*
X164926833Y-73223580D01*
X164942873Y-73209682D01*
X164977510Y-73184517D01*
X165144517Y-73017510D01*
X165283343Y-72826433D01*
X165390568Y-72615992D01*
X165463553Y-72391368D01*
X165500500Y-72158097D01*
X165500500Y-71921902D01*
X165463553Y-71688631D01*
X165390566Y-71464003D01*
X165283342Y-71253566D01*
X165144517Y-71062490D01*
X164977510Y-70895483D01*
X164942872Y-70870317D01*
X164900207Y-70814989D01*
X164894228Y-70745375D01*
X164926833Y-70683580D01*
X164942873Y-70669682D01*
X164977510Y-70644517D01*
X165144517Y-70477510D01*
X165283343Y-70286433D01*
X165390568Y-70075992D01*
X165463553Y-69851368D01*
X165489175Y-69689598D01*
X165500500Y-69618097D01*
X165500500Y-69381902D01*
X165463553Y-69148631D01*
X165390566Y-68924003D01*
X165283342Y-68713566D01*
X165144517Y-68522490D01*
X164977510Y-68355483D01*
X164942872Y-68330317D01*
X164900207Y-68274989D01*
X164894228Y-68205375D01*
X164926833Y-68143580D01*
X164942873Y-68129682D01*
X164977510Y-68104517D01*
X165144517Y-67937510D01*
X165283343Y-67746433D01*
X165390568Y-67535992D01*
X165463553Y-67311368D01*
X165500500Y-67078097D01*
X165500500Y-66841902D01*
X165463553Y-66608631D01*
X165390566Y-66384003D01*
X165283342Y-66173566D01*
X165144517Y-65982490D01*
X164977510Y-65815483D01*
X164942872Y-65790317D01*
X164900207Y-65734989D01*
X164894228Y-65665375D01*
X164926833Y-65603580D01*
X164942873Y-65589682D01*
X164977510Y-65564517D01*
X165144517Y-65397510D01*
X165283343Y-65206433D01*
X165390568Y-64995992D01*
X165463553Y-64771368D01*
X165500500Y-64538097D01*
X165500500Y-64301902D01*
X165463553Y-64068631D01*
X165390566Y-63844003D01*
X165283342Y-63633566D01*
X165144517Y-63442490D01*
X164977510Y-63275483D01*
X164942872Y-63250317D01*
X164900207Y-63194989D01*
X164894228Y-63125375D01*
X164926833Y-63063580D01*
X164942873Y-63049682D01*
X164977510Y-63024517D01*
X165144517Y-62857510D01*
X165283343Y-62666433D01*
X165390568Y-62455992D01*
X165463553Y-62231368D01*
X165500500Y-61998097D01*
X165500500Y-61761902D01*
X165463553Y-61528631D01*
X165390566Y-61304003D01*
X165283342Y-61093566D01*
X165144517Y-60902490D01*
X164977510Y-60735483D01*
X164942872Y-60710317D01*
X164900207Y-60654989D01*
X164894228Y-60585375D01*
X164926833Y-60523580D01*
X164942873Y-60509682D01*
X164977510Y-60484517D01*
X165144517Y-60317510D01*
X165283343Y-60126433D01*
X165390568Y-59915992D01*
X165463553Y-59691368D01*
X165500500Y-59458097D01*
X165500500Y-59221902D01*
X165463553Y-58988631D01*
X165390566Y-58764003D01*
X165283342Y-58553566D01*
X165144517Y-58362490D01*
X164977510Y-58195483D01*
X164918282Y-58152451D01*
X164911941Y-58144228D01*
X164902862Y-58139186D01*
X164890969Y-58117031D01*
X164875617Y-58097122D01*
X164873850Y-58085140D01*
X164869817Y-58077626D01*
X164867550Y-58042404D01*
X164869104Y-58022657D01*
X164832224Y-57985777D01*
X175474500Y-57985777D01*
X175474500Y-60614208D01*
X175474501Y-60614223D01*
X175484904Y-60746413D01*
X175484905Y-60746420D01*
X175539902Y-60964678D01*
X175539903Y-60964681D01*
X175632991Y-61169622D01*
X175632997Y-61169632D01*
X175761174Y-61354645D01*
X175761178Y-61354650D01*
X175761181Y-61354654D01*
X175920346Y-61513819D01*
X175920350Y-61513822D01*
X175920354Y-61513825D01*
X175941727Y-61528632D01*
X176105374Y-61642007D01*
X176310317Y-61735096D01*
X176310321Y-61735097D01*
X176528579Y-61790094D01*
X176528581Y-61790094D01*
X176528588Y-61790096D01*
X176660783Y-61800500D01*
X178289216Y-61800499D01*
X178421412Y-61790096D01*
X178639683Y-61735096D01*
X178844626Y-61642007D01*
X179029654Y-61513819D01*
X179188819Y-61354654D01*
X179317007Y-61169626D01*
X179410096Y-60964683D01*
X179465096Y-60746412D01*
X179475500Y-60614217D01*
X179475499Y-57985784D01*
X179465096Y-57853588D01*
X179461546Y-57839500D01*
X179410098Y-57635322D01*
X179387774Y-57586174D01*
X179341636Y-57484597D01*
X179331834Y-57415423D01*
X179360989Y-57351927D01*
X179419844Y-57314272D01*
X179489713Y-57314414D01*
X179492854Y-57315389D01*
X179647164Y-57365526D01*
X179864819Y-57400000D01*
X180085181Y-57400000D01*
X180302835Y-57365526D01*
X180512410Y-57297432D01*
X180708760Y-57197386D01*
X180772513Y-57151066D01*
X180772514Y-57151066D01*
X180104409Y-56482962D01*
X180167993Y-56465925D01*
X180282007Y-56400099D01*
X180375099Y-56307007D01*
X180440925Y-56192993D01*
X180457962Y-56129410D01*
X181126066Y-56797514D01*
X181127547Y-56797397D01*
X181179700Y-56757180D01*
X181249314Y-56751200D01*
X181311109Y-56783806D01*
X181325008Y-56799846D01*
X181406752Y-56912359D01*
X181562636Y-57068243D01*
X181562641Y-57068247D01*
X181718192Y-57181260D01*
X181740978Y-57197815D01*
X181869375Y-57263237D01*
X181937393Y-57297895D01*
X181937396Y-57297896D01*
X182042221Y-57331955D01*
X182147049Y-57366015D01*
X182364778Y-57400500D01*
X182364779Y-57400500D01*
X182585221Y-57400500D01*
X182585222Y-57400500D01*
X182802951Y-57366015D01*
X183012606Y-57297895D01*
X183209022Y-57197815D01*
X183387365Y-57068242D01*
X183408401Y-57047205D01*
X183469721Y-57013720D01*
X183539413Y-57018703D01*
X183595348Y-57060574D01*
X183612264Y-57091552D01*
X183631203Y-57142329D01*
X183631206Y-57142335D01*
X183717452Y-57257544D01*
X183717455Y-57257547D01*
X183832664Y-57343793D01*
X183832671Y-57343797D01*
X183967517Y-57394091D01*
X183967516Y-57394091D01*
X183974444Y-57394835D01*
X184027127Y-57400500D01*
X185454047Y-57400499D01*
X185521086Y-57420184D01*
X185566841Y-57472987D01*
X185576785Y-57542146D01*
X185566947Y-57575779D01*
X185539901Y-57635322D01*
X185484905Y-57853579D01*
X185484904Y-57853586D01*
X185474500Y-57985777D01*
X185474500Y-60614208D01*
X185474501Y-60614223D01*
X185484904Y-60746413D01*
X185484905Y-60746420D01*
X185539902Y-60964678D01*
X185539903Y-60964681D01*
X185632991Y-61169622D01*
X185632997Y-61169632D01*
X185761174Y-61354645D01*
X185761178Y-61354650D01*
X185761181Y-61354654D01*
X185920346Y-61513819D01*
X185920350Y-61513822D01*
X185920354Y-61513825D01*
X185941727Y-61528632D01*
X186105374Y-61642007D01*
X186310317Y-61735096D01*
X186310321Y-61735097D01*
X186528579Y-61790094D01*
X186528581Y-61790094D01*
X186528588Y-61790096D01*
X186660783Y-61800500D01*
X188289216Y-61800499D01*
X188421412Y-61790096D01*
X188639683Y-61735096D01*
X188844626Y-61642007D01*
X189029654Y-61513819D01*
X189188819Y-61354654D01*
X189317007Y-61169626D01*
X189410096Y-60964683D01*
X189465096Y-60746412D01*
X189475500Y-60614217D01*
X189475499Y-57985784D01*
X189465096Y-57853588D01*
X189410096Y-57635317D01*
X189317007Y-57430374D01*
X189257026Y-57343797D01*
X189188825Y-57245354D01*
X189188822Y-57245350D01*
X189188819Y-57245346D01*
X189029654Y-57086181D01*
X189029650Y-57086178D01*
X189029645Y-57086174D01*
X188844632Y-56957997D01*
X188844630Y-56957995D01*
X188844626Y-56957993D01*
X188744172Y-56912365D01*
X188639681Y-56864903D01*
X188639678Y-56864902D01*
X188421420Y-56809905D01*
X188421413Y-56809904D01*
X188377347Y-56806436D01*
X188289217Y-56799500D01*
X188289215Y-56799500D01*
X186660791Y-56799500D01*
X186660776Y-56799501D01*
X186528582Y-56809904D01*
X186523433Y-56810750D01*
X186523203Y-56809348D01*
X186459955Y-56806883D01*
X186402693Y-56766847D01*
X186376167Y-56702208D01*
X186375499Y-56689357D01*
X186375499Y-55052129D01*
X186375498Y-55052123D01*
X186374886Y-55046433D01*
X186369091Y-54992517D01*
X186354275Y-54952794D01*
X186318797Y-54857671D01*
X186318793Y-54857664D01*
X186232547Y-54742455D01*
X186232544Y-54742452D01*
X186117335Y-54656206D01*
X186117328Y-54656202D01*
X185982482Y-54605908D01*
X185982483Y-54605908D01*
X185922883Y-54599501D01*
X185922881Y-54599500D01*
X185922873Y-54599500D01*
X185922864Y-54599500D01*
X184027129Y-54599500D01*
X184027123Y-54599501D01*
X183967516Y-54605908D01*
X183832671Y-54656202D01*
X183832664Y-54656206D01*
X183717455Y-54742452D01*
X183717452Y-54742455D01*
X183631206Y-54857664D01*
X183631201Y-54857674D01*
X183612263Y-54908448D01*
X183570391Y-54964381D01*
X183504927Y-54988797D01*
X183436654Y-54973945D01*
X183408401Y-54952794D01*
X183387363Y-54931756D01*
X183387358Y-54931752D01*
X183209025Y-54802187D01*
X183209024Y-54802186D01*
X183209022Y-54802185D01*
X183091791Y-54742452D01*
X183012606Y-54702104D01*
X183012603Y-54702103D01*
X182802952Y-54633985D01*
X182660153Y-54611368D01*
X182585222Y-54599500D01*
X182364778Y-54599500D01*
X182292201Y-54610995D01*
X182147047Y-54633985D01*
X181937396Y-54702103D01*
X181937393Y-54702104D01*
X181740974Y-54802187D01*
X181562641Y-54931752D01*
X181562636Y-54931756D01*
X181406756Y-55087636D01*
X181325008Y-55200153D01*
X181269678Y-55242818D01*
X181200064Y-55248797D01*
X181138269Y-55216191D01*
X181126416Y-55202513D01*
X181126065Y-55202485D01*
X180457962Y-55870589D01*
X180440925Y-55807007D01*
X180375099Y-55692993D01*
X180282007Y-55599901D01*
X180167993Y-55534075D01*
X180104407Y-55517037D01*
X180772513Y-54848932D01*
X180708756Y-54802611D01*
X180512410Y-54702567D01*
X180302835Y-54634473D01*
X180085181Y-54600000D01*
X179864819Y-54600000D01*
X179647164Y-54634473D01*
X179437589Y-54702567D01*
X179241233Y-54802616D01*
X179177485Y-54848931D01*
X179177485Y-54848932D01*
X179845590Y-55517037D01*
X179782007Y-55534075D01*
X179667993Y-55599901D01*
X179574901Y-55692993D01*
X179509075Y-55807007D01*
X179492037Y-55870591D01*
X178823932Y-55202485D01*
X178823931Y-55202485D01*
X178777616Y-55266233D01*
X178677567Y-55462589D01*
X178609473Y-55672164D01*
X178575000Y-55889818D01*
X178575000Y-56110181D01*
X178609473Y-56327835D01*
X178677567Y-56537410D01*
X178750657Y-56680856D01*
X178763553Y-56749525D01*
X178737277Y-56814266D01*
X178680170Y-56854523D01*
X178610365Y-56857515D01*
X178609874Y-56857392D01*
X178421420Y-56809905D01*
X178421413Y-56809904D01*
X178377347Y-56806436D01*
X178289217Y-56799500D01*
X178289215Y-56799500D01*
X176660791Y-56799500D01*
X176660776Y-56799501D01*
X176528586Y-56809904D01*
X176528579Y-56809905D01*
X176310321Y-56864902D01*
X176310318Y-56864903D01*
X176105377Y-56957991D01*
X176105367Y-56957997D01*
X175920354Y-57086174D01*
X175920342Y-57086184D01*
X175761184Y-57245342D01*
X175761174Y-57245354D01*
X175632997Y-57430367D01*
X175632991Y-57430377D01*
X175539903Y-57635318D01*
X175539902Y-57635321D01*
X175484905Y-57853579D01*
X175484904Y-57853586D01*
X175474500Y-57985777D01*
X164832224Y-57985777D01*
X164137574Y-57291128D01*
X164196853Y-57275245D01*
X164313147Y-57208102D01*
X164408102Y-57113147D01*
X164475245Y-56996853D01*
X164491128Y-56937574D01*
X165222658Y-57669105D01*
X165222658Y-57669104D01*
X165282914Y-57586169D01*
X165282918Y-57586163D01*
X165390102Y-57375802D01*
X165463065Y-57151247D01*
X165500000Y-56918052D01*
X165500000Y-56681947D01*
X165463065Y-56448752D01*
X165390102Y-56224197D01*
X165282914Y-56013828D01*
X165222658Y-55930894D01*
X165222658Y-55930893D01*
X164491128Y-56662424D01*
X164475245Y-56603147D01*
X164408102Y-56486853D01*
X164313147Y-56391898D01*
X164196853Y-56324755D01*
X164137574Y-56308871D01*
X164869105Y-55577340D01*
X164867551Y-55557594D01*
X164881915Y-55489216D01*
X164918284Y-55447547D01*
X164977510Y-55404517D01*
X165144517Y-55237510D01*
X165283343Y-55046433D01*
X165372035Y-54872363D01*
X165388579Y-54839896D01*
X165388580Y-54839894D01*
X165390565Y-54835999D01*
X165390565Y-54835995D01*
X165390568Y-54835992D01*
X165463553Y-54611368D01*
X165472196Y-54556799D01*
X165500500Y-54378097D01*
X165500500Y-54141902D01*
X165463553Y-53908631D01*
X165390566Y-53684003D01*
X165283342Y-53473566D01*
X165144517Y-53282490D01*
X164977510Y-53115483D01*
X164786433Y-52976657D01*
X164575996Y-52869433D01*
X164351368Y-52796446D01*
X164118097Y-52759500D01*
X164118092Y-52759500D01*
X163881908Y-52759500D01*
X163881903Y-52759500D01*
X163648631Y-52796446D01*
X163424003Y-52869433D01*
X163213566Y-52976657D01*
X163157119Y-53017669D01*
X163022490Y-53115483D01*
X163022488Y-53115485D01*
X163022487Y-53115485D01*
X162855485Y-53282487D01*
X162855485Y-53282488D01*
X162855483Y-53282490D01*
X162795862Y-53364550D01*
X162716657Y-53473566D01*
X162609433Y-53684003D01*
X162536446Y-53908631D01*
X162499500Y-54141902D01*
X162499500Y-54378097D01*
X162536446Y-54611368D01*
X162609433Y-54835996D01*
X162687290Y-54988797D01*
X162716657Y-55046433D01*
X162855483Y-55237510D01*
X163022490Y-55404517D01*
X163081716Y-55447547D01*
X163124381Y-55502875D01*
X163132448Y-55557593D01*
X163130893Y-55577340D01*
X163862425Y-56308871D01*
X163803147Y-56324755D01*
X163686853Y-56391898D01*
X163591898Y-56486853D01*
X163524755Y-56603147D01*
X163508871Y-56662424D01*
X162777340Y-55930894D01*
X162717084Y-56013830D01*
X162609897Y-56224197D01*
X162536934Y-56448752D01*
X162500000Y-56681947D01*
X162500000Y-56918052D01*
X162536934Y-57151247D01*
X162609897Y-57375802D01*
X162717087Y-57586174D01*
X162777338Y-57669104D01*
X162777340Y-57669105D01*
X163508871Y-56937574D01*
X163524755Y-56996853D01*
X163591898Y-57113147D01*
X163686853Y-57208102D01*
X163803147Y-57275245D01*
X163862425Y-57291128D01*
X163130893Y-58022658D01*
X163132448Y-58042405D01*
X163118084Y-58110783D01*
X163081717Y-58152451D01*
X163022490Y-58195482D01*
X162855485Y-58362487D01*
X162855485Y-58362488D01*
X162855483Y-58362490D01*
X162795862Y-58444550D01*
X162716657Y-58553566D01*
X162609433Y-58764003D01*
X162536446Y-58988631D01*
X162499500Y-59221902D01*
X162499500Y-59458097D01*
X162536446Y-59691368D01*
X162609433Y-59915996D01*
X162716657Y-60126433D01*
X162855483Y-60317510D01*
X163022490Y-60484517D01*
X163057127Y-60509683D01*
X163099792Y-60565013D01*
X163105771Y-60634626D01*
X163073165Y-60696421D01*
X163057130Y-60710315D01*
X163039365Y-60723222D01*
X163022488Y-60735484D01*
X162855485Y-60902487D01*
X162855485Y-60902488D01*
X162855483Y-60902490D01*
X162810297Y-60964683D01*
X162716657Y-61093566D01*
X162609433Y-61304003D01*
X162536446Y-61528631D01*
X162499500Y-61761902D01*
X162499500Y-61998097D01*
X162536446Y-62231368D01*
X162609433Y-62455996D01*
X162716657Y-62666433D01*
X162855483Y-62857510D01*
X163022490Y-63024517D01*
X163057127Y-63049683D01*
X163099792Y-63105013D01*
X163105771Y-63174626D01*
X163073165Y-63236421D01*
X163057130Y-63250315D01*
X163039365Y-63263222D01*
X163022488Y-63275484D01*
X162855485Y-63442487D01*
X162855485Y-63442488D01*
X162855483Y-63442490D01*
X162795862Y-63524550D01*
X162716657Y-63633566D01*
X162609433Y-63844003D01*
X162536446Y-64068631D01*
X162499500Y-64301902D01*
X162499500Y-64538097D01*
X162536446Y-64771368D01*
X162609433Y-64995996D01*
X162716657Y-65206433D01*
X162855483Y-65397510D01*
X163022490Y-65564517D01*
X163057127Y-65589683D01*
X163099792Y-65645013D01*
X163105771Y-65714626D01*
X163073165Y-65776421D01*
X163057130Y-65790315D01*
X163039365Y-65803222D01*
X163022488Y-65815484D01*
X162855485Y-65982487D01*
X162855485Y-65982488D01*
X162855483Y-65982490D01*
X162795862Y-66064550D01*
X162716657Y-66173566D01*
X162609433Y-66384003D01*
X162536446Y-66608631D01*
X162499500Y-66841902D01*
X162499500Y-67078097D01*
X162536446Y-67311368D01*
X162609433Y-67535996D01*
X162716657Y-67746433D01*
X162855483Y-67937510D01*
X163022490Y-68104517D01*
X163057127Y-68129683D01*
X163099792Y-68185013D01*
X163105771Y-68254626D01*
X163073165Y-68316421D01*
X163057130Y-68330315D01*
X163039365Y-68343222D01*
X163022488Y-68355484D01*
X162855485Y-68522487D01*
X162855485Y-68522488D01*
X162855483Y-68522490D01*
X162795862Y-68604550D01*
X162716657Y-68713566D01*
X162609433Y-68924003D01*
X162536446Y-69148631D01*
X162499500Y-69381902D01*
X162499500Y-69618097D01*
X162536446Y-69851368D01*
X162609433Y-70075996D01*
X162703171Y-70259966D01*
X162716657Y-70286433D01*
X162855483Y-70477510D01*
X163022490Y-70644517D01*
X163057127Y-70669683D01*
X163099792Y-70725013D01*
X163105771Y-70794626D01*
X163073165Y-70856421D01*
X163057130Y-70870315D01*
X163039365Y-70883222D01*
X163022488Y-70895484D01*
X162855485Y-71062487D01*
X162855485Y-71062488D01*
X162855483Y-71062490D01*
X162795862Y-71144550D01*
X162716657Y-71253566D01*
X162609433Y-71464003D01*
X162536446Y-71688631D01*
X162499500Y-71921902D01*
X162499500Y-72158097D01*
X162536446Y-72391368D01*
X162609433Y-72615996D01*
X162716657Y-72826433D01*
X162855483Y-73017510D01*
X163022490Y-73184517D01*
X163057127Y-73209683D01*
X163099792Y-73265013D01*
X163105771Y-73334626D01*
X163073165Y-73396421D01*
X163057130Y-73410315D01*
X163039365Y-73423222D01*
X163022488Y-73435484D01*
X162855485Y-73602487D01*
X162855485Y-73602488D01*
X162855483Y-73602490D01*
X162795862Y-73684550D01*
X162716657Y-73793566D01*
X162609433Y-74004003D01*
X162536446Y-74228631D01*
X162499500Y-74461902D01*
X162499500Y-74698097D01*
X162536446Y-74931368D01*
X162609433Y-75155996D01*
X162716657Y-75366433D01*
X162855483Y-75557510D01*
X163022490Y-75724517D01*
X163057127Y-75749683D01*
X163099792Y-75805013D01*
X163105771Y-75874626D01*
X163073165Y-75936421D01*
X163057130Y-75950315D01*
X163056876Y-75950500D01*
X163022488Y-75975484D01*
X162855485Y-76142487D01*
X162855485Y-76142488D01*
X162855483Y-76142490D01*
X162795862Y-76224550D01*
X162716657Y-76333566D01*
X162609433Y-76544003D01*
X162536446Y-76768631D01*
X162499500Y-77001902D01*
X162499500Y-77238097D01*
X162536446Y-77471368D01*
X162609433Y-77695996D01*
X162716657Y-77906433D01*
X162855483Y-78097510D01*
X163022490Y-78264517D01*
X163057127Y-78289683D01*
X163099792Y-78345013D01*
X163105771Y-78414626D01*
X163073165Y-78476421D01*
X163057130Y-78490315D01*
X163039365Y-78503222D01*
X163022488Y-78515484D01*
X162855485Y-78682487D01*
X162855485Y-78682488D01*
X162855483Y-78682490D01*
X162795862Y-78764550D01*
X162716657Y-78873566D01*
X162609433Y-79084003D01*
X162536446Y-79308631D01*
X162499500Y-79541902D01*
X162499500Y-79778097D01*
X162536446Y-80011368D01*
X162609433Y-80235996D01*
X162716657Y-80446433D01*
X162855483Y-80637510D01*
X163022490Y-80804517D01*
X163057127Y-80829683D01*
X163099792Y-80885013D01*
X163105771Y-80954626D01*
X163073165Y-81016421D01*
X163057130Y-81030315D01*
X163039365Y-81043222D01*
X163022488Y-81055484D01*
X162855485Y-81222487D01*
X162855485Y-81222488D01*
X162855483Y-81222490D01*
X162854791Y-81223443D01*
X162716657Y-81413566D01*
X162609433Y-81624003D01*
X162536446Y-81848631D01*
X162499500Y-82081902D01*
X162499500Y-82318097D01*
X162536446Y-82551368D01*
X162609433Y-82775996D01*
X162710832Y-82975000D01*
X162716657Y-82986433D01*
X162855483Y-83177510D01*
X163022490Y-83344517D01*
X163057127Y-83369683D01*
X163099792Y-83425013D01*
X163105771Y-83494626D01*
X163073165Y-83556421D01*
X163057130Y-83570315D01*
X163039365Y-83583222D01*
X163022488Y-83595484D01*
X162855485Y-83762487D01*
X162855485Y-83762488D01*
X162855483Y-83762490D01*
X162795862Y-83844550D01*
X162716657Y-83953566D01*
X162609433Y-84164003D01*
X162536446Y-84388631D01*
X162499500Y-84621902D01*
X162499500Y-84858097D01*
X162536446Y-85091368D01*
X162609433Y-85315996D01*
X162716657Y-85526433D01*
X162855483Y-85717510D01*
X163022490Y-85884517D01*
X163057127Y-85909683D01*
X163099792Y-85965013D01*
X163105771Y-86034626D01*
X163073165Y-86096421D01*
X163057130Y-86110315D01*
X163039365Y-86123222D01*
X163022488Y-86135484D01*
X162855485Y-86302487D01*
X162855485Y-86302488D01*
X162855483Y-86302490D01*
X162795862Y-86384550D01*
X162716657Y-86493566D01*
X162609433Y-86704003D01*
X162536446Y-86928631D01*
X162499500Y-87161902D01*
X162499500Y-87398097D01*
X162536446Y-87631368D01*
X162609433Y-87855996D01*
X162716657Y-88066433D01*
X162855483Y-88257510D01*
X163022490Y-88424517D01*
X163057127Y-88449683D01*
X163099792Y-88505013D01*
X163105771Y-88574626D01*
X163073165Y-88636421D01*
X163057130Y-88650315D01*
X163039365Y-88663222D01*
X163022488Y-88675484D01*
X162855485Y-88842487D01*
X162855485Y-88842488D01*
X162855483Y-88842490D01*
X162795862Y-88924550D01*
X162716657Y-89033566D01*
X162609433Y-89244003D01*
X162536446Y-89468631D01*
X162499500Y-89701902D01*
X162499500Y-89938097D01*
X162536446Y-90171368D01*
X162609433Y-90395996D01*
X162716657Y-90606433D01*
X162855483Y-90797510D01*
X163022490Y-90964517D01*
X163213567Y-91103343D01*
X163312991Y-91154002D01*
X163424003Y-91210566D01*
X163424005Y-91210566D01*
X163424008Y-91210568D01*
X163568662Y-91257569D01*
X163626337Y-91297007D01*
X163653535Y-91361366D01*
X163641620Y-91430212D01*
X163594376Y-91481688D01*
X163530343Y-91499500D01*
X163415258Y-91499500D01*
X163199474Y-91527910D01*
X163187762Y-91529452D01*
X163094076Y-91554554D01*
X162966112Y-91588842D01*
X162754123Y-91676650D01*
X162754109Y-91676657D01*
X162555382Y-91791392D01*
X162373338Y-91931081D01*
X162211081Y-92093338D01*
X162071392Y-92275382D01*
X161956657Y-92474109D01*
X161956650Y-92474123D01*
X161868842Y-92686112D01*
X161809453Y-92907759D01*
X161809451Y-92907770D01*
X161779500Y-93135258D01*
X160080000Y-93135258D01*
X160080000Y-88760000D01*
X142390000Y-88760000D01*
X142390000Y-95250000D01*
X100500500Y-95250000D01*
X100500500Y-74385837D01*
X103899500Y-74385837D01*
X103899500Y-74614162D01*
X103935215Y-74839660D01*
X104005770Y-75056803D01*
X104056310Y-75155992D01*
X104109421Y-75260228D01*
X104243621Y-75444937D01*
X104405063Y-75606379D01*
X104589772Y-75740579D01*
X104685884Y-75789550D01*
X104793196Y-75844229D01*
X104793198Y-75844229D01*
X104793201Y-75844231D01*
X104886747Y-75874626D01*
X105010339Y-75914784D01*
X105235838Y-75950500D01*
X105235843Y-75950500D01*
X106764162Y-75950500D01*
X106989660Y-75914784D01*
X107206799Y-75844231D01*
X107410228Y-75740579D01*
X107594937Y-75606379D01*
X107756379Y-75444937D01*
X107890579Y-75260228D01*
X107994231Y-75056799D01*
X108064784Y-74839660D01*
X108100500Y-74614162D01*
X108100500Y-74385837D01*
X116399500Y-74385837D01*
X116399500Y-74614162D01*
X116435215Y-74839660D01*
X116505770Y-75056803D01*
X116556310Y-75155992D01*
X116609421Y-75260228D01*
X116743621Y-75444937D01*
X116905063Y-75606379D01*
X117089772Y-75740579D01*
X117185884Y-75789550D01*
X117293196Y-75844229D01*
X117293198Y-75844229D01*
X117293201Y-75844231D01*
X117386747Y-75874626D01*
X117510339Y-75914784D01*
X117735838Y-75950500D01*
X117735843Y-75950500D01*
X119264162Y-75950500D01*
X119489660Y-75914784D01*
X119706799Y-75844231D01*
X119910228Y-75740579D01*
X120094937Y-75606379D01*
X120256379Y-75444937D01*
X120390579Y-75260228D01*
X120494231Y-75056799D01*
X120564784Y-74839660D01*
X120600500Y-74614162D01*
X120600500Y-74385837D01*
X120564784Y-74160339D01*
X120494229Y-73943196D01*
X120390578Y-73739771D01*
X120290837Y-73602490D01*
X120256379Y-73555063D01*
X120094937Y-73393621D01*
X119910228Y-73259421D01*
X119706803Y-73155770D01*
X119489660Y-73085215D01*
X119264162Y-73049500D01*
X119264157Y-73049500D01*
X117735843Y-73049500D01*
X117735838Y-73049500D01*
X117510339Y-73085215D01*
X117293196Y-73155770D01*
X117089771Y-73259421D01*
X116905061Y-73393622D01*
X116743622Y-73555061D01*
X116609421Y-73739771D01*
X116505770Y-73943196D01*
X116435215Y-74160339D01*
X116399500Y-74385837D01*
X108100500Y-74385837D01*
X108064784Y-74160339D01*
X107994229Y-73943196D01*
X107890578Y-73739771D01*
X107790837Y-73602490D01*
X107756379Y-73555063D01*
X107594937Y-73393621D01*
X107410228Y-73259421D01*
X107206803Y-73155770D01*
X106989660Y-73085215D01*
X106764162Y-73049500D01*
X106764157Y-73049500D01*
X105235843Y-73049500D01*
X105235838Y-73049500D01*
X105010339Y-73085215D01*
X104793196Y-73155770D01*
X104589771Y-73259421D01*
X104405061Y-73393622D01*
X104243622Y-73555061D01*
X104109421Y-73739771D01*
X104005770Y-73943196D01*
X103935215Y-74160339D01*
X103899500Y-74385837D01*
X100500500Y-74385837D01*
X100500500Y-69250000D01*
X103921522Y-69250000D01*
X105399999Y-69250000D01*
X105374979Y-69310402D01*
X105350000Y-69435981D01*
X105350000Y-69564019D01*
X105374979Y-69689598D01*
X105399999Y-69750000D01*
X103921522Y-69750000D01*
X103935704Y-69839544D01*
X104006230Y-70056604D01*
X104109849Y-70259966D01*
X104244004Y-70444614D01*
X104405385Y-70605995D01*
X104590033Y-70740150D01*
X104793395Y-70843769D01*
X105010455Y-70914295D01*
X105235884Y-70950000D01*
X105750000Y-70950000D01*
X105750000Y-70100001D01*
X105810402Y-70125021D01*
X105935981Y-70150000D01*
X106064019Y-70150000D01*
X106189598Y-70125021D01*
X106250000Y-70100001D01*
X106250000Y-70950000D01*
X106764116Y-70950000D01*
X106989544Y-70914295D01*
X107206604Y-70843769D01*
X107409966Y-70740150D01*
X107594614Y-70605995D01*
X107755995Y-70444614D01*
X107890150Y-70259966D01*
X107993769Y-70056604D01*
X108064295Y-69839544D01*
X108078478Y-69750000D01*
X106600001Y-69750000D01*
X106625021Y-69689598D01*
X106650000Y-69564019D01*
X106650000Y-69435981D01*
X106625021Y-69310402D01*
X106600001Y-69250000D01*
X108078478Y-69250000D01*
X116421522Y-69250000D01*
X117899999Y-69250000D01*
X117874979Y-69310402D01*
X117850000Y-69435981D01*
X117850000Y-69564019D01*
X117874979Y-69689598D01*
X117899999Y-69750000D01*
X116421522Y-69750000D01*
X116435704Y-69839544D01*
X116506230Y-70056604D01*
X116609849Y-70259966D01*
X116744004Y-70444614D01*
X116905385Y-70605995D01*
X117090033Y-70740150D01*
X117293395Y-70843769D01*
X117510455Y-70914295D01*
X117735884Y-70950000D01*
X118250000Y-70950000D01*
X118250000Y-70100001D01*
X118310402Y-70125021D01*
X118435981Y-70150000D01*
X118564019Y-70150000D01*
X118689598Y-70125021D01*
X118750000Y-70100001D01*
X118750000Y-70950000D01*
X119264116Y-70950000D01*
X119489544Y-70914295D01*
X119706604Y-70843769D01*
X119909966Y-70740150D01*
X120094614Y-70605995D01*
X120255995Y-70444614D01*
X120390150Y-70259966D01*
X120493769Y-70056604D01*
X120564295Y-69839544D01*
X120578478Y-69750000D01*
X119100001Y-69750000D01*
X119125021Y-69689598D01*
X119150000Y-69564019D01*
X119150000Y-69435981D01*
X119125021Y-69310402D01*
X119100001Y-69250000D01*
X120578478Y-69250000D01*
X120564295Y-69160455D01*
X120493769Y-68943395D01*
X120390150Y-68740033D01*
X120255995Y-68555385D01*
X120094614Y-68394004D01*
X119909966Y-68259849D01*
X119706604Y-68156230D01*
X119489544Y-68085704D01*
X119264116Y-68050000D01*
X118750000Y-68050000D01*
X118750000Y-68899998D01*
X118689598Y-68874979D01*
X118564019Y-68850000D01*
X118435981Y-68850000D01*
X118310402Y-68874979D01*
X118250000Y-68899998D01*
X118250000Y-68050000D01*
X117735884Y-68050000D01*
X117510455Y-68085704D01*
X117293395Y-68156230D01*
X117090033Y-68259849D01*
X116905385Y-68394004D01*
X116744004Y-68555385D01*
X116609849Y-68740033D01*
X116506230Y-68943395D01*
X116435704Y-69160455D01*
X116421522Y-69250000D01*
X108078478Y-69250000D01*
X108064295Y-69160455D01*
X107993769Y-68943395D01*
X107890150Y-68740033D01*
X107755995Y-68555385D01*
X107594614Y-68394004D01*
X107409966Y-68259849D01*
X107206604Y-68156230D01*
X106989544Y-68085704D01*
X106764116Y-68050000D01*
X106250000Y-68050000D01*
X106250000Y-68899998D01*
X106189598Y-68874979D01*
X106064019Y-68850000D01*
X105935981Y-68850000D01*
X105810402Y-68874979D01*
X105750000Y-68899998D01*
X105750000Y-68050000D01*
X105235884Y-68050000D01*
X105010455Y-68085704D01*
X104793395Y-68156230D01*
X104590033Y-68259849D01*
X104405385Y-68394004D01*
X104244004Y-68555385D01*
X104109849Y-68740033D01*
X104006230Y-68943395D01*
X103935704Y-69160455D01*
X103921522Y-69250000D01*
X100500500Y-69250000D01*
X100500500Y-53885837D01*
X104399500Y-53885837D01*
X104399500Y-54114162D01*
X104435215Y-54339660D01*
X104505770Y-54556803D01*
X104556417Y-54656202D01*
X104609421Y-54760228D01*
X104743621Y-54944937D01*
X104905063Y-55106379D01*
X105089772Y-55240579D01*
X105140121Y-55266233D01*
X105293196Y-55344229D01*
X105293198Y-55344229D01*
X105293201Y-55344231D01*
X105364760Y-55367482D01*
X105510339Y-55414784D01*
X105735838Y-55450500D01*
X105735843Y-55450500D01*
X107264162Y-55450500D01*
X107489660Y-55414784D01*
X107521258Y-55404517D01*
X107706799Y-55344231D01*
X107910228Y-55240579D01*
X108094937Y-55106379D01*
X108256379Y-54944937D01*
X108390579Y-54760228D01*
X108494231Y-54556799D01*
X108564784Y-54339660D01*
X108596106Y-54141902D01*
X108600500Y-54114162D01*
X108600500Y-53885837D01*
X116899500Y-53885837D01*
X116899500Y-54114162D01*
X116935215Y-54339660D01*
X117005770Y-54556803D01*
X117056417Y-54656202D01*
X117109421Y-54760228D01*
X117243621Y-54944937D01*
X117405063Y-55106379D01*
X117589772Y-55240579D01*
X117640121Y-55266233D01*
X117793196Y-55344229D01*
X117793198Y-55344229D01*
X117793201Y-55344231D01*
X117864760Y-55367482D01*
X118010339Y-55414784D01*
X118235838Y-55450500D01*
X118235843Y-55450500D01*
X119764162Y-55450500D01*
X119989660Y-55414784D01*
X120021258Y-55404517D01*
X120206799Y-55344231D01*
X120410228Y-55240579D01*
X120594937Y-55106379D01*
X120756379Y-54944937D01*
X120890579Y-54760228D01*
X120994231Y-54556799D01*
X121064784Y-54339660D01*
X121096106Y-54141902D01*
X121100500Y-54114162D01*
X121100500Y-53885837D01*
X121064784Y-53660339D01*
X121032049Y-53559592D01*
X120994231Y-53443201D01*
X120994229Y-53443198D01*
X120994229Y-53443196D01*
X120903485Y-53265101D01*
X120903484Y-53265099D01*
X120890580Y-53239774D01*
X120870499Y-53212135D01*
X137099500Y-53212135D01*
X137099500Y-55307870D01*
X137099501Y-55307876D01*
X137105908Y-55367483D01*
X137156202Y-55502328D01*
X137156206Y-55502335D01*
X137242452Y-55617544D01*
X137242455Y-55617547D01*
X137357664Y-55703793D01*
X137365454Y-55708047D01*
X137363725Y-55711211D01*
X137405915Y-55742734D01*
X137430393Y-55808175D01*
X137415604Y-55876462D01*
X137407036Y-55890021D01*
X137317084Y-56013829D01*
X137209897Y-56224197D01*
X137136934Y-56448752D01*
X137100000Y-56681947D01*
X137100000Y-56918052D01*
X137136934Y-57151247D01*
X137209897Y-57375802D01*
X137317087Y-57586174D01*
X137377338Y-57669104D01*
X137377340Y-57669105D01*
X138108871Y-56937574D01*
X138124755Y-56996853D01*
X138191898Y-57113147D01*
X138286853Y-57208102D01*
X138403147Y-57275245D01*
X138462425Y-57291128D01*
X137730893Y-58022658D01*
X137732448Y-58042405D01*
X137718084Y-58110783D01*
X137681717Y-58152451D01*
X137622490Y-58195482D01*
X137455485Y-58362487D01*
X137455485Y-58362488D01*
X137455483Y-58362490D01*
X137395862Y-58444550D01*
X137316657Y-58553566D01*
X137209433Y-58764003D01*
X137136446Y-58988631D01*
X137099500Y-59221902D01*
X137099500Y-59458097D01*
X137136446Y-59691368D01*
X137209433Y-59915996D01*
X137316657Y-60126433D01*
X137455483Y-60317510D01*
X137622490Y-60484517D01*
X137657127Y-60509683D01*
X137699792Y-60565013D01*
X137705771Y-60634626D01*
X137673165Y-60696421D01*
X137657130Y-60710315D01*
X137639365Y-60723222D01*
X137622488Y-60735484D01*
X137455485Y-60902487D01*
X137455485Y-60902488D01*
X137455483Y-60902490D01*
X137410297Y-60964683D01*
X137316657Y-61093566D01*
X137209433Y-61304003D01*
X137136446Y-61528631D01*
X137099500Y-61761902D01*
X137099500Y-61998097D01*
X137136446Y-62231368D01*
X137209433Y-62455996D01*
X137316657Y-62666433D01*
X137455483Y-62857510D01*
X137622490Y-63024517D01*
X137657127Y-63049683D01*
X137699792Y-63105013D01*
X137705771Y-63174626D01*
X137673165Y-63236421D01*
X137657130Y-63250315D01*
X137639365Y-63263222D01*
X137622488Y-63275484D01*
X137455485Y-63442487D01*
X137455485Y-63442488D01*
X137455483Y-63442490D01*
X137395862Y-63524550D01*
X137316657Y-63633566D01*
X137209433Y-63844003D01*
X137136446Y-64068631D01*
X137099500Y-64301902D01*
X137099500Y-64538097D01*
X137136446Y-64771368D01*
X137209433Y-64995996D01*
X137316657Y-65206433D01*
X137455483Y-65397510D01*
X137622490Y-65564517D01*
X137657127Y-65589683D01*
X137699792Y-65645013D01*
X137705771Y-65714626D01*
X137673165Y-65776421D01*
X137657130Y-65790315D01*
X137639365Y-65803222D01*
X137622488Y-65815484D01*
X137455485Y-65982487D01*
X137455485Y-65982488D01*
X137455483Y-65982490D01*
X137395862Y-66064550D01*
X137316657Y-66173566D01*
X137209433Y-66384003D01*
X137136446Y-66608631D01*
X137099500Y-66841902D01*
X137099500Y-67078097D01*
X137136446Y-67311368D01*
X137209433Y-67535996D01*
X137316657Y-67746433D01*
X137455483Y-67937510D01*
X137622490Y-68104517D01*
X137657127Y-68129683D01*
X137699792Y-68185013D01*
X137705771Y-68254626D01*
X137673165Y-68316421D01*
X137657130Y-68330315D01*
X137639365Y-68343222D01*
X137622488Y-68355484D01*
X137455485Y-68522487D01*
X137455485Y-68522488D01*
X137455483Y-68522490D01*
X137395862Y-68604550D01*
X137316657Y-68713566D01*
X137209433Y-68924003D01*
X137136446Y-69148631D01*
X137099500Y-69381902D01*
X137099500Y-69618097D01*
X137136446Y-69851368D01*
X137209433Y-70075996D01*
X137303171Y-70259966D01*
X137316657Y-70286433D01*
X137455483Y-70477510D01*
X137622490Y-70644517D01*
X137657127Y-70669683D01*
X137699792Y-70725013D01*
X137705771Y-70794626D01*
X137673165Y-70856421D01*
X137657130Y-70870315D01*
X137639365Y-70883222D01*
X137622488Y-70895484D01*
X137455485Y-71062487D01*
X137455485Y-71062488D01*
X137455483Y-71062490D01*
X137395862Y-71144550D01*
X137316657Y-71253566D01*
X137209433Y-71464003D01*
X137136446Y-71688631D01*
X137099500Y-71921902D01*
X137099500Y-72158097D01*
X137136446Y-72391368D01*
X137209433Y-72615996D01*
X137316657Y-72826433D01*
X137455483Y-73017510D01*
X137622490Y-73184517D01*
X137657127Y-73209683D01*
X137699792Y-73265013D01*
X137705771Y-73334626D01*
X137673165Y-73396421D01*
X137657130Y-73410315D01*
X137639365Y-73423222D01*
X137622488Y-73435484D01*
X137455485Y-73602487D01*
X137455485Y-73602488D01*
X137455483Y-73602490D01*
X137395862Y-73684550D01*
X137316657Y-73793566D01*
X137209433Y-74004003D01*
X137136446Y-74228631D01*
X137099500Y-74461902D01*
X137099500Y-74698097D01*
X137136446Y-74931368D01*
X137209433Y-75155996D01*
X137316657Y-75366433D01*
X137455483Y-75557510D01*
X137622490Y-75724517D01*
X137657127Y-75749683D01*
X137699792Y-75805013D01*
X137705771Y-75874626D01*
X137673165Y-75936421D01*
X137657130Y-75950315D01*
X137656876Y-75950500D01*
X137622488Y-75975484D01*
X137455485Y-76142487D01*
X137455485Y-76142488D01*
X137455483Y-76142490D01*
X137395862Y-76224550D01*
X137316657Y-76333566D01*
X137209433Y-76544003D01*
X137136446Y-76768631D01*
X137099500Y-77001902D01*
X137099500Y-77238097D01*
X137136446Y-77471368D01*
X137209433Y-77695996D01*
X137316657Y-77906433D01*
X137455483Y-78097510D01*
X137622490Y-78264517D01*
X137657127Y-78289683D01*
X137699792Y-78345013D01*
X137705771Y-78414626D01*
X137673165Y-78476421D01*
X137657130Y-78490315D01*
X137639365Y-78503222D01*
X137622488Y-78515484D01*
X137455485Y-78682487D01*
X137455485Y-78682488D01*
X137455483Y-78682490D01*
X137395862Y-78764550D01*
X137316657Y-78873566D01*
X137209433Y-79084003D01*
X137136446Y-79308631D01*
X137099500Y-79541902D01*
X137099500Y-79778097D01*
X137136446Y-80011368D01*
X137209433Y-80235996D01*
X137316657Y-80446433D01*
X137455483Y-80637510D01*
X137622490Y-80804517D01*
X137657127Y-80829683D01*
X137699792Y-80885013D01*
X137705771Y-80954626D01*
X137673165Y-81016421D01*
X137657130Y-81030315D01*
X137639365Y-81043222D01*
X137622488Y-81055484D01*
X137455485Y-81222487D01*
X137455485Y-81222488D01*
X137455483Y-81222490D01*
X137454791Y-81223443D01*
X137316657Y-81413566D01*
X137209433Y-81624003D01*
X137136446Y-81848631D01*
X137099500Y-82081902D01*
X137099500Y-82318097D01*
X137136446Y-82551368D01*
X137209433Y-82775996D01*
X137310832Y-82975000D01*
X137316657Y-82986433D01*
X137455483Y-83177510D01*
X137622490Y-83344517D01*
X137657127Y-83369683D01*
X137699792Y-83425013D01*
X137705771Y-83494626D01*
X137673165Y-83556421D01*
X137657130Y-83570315D01*
X137639365Y-83583222D01*
X137622488Y-83595484D01*
X137455485Y-83762487D01*
X137455485Y-83762488D01*
X137455483Y-83762490D01*
X137395862Y-83844550D01*
X137316657Y-83953566D01*
X137209433Y-84164003D01*
X137136446Y-84388631D01*
X137099500Y-84621902D01*
X137099500Y-84858097D01*
X137136446Y-85091368D01*
X137209433Y-85315996D01*
X137316657Y-85526433D01*
X137455483Y-85717510D01*
X137622490Y-85884517D01*
X137657127Y-85909683D01*
X137699792Y-85965013D01*
X137705771Y-86034626D01*
X137673165Y-86096421D01*
X137657130Y-86110315D01*
X137639365Y-86123222D01*
X137622488Y-86135484D01*
X137455485Y-86302487D01*
X137455485Y-86302488D01*
X137455483Y-86302490D01*
X137395862Y-86384550D01*
X137316657Y-86493566D01*
X137209433Y-86704003D01*
X137136446Y-86928631D01*
X137099500Y-87161902D01*
X137099500Y-87398097D01*
X137136446Y-87631368D01*
X137209433Y-87855996D01*
X137316657Y-88066433D01*
X137455483Y-88257510D01*
X137622490Y-88424517D01*
X137657127Y-88449683D01*
X137699792Y-88505013D01*
X137705771Y-88574626D01*
X137673165Y-88636421D01*
X137657130Y-88650315D01*
X137639365Y-88663222D01*
X137622488Y-88675484D01*
X137455485Y-88842487D01*
X137455485Y-88842488D01*
X137455483Y-88842490D01*
X137395862Y-88924550D01*
X137316657Y-89033566D01*
X137209433Y-89244003D01*
X137136446Y-89468631D01*
X137099500Y-89701902D01*
X137099500Y-89938097D01*
X137136446Y-90171368D01*
X137209433Y-90395996D01*
X137316657Y-90606433D01*
X137455483Y-90797510D01*
X137622490Y-90964517D01*
X137813567Y-91103343D01*
X137912991Y-91154002D01*
X138024003Y-91210566D01*
X138024005Y-91210566D01*
X138024008Y-91210568D01*
X138144412Y-91249689D01*
X138248631Y-91283553D01*
X138481903Y-91320500D01*
X138515708Y-91320500D01*
X138582747Y-91340185D01*
X138628502Y-91392989D01*
X138638446Y-91462147D01*
X138609421Y-91525703D01*
X138550643Y-91563477D01*
X138547835Y-91564265D01*
X138490418Y-91579649D01*
X138456112Y-91588842D01*
X138244123Y-91676650D01*
X138244109Y-91676657D01*
X138045382Y-91791392D01*
X137863338Y-91931081D01*
X137701081Y-92093338D01*
X137561392Y-92275382D01*
X137446657Y-92474109D01*
X137446650Y-92474123D01*
X137358842Y-92686112D01*
X137299453Y-92907759D01*
X137299451Y-92907770D01*
X137269500Y-93135258D01*
X137269500Y-93364741D01*
X137294446Y-93554215D01*
X137299452Y-93592238D01*
X137299453Y-93592240D01*
X137358842Y-93813887D01*
X137446650Y-94025876D01*
X137446657Y-94025890D01*
X137561392Y-94224617D01*
X137701081Y-94406661D01*
X137701089Y-94406670D01*
X137863330Y-94568911D01*
X137863338Y-94568918D01*
X138045382Y-94708607D01*
X138045385Y-94708608D01*
X138045388Y-94708611D01*
X138244112Y-94823344D01*
X138244117Y-94823346D01*
X138244123Y-94823349D01*
X138335480Y-94861190D01*
X138456113Y-94911158D01*
X138677762Y-94970548D01*
X138905266Y-95000500D01*
X138905273Y-95000500D01*
X139134727Y-95000500D01*
X139134734Y-95000500D01*
X139362238Y-94970548D01*
X139583887Y-94911158D01*
X139795888Y-94823344D01*
X139994612Y-94708611D01*
X140176661Y-94568919D01*
X140176665Y-94568914D01*
X140176670Y-94568911D01*
X140338911Y-94406670D01*
X140338914Y-94406665D01*
X140338919Y-94406661D01*
X140478611Y-94224612D01*
X140593344Y-94025888D01*
X140681158Y-93813887D01*
X140740548Y-93592238D01*
X140770500Y-93364734D01*
X140770500Y-93135266D01*
X140740548Y-92907762D01*
X140681158Y-92686113D01*
X140593344Y-92474112D01*
X140478611Y-92275388D01*
X140478608Y-92275385D01*
X140478607Y-92275382D01*
X140338918Y-92093338D01*
X140338911Y-92093330D01*
X140176670Y-91931089D01*
X140176661Y-91931081D01*
X139994617Y-91791392D01*
X139795890Y-91676657D01*
X139795876Y-91676650D01*
X139583887Y-91588842D01*
X139362238Y-91529452D01*
X139324215Y-91524446D01*
X139134741Y-91499500D01*
X139134734Y-91499500D01*
X139069657Y-91499500D01*
X139002618Y-91479815D01*
X138956863Y-91427011D01*
X138946919Y-91357853D01*
X138975944Y-91294297D01*
X139031338Y-91257569D01*
X139175992Y-91210568D01*
X139386433Y-91103343D01*
X139577510Y-90964517D01*
X139744517Y-90797510D01*
X139883343Y-90606433D01*
X139990568Y-90395992D01*
X140063553Y-90171368D01*
X140100500Y-89938097D01*
X140100500Y-89701902D01*
X140063553Y-89468631D01*
X139990566Y-89244003D01*
X139883342Y-89033566D01*
X139744517Y-88842490D01*
X139577510Y-88675483D01*
X139536755Y-88645872D01*
X139531230Y-88640725D01*
X139517111Y-88616911D01*
X139500207Y-88594989D01*
X139499544Y-88587279D01*
X139495599Y-88580624D01*
X139496596Y-88552954D01*
X139494228Y-88525375D01*
X139497838Y-88518532D01*
X139498117Y-88510799D01*
X139513914Y-88488063D01*
X139526833Y-88463580D01*
X139537121Y-88454665D01*
X139537986Y-88453421D01*
X139539080Y-88452968D01*
X139542873Y-88449682D01*
X139577510Y-88424517D01*
X139744517Y-88257510D01*
X139883343Y-88066433D01*
X139990568Y-87855992D01*
X140063553Y-87631368D01*
X140100500Y-87398097D01*
X140100500Y-87161902D01*
X140063553Y-86928631D01*
X139990566Y-86704003D01*
X139883342Y-86493566D01*
X139744517Y-86302490D01*
X139577510Y-86135483D01*
X139542872Y-86110317D01*
X139500207Y-86054989D01*
X139494228Y-85985375D01*
X139526833Y-85923580D01*
X139542873Y-85909682D01*
X139577510Y-85884517D01*
X139744517Y-85717510D01*
X139883343Y-85526433D01*
X139990568Y-85315992D01*
X140063553Y-85091368D01*
X140100500Y-84858097D01*
X140100500Y-84621902D01*
X140063553Y-84388631D01*
X139990566Y-84164003D01*
X139883342Y-83953566D01*
X139744517Y-83762490D01*
X139577510Y-83595483D01*
X139542872Y-83570317D01*
X139500207Y-83514989D01*
X139494228Y-83445375D01*
X139526833Y-83383580D01*
X139542873Y-83369682D01*
X139562836Y-83355178D01*
X139577510Y-83344517D01*
X139744517Y-83177510D01*
X139883343Y-82986433D01*
X139990568Y-82775992D01*
X140063553Y-82551368D01*
X140065223Y-82540826D01*
X140100500Y-82318097D01*
X140100500Y-82081902D01*
X140063553Y-81848631D01*
X139990566Y-81624003D01*
X139883342Y-81413566D01*
X139861066Y-81382906D01*
X139744517Y-81222490D01*
X139577510Y-81055483D01*
X139542872Y-81030317D01*
X139500207Y-80974989D01*
X139494228Y-80905375D01*
X139526833Y-80843580D01*
X139542873Y-80829682D01*
X139577510Y-80804517D01*
X139744517Y-80637510D01*
X139883343Y-80446433D01*
X139990568Y-80235992D01*
X140063553Y-80011368D01*
X140100500Y-79778097D01*
X140100500Y-79541902D01*
X140063553Y-79308631D01*
X139990566Y-79084003D01*
X139883342Y-78873566D01*
X139744517Y-78682490D01*
X139577510Y-78515483D01*
X139542872Y-78490317D01*
X139500207Y-78434989D01*
X139494228Y-78365375D01*
X139526833Y-78303580D01*
X139542873Y-78289682D01*
X139577510Y-78264517D01*
X139744517Y-78097510D01*
X139883343Y-77906433D01*
X139990568Y-77695992D01*
X140063553Y-77471368D01*
X140100500Y-77238097D01*
X140100500Y-77001902D01*
X140063553Y-76768631D01*
X139990566Y-76544003D01*
X139883342Y-76333566D01*
X139744517Y-76142490D01*
X139577510Y-75975483D01*
X139542872Y-75950317D01*
X139500207Y-75894989D01*
X139494228Y-75825375D01*
X139526833Y-75763580D01*
X139542873Y-75749682D01*
X139577510Y-75724517D01*
X139744517Y-75557510D01*
X139883343Y-75366433D01*
X139990568Y-75155992D01*
X140063553Y-74931368D01*
X140078078Y-74839660D01*
X140100500Y-74698097D01*
X140100500Y-74461902D01*
X140063553Y-74228631D01*
X139990566Y-74004003D01*
X139883342Y-73793566D01*
X139744517Y-73602490D01*
X139577510Y-73435483D01*
X139542872Y-73410317D01*
X139500207Y-73354989D01*
X139494228Y-73285375D01*
X139526833Y-73223580D01*
X139542873Y-73209682D01*
X139577510Y-73184517D01*
X139744517Y-73017510D01*
X139883343Y-72826433D01*
X139990568Y-72615992D01*
X140063553Y-72391368D01*
X140100500Y-72158097D01*
X140100500Y-71921902D01*
X140063553Y-71688631D01*
X139990566Y-71464003D01*
X139883342Y-71253566D01*
X139744517Y-71062490D01*
X139577510Y-70895483D01*
X139542872Y-70870317D01*
X139500207Y-70814989D01*
X139494228Y-70745375D01*
X139526833Y-70683580D01*
X139542873Y-70669682D01*
X139577510Y-70644517D01*
X139744517Y-70477510D01*
X139883343Y-70286433D01*
X139990568Y-70075992D01*
X140063553Y-69851368D01*
X140089175Y-69689598D01*
X140100500Y-69618097D01*
X140100500Y-69381902D01*
X140063553Y-69148631D01*
X139990566Y-68924003D01*
X139883342Y-68713566D01*
X139744517Y-68522490D01*
X139577510Y-68355483D01*
X139542872Y-68330317D01*
X139500207Y-68274989D01*
X139494228Y-68205375D01*
X139526833Y-68143580D01*
X139542873Y-68129682D01*
X139577510Y-68104517D01*
X139744517Y-67937510D01*
X139883343Y-67746433D01*
X139990568Y-67535992D01*
X140063553Y-67311368D01*
X140100500Y-67078097D01*
X140100500Y-66841902D01*
X140063553Y-66608631D01*
X139990566Y-66384003D01*
X139883342Y-66173566D01*
X139744517Y-65982490D01*
X139577510Y-65815483D01*
X139542872Y-65790317D01*
X139500207Y-65734989D01*
X139494228Y-65665375D01*
X139526833Y-65603580D01*
X139542873Y-65589682D01*
X139577510Y-65564517D01*
X139744517Y-65397510D01*
X139883343Y-65206433D01*
X139990568Y-64995992D01*
X140063553Y-64771368D01*
X140100500Y-64538097D01*
X140100500Y-64301902D01*
X140063553Y-64068631D01*
X139990566Y-63844003D01*
X139883342Y-63633566D01*
X139744517Y-63442490D01*
X139577510Y-63275483D01*
X139542872Y-63250317D01*
X139500207Y-63194989D01*
X139494228Y-63125375D01*
X139526833Y-63063580D01*
X139542873Y-63049682D01*
X139577510Y-63024517D01*
X139744517Y-62857510D01*
X139883343Y-62666433D01*
X139990568Y-62455992D01*
X140063553Y-62231368D01*
X140100500Y-61998097D01*
X140100500Y-61761902D01*
X140063553Y-61528631D01*
X139990566Y-61304003D01*
X139883342Y-61093566D01*
X139744517Y-60902490D01*
X139577510Y-60735483D01*
X139542872Y-60710317D01*
X139500207Y-60654989D01*
X139494228Y-60585375D01*
X139526833Y-60523580D01*
X139542873Y-60509682D01*
X139577510Y-60484517D01*
X139744517Y-60317510D01*
X139883343Y-60126433D01*
X139990568Y-59915992D01*
X140063553Y-59691368D01*
X140100500Y-59458097D01*
X140100500Y-59221902D01*
X140063553Y-58988631D01*
X139990566Y-58764003D01*
X139883342Y-58553566D01*
X139744517Y-58362490D01*
X139577510Y-58195483D01*
X139518282Y-58152451D01*
X139475617Y-58097122D01*
X139467550Y-58042404D01*
X139469104Y-58022657D01*
X138737574Y-57291128D01*
X138796853Y-57275245D01*
X138913147Y-57208102D01*
X139008102Y-57113147D01*
X139075245Y-56996853D01*
X139091128Y-56937575D01*
X139822658Y-57669105D01*
X139822658Y-57669104D01*
X139882914Y-57586169D01*
X139882918Y-57586163D01*
X139990102Y-57375802D01*
X140063065Y-57151247D01*
X140100000Y-56918052D01*
X140100000Y-56681947D01*
X140063065Y-56448752D01*
X139990102Y-56224197D01*
X139882914Y-56013828D01*
X139792964Y-55890023D01*
X139769484Y-55824216D01*
X139785309Y-55756162D01*
X139834640Y-55708220D01*
X139834546Y-55708047D01*
X139835169Y-55707706D01*
X139835415Y-55707468D01*
X139836480Y-55706990D01*
X139842326Y-55703797D01*
X139842331Y-55703796D01*
X139957546Y-55617546D01*
X140043796Y-55502331D01*
X140094091Y-55367483D01*
X140100500Y-55307873D01*
X140100499Y-53212128D01*
X140094091Y-53152517D01*
X140080278Y-53115483D01*
X140043797Y-53017671D01*
X140043793Y-53017664D01*
X139957547Y-52902455D01*
X139957544Y-52902452D01*
X139842335Y-52816206D01*
X139842328Y-52816202D01*
X139707482Y-52765908D01*
X139707483Y-52765908D01*
X139647883Y-52759501D01*
X139647881Y-52759500D01*
X139647873Y-52759500D01*
X139647864Y-52759500D01*
X137552129Y-52759500D01*
X137552123Y-52759501D01*
X137492516Y-52765908D01*
X137357671Y-52816202D01*
X137357664Y-52816206D01*
X137242455Y-52902452D01*
X137242452Y-52902455D01*
X137156206Y-53017664D01*
X137156202Y-53017671D01*
X137105908Y-53152517D01*
X137099501Y-53212116D01*
X137099501Y-53212123D01*
X137099500Y-53212135D01*
X120870499Y-53212135D01*
X120870494Y-53212128D01*
X120756379Y-53055063D01*
X120594937Y-52893621D01*
X120410228Y-52759421D01*
X120206803Y-52655770D01*
X119989660Y-52585215D01*
X119764162Y-52549500D01*
X119764157Y-52549500D01*
X118235843Y-52549500D01*
X118235838Y-52549500D01*
X118010339Y-52585215D01*
X117793196Y-52655770D01*
X117589771Y-52759421D01*
X117405061Y-52893622D01*
X117243622Y-53055061D01*
X117109421Y-53239771D01*
X117005770Y-53443196D01*
X116935215Y-53660339D01*
X116899500Y-53885837D01*
X108600500Y-53885837D01*
X108564784Y-53660339D01*
X108532049Y-53559592D01*
X108494231Y-53443201D01*
X108494229Y-53443198D01*
X108494229Y-53443196D01*
X108412343Y-53282487D01*
X108390579Y-53239772D01*
X108256379Y-53055063D01*
X108094937Y-52893621D01*
X107910228Y-52759421D01*
X107706803Y-52655770D01*
X107489660Y-52585215D01*
X107264162Y-52549500D01*
X107264157Y-52549500D01*
X105735843Y-52549500D01*
X105735838Y-52549500D01*
X105510339Y-52585215D01*
X105293196Y-52655770D01*
X105089771Y-52759421D01*
X104905061Y-52893622D01*
X104743622Y-53055061D01*
X104609421Y-53239771D01*
X104505770Y-53443196D01*
X104435215Y-53660339D01*
X104399500Y-53885837D01*
X100500500Y-53885837D01*
X100500500Y-48750000D01*
X104421522Y-48750000D01*
X105899999Y-48750000D01*
X105874979Y-48810402D01*
X105850000Y-48935981D01*
X105850000Y-49064019D01*
X105874979Y-49189598D01*
X105899999Y-49250000D01*
X104421522Y-49250000D01*
X104435704Y-49339544D01*
X104506230Y-49556604D01*
X104609849Y-49759966D01*
X104744004Y-49944614D01*
X104905385Y-50105995D01*
X105090033Y-50240150D01*
X105293395Y-50343769D01*
X105510455Y-50414295D01*
X105735884Y-50450000D01*
X106250000Y-50450000D01*
X106250000Y-49600001D01*
X106310402Y-49625021D01*
X106435981Y-49650000D01*
X106564019Y-49650000D01*
X106689598Y-49625021D01*
X106750000Y-49600001D01*
X106750000Y-50450000D01*
X107264116Y-50450000D01*
X107489544Y-50414295D01*
X107706604Y-50343769D01*
X107909966Y-50240150D01*
X108094614Y-50105995D01*
X108255995Y-49944614D01*
X108390150Y-49759966D01*
X108493769Y-49556604D01*
X108564295Y-49339544D01*
X108578478Y-49250000D01*
X107100001Y-49250000D01*
X107125021Y-49189598D01*
X107150000Y-49064019D01*
X107150000Y-48935981D01*
X107125021Y-48810402D01*
X107100001Y-48750000D01*
X108578478Y-48750000D01*
X116921522Y-48750000D01*
X118399999Y-48750000D01*
X118374979Y-48810402D01*
X118350000Y-48935981D01*
X118350000Y-49064019D01*
X118374979Y-49189598D01*
X118399999Y-49250000D01*
X116921522Y-49250000D01*
X116935704Y-49339544D01*
X117006230Y-49556604D01*
X117109849Y-49759966D01*
X117244004Y-49944614D01*
X117405385Y-50105995D01*
X117590033Y-50240150D01*
X117793395Y-50343769D01*
X118010455Y-50414295D01*
X118235884Y-50450000D01*
X118750000Y-50450000D01*
X118750000Y-49600001D01*
X118810402Y-49625021D01*
X118935981Y-49650000D01*
X119064019Y-49650000D01*
X119189598Y-49625021D01*
X119250000Y-49600001D01*
X119250000Y-50450000D01*
X119764116Y-50450000D01*
X119989544Y-50414295D01*
X120206604Y-50343769D01*
X120409966Y-50240150D01*
X120594614Y-50105995D01*
X120755995Y-49944614D01*
X120890150Y-49759966D01*
X120993769Y-49556604D01*
X121064295Y-49339544D01*
X121078478Y-49250000D01*
X119600001Y-49250000D01*
X119625021Y-49189598D01*
X119650000Y-49064019D01*
X119650000Y-48935981D01*
X119625021Y-48810402D01*
X119600001Y-48750000D01*
X121078478Y-48750000D01*
X121064295Y-48660455D01*
X120993769Y-48443395D01*
X120890150Y-48240033D01*
X120755995Y-48055385D01*
X120594614Y-47894004D01*
X120409966Y-47759849D01*
X120206604Y-47656230D01*
X119989544Y-47585704D01*
X119764116Y-47550000D01*
X119250000Y-47550000D01*
X119250000Y-48399998D01*
X119189598Y-48374979D01*
X119064019Y-48350000D01*
X118935981Y-48350000D01*
X118810402Y-48374979D01*
X118750000Y-48399998D01*
X118750000Y-47550000D01*
X118235884Y-47550000D01*
X118010455Y-47585704D01*
X117793395Y-47656230D01*
X117590033Y-47759849D01*
X117405385Y-47894004D01*
X117244004Y-48055385D01*
X117109849Y-48240033D01*
X117006230Y-48443395D01*
X116935704Y-48660455D01*
X116921522Y-48750000D01*
X108578478Y-48750000D01*
X108564295Y-48660455D01*
X108493769Y-48443395D01*
X108390150Y-48240033D01*
X108255995Y-48055385D01*
X108094614Y-47894004D01*
X107909966Y-47759849D01*
X107706604Y-47656230D01*
X107489544Y-47585704D01*
X107264116Y-47550000D01*
X106750000Y-47550000D01*
X106750000Y-48399998D01*
X106689598Y-48374979D01*
X106564019Y-48350000D01*
X106435981Y-48350000D01*
X106310402Y-48374979D01*
X106250000Y-48399998D01*
X106250000Y-47550000D01*
X105735884Y-47550000D01*
X105510455Y-47585704D01*
X105293395Y-47656230D01*
X105090033Y-47759849D01*
X104905385Y-47894004D01*
X104744004Y-48055385D01*
X104609849Y-48240033D01*
X104506230Y-48443395D01*
X104435704Y-48660455D01*
X104421522Y-48750000D01*
X100500500Y-48750000D01*
X100500500Y-46185258D01*
X137269500Y-46185258D01*
X137269500Y-46414741D01*
X137294446Y-46604215D01*
X137299452Y-46642238D01*
X137299453Y-46642240D01*
X137358842Y-46863887D01*
X137446650Y-47075876D01*
X137446657Y-47075890D01*
X137561392Y-47274617D01*
X137701081Y-47456661D01*
X137701089Y-47456670D01*
X137863330Y-47618911D01*
X137863338Y-47618918D01*
X138045382Y-47758607D01*
X138045385Y-47758608D01*
X138045388Y-47758611D01*
X138244112Y-47873344D01*
X138244117Y-47873346D01*
X138244123Y-47873349D01*
X138293989Y-47894004D01*
X138456113Y-47961158D01*
X138677762Y-48020548D01*
X138905266Y-48050500D01*
X138905273Y-48050500D01*
X139134727Y-48050500D01*
X139134734Y-48050500D01*
X139362238Y-48020548D01*
X139583887Y-47961158D01*
X139795888Y-47873344D01*
X139994612Y-47758611D01*
X140176661Y-47618919D01*
X140176665Y-47618914D01*
X140176670Y-47618911D01*
X140338911Y-47456670D01*
X140338914Y-47456665D01*
X140338919Y-47456661D01*
X140478611Y-47274612D01*
X140593344Y-47075888D01*
X140681158Y-46863887D01*
X140740548Y-46642238D01*
X140770500Y-46414734D01*
X140770500Y-46185266D01*
X140770499Y-46185258D01*
X161779500Y-46185258D01*
X161779500Y-46414741D01*
X161804446Y-46604215D01*
X161809452Y-46642238D01*
X161809453Y-46642240D01*
X161868842Y-46863887D01*
X161956650Y-47075876D01*
X161956657Y-47075890D01*
X162071392Y-47274617D01*
X162211081Y-47456661D01*
X162211089Y-47456670D01*
X162373330Y-47618911D01*
X162373338Y-47618918D01*
X162555382Y-47758607D01*
X162555385Y-47758608D01*
X162555388Y-47758611D01*
X162754112Y-47873344D01*
X162754117Y-47873346D01*
X162754123Y-47873349D01*
X162803989Y-47894004D01*
X162966113Y-47961158D01*
X163187762Y-48020548D01*
X163415266Y-48050500D01*
X163415273Y-48050500D01*
X163644727Y-48050500D01*
X163644734Y-48050500D01*
X163872238Y-48020548D01*
X164093887Y-47961158D01*
X164305888Y-47873344D01*
X164504612Y-47758611D01*
X164686661Y-47618919D01*
X164686665Y-47618914D01*
X164686670Y-47618911D01*
X164848911Y-47456670D01*
X164848914Y-47456665D01*
X164848919Y-47456661D01*
X164988611Y-47274612D01*
X165103344Y-47075888D01*
X165191158Y-46863887D01*
X165250548Y-46642238D01*
X165280500Y-46414734D01*
X165280500Y-46185266D01*
X165250548Y-45957762D01*
X165191158Y-45736113D01*
X165103344Y-45524112D01*
X164988611Y-45325388D01*
X164988608Y-45325385D01*
X164988607Y-45325382D01*
X164848918Y-45143338D01*
X164848911Y-45143330D01*
X164686670Y-44981089D01*
X164686661Y-44981081D01*
X164504617Y-44841392D01*
X164305890Y-44726657D01*
X164305876Y-44726650D01*
X164093887Y-44638842D01*
X163872238Y-44579452D01*
X163834215Y-44574446D01*
X163644741Y-44549500D01*
X163644734Y-44549500D01*
X163415266Y-44549500D01*
X163415258Y-44549500D01*
X163198715Y-44578009D01*
X163187762Y-44579452D01*
X163094076Y-44604554D01*
X162966112Y-44638842D01*
X162754123Y-44726650D01*
X162754109Y-44726657D01*
X162555382Y-44841392D01*
X162373338Y-44981081D01*
X162211081Y-45143338D01*
X162071392Y-45325382D01*
X161956657Y-45524109D01*
X161956650Y-45524123D01*
X161868842Y-45736112D01*
X161809453Y-45957759D01*
X161809451Y-45957770D01*
X161779500Y-46185258D01*
X140770499Y-46185258D01*
X140740548Y-45957762D01*
X140681158Y-45736113D01*
X140593344Y-45524112D01*
X140478611Y-45325388D01*
X140478608Y-45325385D01*
X140478607Y-45325382D01*
X140338918Y-45143338D01*
X140338911Y-45143330D01*
X140176670Y-44981089D01*
X140176661Y-44981081D01*
X139994617Y-44841392D01*
X139795890Y-44726657D01*
X139795876Y-44726650D01*
X139583887Y-44638842D01*
X139362238Y-44579452D01*
X139324215Y-44574446D01*
X139134741Y-44549500D01*
X139134734Y-44549500D01*
X138905266Y-44549500D01*
X138905258Y-44549500D01*
X138688715Y-44578009D01*
X138677762Y-44579452D01*
X138584076Y-44604554D01*
X138456112Y-44638842D01*
X138244123Y-44726650D01*
X138244109Y-44726657D01*
X138045382Y-44841392D01*
X137863338Y-44981081D01*
X137701081Y-45143338D01*
X137561392Y-45325382D01*
X137446657Y-45524109D01*
X137446650Y-45524123D01*
X137358842Y-45736112D01*
X137299453Y-45957759D01*
X137299451Y-45957770D01*
X137269500Y-46185258D01*
X100500500Y-46185258D01*
X100500500Y-39624500D01*
X100520185Y-39557461D01*
X100572989Y-39511706D01*
X100624500Y-39500500D01*
X196375500Y-39500500D01*
X196442539Y-39520185D01*
G37*
%TD.AperFunction*%
%TD*%
M02*
